<?xml version="1.0" encoding="UTF-8" standalone="no"?>
<!-- Created with Inkscape (http://www.inkscape.org/) -->

<svg
   xmlns:dc="http://purl.org/dc/elements/1.1/"
   xmlns:cc="http://creativecommons.org/ns#"
   xmlns:rdf="http://www.w3.org/1999/02/22-rdf-syntax-ns#"
   xmlns:svg="http://www.w3.org/2000/svg"
   xmlns="http://www.w3.org/2000/svg"
   xmlns:sodipodi="http://sodipodi.sourceforge.net/DTD/sodipodi-0.dtd"
   xmlns:inkscape="http://www.inkscape.org/namespaces/inkscape"
   width="38.449249mm"
   height="17.30216mm"
   viewBox="0 0 38.449249 17.30216"
   version="1.1"
   id="svg877"
   inkscape:version="0.92.4 (5da689c313, 2019-01-14)"
   sodipodi:docname="fekk.svg">
  <defs
     id="defs871" />
  <sodipodi:namedview
     id="base"
     pagecolor="#ffffff"
     bordercolor="#666666"
     borderopacity="1.0"
     inkscape:pageopacity="0.0"
     inkscape:pageshadow="2"
     inkscape:zoom="1.4"
     inkscape:cx="-19.03447"
     inkscape:cy="19.053139"
     inkscape:document-units="mm"
     inkscape:current-layer="layer1"
     showgrid="false"
     fit-margin-top="0"
     fit-margin-left="0"
     fit-margin-right="0"
     fit-margin-bottom="0"
     inkscape:window-width="1246"
     inkscape:window-height="666"
     inkscape:window-x="1288"
     inkscape:window-y="748"
     inkscape:window-maximized="0" />
  <metadata
     id="metadata874">
    <rdf:RDF>
      <cc:Work
         rdf:about="">
        <dc:format>image/svg+xml</dc:format>
        <dc:type
           rdf:resource="http://purl.org/dc/dcmitype/StillImage" />
        <dc:title></dc:title>
      </cc:Work>
    </rdf:RDF>
  </metadata>
  <g
     inkscape:label="Layer 1"
     inkscape:groupmode="layer"
     id="layer1"
     transform="translate(-140.28133,-137.9144)">
    <path
       style="fill:#000000;stroke-width:0.09612312"
       d="m 140.28133,146.56548 v -8.65108 h 4.80616 4.80615 v 0.96123 0.96123 h -3.84492 -3.84493 v 6.72862 6.72862 h 3.84493 3.84492 v 0.96123 0.96123 h -4.80615 -4.80616 z m 11.43865,7.68985 v -0.96123 h 2.8837 2.88369 v 0.96123 0.96123 h -2.88369 -2.8837 z m 7.68985,0 v -0.96123 h 8.69915 8.69914 v -6.72862 -6.72862 h -8.69914 -8.69915 v -0.96123 -0.96123 h 9.66038 9.66037 v 8.65108 8.65108 h -9.66037 -9.66038 z m -15.28357,-7.68985 v -4.80616 h 2.88369 2.88369 v 0.96123 0.96123 h -1.92246 -1.92246 v 0.96123 0.96124 h 1.92246 1.92246 v 0.96123 0.96123 h -1.92246 -1.92246 v 1.92246 1.92246 h -0.96123 -0.96123 z m 7.59372,3.84492 v -0.96123 h 2.8837 2.88369 v 0.96123 0.96123 h -2.88369 -2.8837 z m 7.68985,-3.84492 v -4.80616 h 0.95955 0.95956 l 0.0257,2.35564 0.0257,2.35564 1.39859,-2.33161 1.39859,-2.33161 1.07454,-0.0272 1.07454,-0.0272 -1.44539,2.40621 -1.44538,2.40621 1.44538,2.4062 1.44539,2.40621 -1.07454,-0.0272 -1.07454,-0.0272 -1.39859,-2.33161 -1.39859,-2.33161 -0.0257,2.35564 -0.0257,2.35564 h -0.95956 -0.95955 z m 8.74721,0 v -4.80616 h 0.95952 0.95952 l 0.0257,2.30905 0.0257,2.30906 1.38266,-2.30906 1.38265,-2.30905 h 1.05013 c 0.57757,0 1.03251,0.0324 1.01098,0.0721 -0.0215,0.0397 -0.65129,1.09531 -1.39946,2.3459 -0.74817,1.25059 -1.36031,2.32526 -1.36031,2.38817 0,0.0629 0.61214,1.13758 1.36031,2.38817 0.74817,1.25059 1.37793,2.30624 1.39946,2.34589 0.0215,0.0396 -0.43341,0.0721 -1.01098,0.0721 h -1.05013 l -1.38265,-2.30905 -1.38266,-2.30905 -0.0257,2.30905 -0.0257,2.30905 h -0.95952 -0.95952 z m -16.43706,0 v -0.96123 h 2.8837 2.88369 v 0.96123 0.96123 h -2.88369 -2.8837 z m 0,-3.84493 v -0.96123 h 2.8837 2.88369 v 0.96123 0.96123 h -2.88369 -2.8837 z m 0,-3.84492 v -0.96123 h 2.8837 2.88369 v 0.96123 0.96123 h -2.88369 -2.8837 z"
       id="path885"
       inkscape:connector-curvature="0" />
  </g>
</svg>
