<?xml version="1.0" encoding="UTF-8" standalone="no"?>
<!-- Created with Inkscape (http://www.inkscape.org/) -->

<svg
   xmlns:dc="http://purl.org/dc/elements/1.1/"
   xmlns:cc="http://creativecommons.org/ns#"
   xmlns:rdf="http://www.w3.org/1999/02/22-rdf-syntax-ns#"
   xmlns:svg="http://www.w3.org/2000/svg"
   xmlns="http://www.w3.org/2000/svg"
   xmlns:sodipodi="http://sodipodi.sourceforge.net/DTD/sodipodi-0.dtd"
   xmlns:inkscape="http://www.inkscape.org/namespaces/inkscape"
   width="39.04586mm"
   height="18.525mm"
   viewBox="0 0 39.04586 18.525"
   version="1.1"
   id="svg1092"
   inkscape:version="0.92.4 (5da689c313, 2019-01-14)"
   sodipodi:docname="sof.svg">
  <defs
     id="defs1086" />
  <sodipodi:namedview
     id="base"
     pagecolor="#ffffff"
     bordercolor="#666666"
     borderopacity="1.0"
     inkscape:pageopacity="0.0"
     inkscape:pageshadow="2"
     inkscape:zoom="0.35"
     inkscape:cx="73.787445"
     inkscape:cy="35.007872"
     inkscape:document-units="mm"
     inkscape:current-layer="layer1"
     showgrid="false"
     fit-margin-top="0"
     fit-margin-left="0"
     fit-margin-right="0"
     fit-margin-bottom="0"
     inkscape:window-width="1246"
     inkscape:window-height="666"
     inkscape:window-x="1288"
     inkscape:window-y="748"
     inkscape:window-maximized="0" />
  <metadata
     id="metadata1089">
    <rdf:RDF>
      <cc:Work
         rdf:about="">
        <dc:format>image/svg+xml</dc:format>
        <dc:type
           rdf:resource="http://purl.org/dc/dcmitype/StillImage" />
        <dc:title></dc:title>
      </cc:Work>
    </rdf:RDF>
  </metadata>
  <g
     inkscape:label="Layer 1"
     inkscape:groupmode="layer"
     id="layer1"
     transform="translate(-86.310405,-139.57083)">
    <g
       transform="matrix(0.26458333,0,0,0.26458333,-230.05852,125.70681)"
       id="g169">
      <g
         id="g167">
        <path
           inkscape:connector-curvature="0"
           id="path99"
           d="m 1343.3,64.5 c -0.4,1 -1.1,1.3 -2.1,1.3 -6.9,0 -13.8,0 -20.7,0 -0.3,0 -0.6,0 -0.9,0 0,4.3 0,8.7 0,13 0.2,0 0.5,0 0.7,0 5.5,0 11,0 16.5,0 1.5,0 2,0.5 2,2 0,2.6 0,5.3 0,7.9 0,1.3 -0.6,1.9 -1.9,1.9 -5.5,0 -11.1,0 -16.6,0 -0.2,0 -0.5,0 -0.8,0 0,0.3 0,0.5 0,0.8 0,5.6 0,11.2 0,16.8 0,1.4 -0.6,1.9 -1.9,1.9 -2.9,0 -5.9,0 -8.8,0 -1.3,0 -1.8,-0.5 -1.8,-1.8 0,-17.5 0,-35 0,-52.5 0,-1.3 0.5,-1.8 1.8,-1.8 10.9,0 21.7,0 32.6,0 1,0 1.6,0.4 1.9,1.3 0,3 0,6.1 0,9.2 z" />
        <path
           inkscape:connector-curvature="0"
           id="path101"
           d="m 1268.7,111.6 c -16,0.1 -29.2,-13 -29.5,-28.9 -0.4,-16.7 13.1,-30.4 29.8,-30.3 16.3,0.1 29.6,13.4 29.4,30 -0.3,16.3 -13.7,29.3 -29.7,29.2 z M 1285.5,82 c 0,-9.3 -7.5,-16.8 -16.8,-16.8 -9.2,0 -16.8,7.5 -16.8,16.7 0,9.4 7.5,16.9 16.8,16.9 9.2,0 16.8,-7.5 16.8,-16.8 z" />
        <path
           inkscape:connector-curvature="0"
           id="path103"
           d="m 1214.4,110.9 c -5,-0.1 -9.9,-1 -14.3,-3.5 -1.3,-0.7 -2.4,-1.7 -3.5,-2.6 -0.9,-0.7 -0.9,-1.5 -0.4,-2.5 1.2,-2.1 2.4,-4.3 3.6,-6.4 0.6,-1.1 1.7,-1.3 2.9,-0.6 1.8,1.1 3.5,2.2 5.4,3.1 2,1 4.1,1.4 6.3,1.3 2.4,-0.1 4.5,-1.5 5,-3.5 0.6,-2.2 -0.2,-4 -1.8,-5.5 -1.7,-1.6 -3.6,-2.6 -5.7,-3.6 -3.3,-1.6 -6.5,-3.2 -9.5,-5.4 -2.9,-2.2 -5.2,-4.8 -6.1,-8.4 -2.1,-7.6 1.7,-15.4 9,-18.5 3.3,-1.4 6.8,-1.9 10.4,-1.7 5.9,0.4 11,2.6 15.7,6 0.8,0.6 1,1.7 0.4,2.6 -1.4,2.1 -2.7,4.2 -4.1,6.2 -0.8,1.1 -2.2,1.2 -3.5,0.4 -1.4,-0.9 -2.8,-1.7 -4.2,-2.5 -2.2,-1.1 -4.4,-1.9 -6.9,-1.8 -2.7,0.1 -4.6,1.9 -4.5,4.4 0,1.1 0.5,2 1.3,2.7 1.1,1 2.3,1.9 3.6,2.7 2.9,1.6 5.9,3 8.9,4.6 2.7,1.4 5.2,3.1 7.3,5.4 2.3,2.6 3.5,5.6 3.8,9 0.7,7.9 -4.7,14.6 -11.8,16.9 -2.3,0.9 -4.8,1.2 -7.3,1.2 z" />
        <path
           inkscape:connector-curvature="0"
           id="path105"
           d="m 1239.9,117.5 c 1.3,0.1 2.4,1.1 2.3,2.5 -0.1,1.3 -1.2,2.3 -2.4,2.3 -1.4,0 -2.4,-1.1 -2.3,-2.5 0,-1.3 1.1,-2.3 2.4,-2.3 z m -0.1,3.9 c 0.8,0 1.5,-0.6 1.5,-1.4 0,-0.8 -0.7,-1.5 -1.5,-1.5 -0.8,0 -1.5,0.7 -1.5,1.5 0,0.7 0.7,1.4 1.5,1.4 z" />
        <path
           inkscape:connector-curvature="0"
           id="path107"
           d="m 1207,117.5 c 1.3,0 2.4,1 2.4,2.4 0,1.3 -1,2.4 -2.3,2.4 -1.3,0 -2.4,-1 -2.4,-2.3 -0.1,-1.4 0.9,-2.5 2.3,-2.5 z m 0,3.9 c 0.8,0 1.5,-0.7 1.5,-1.5 0,-0.8 -0.7,-1.5 -1.5,-1.5 -0.8,0 -1.5,0.7 -1.5,1.5 0,0.8 0.7,1.5 1.5,1.5 z" />
        <path
           inkscape:connector-curvature="0"
           id="path109"
           d="m 1222.4,120.2 c 0,-0.9 0,-1.7 0,-2.5 0.8,-0.2 0.9,-0.1 0.9,0.6 0,1.3 0,2.6 0,4.1 -0.3,-0.2 -0.5,-0.3 -0.7,-0.5 -0.8,-0.8 -1.5,-1.6 -2.4,-2.6 0,1.1 0,2 0,2.9 -0.3,0 -0.6,0 -0.8,0 0,-1.5 0,-3 0,-4.7 0.7,0.3 1,0.9 1.5,1.3 0.5,0.5 0.9,1 1.4,1.4 0,0 0.1,0 0.1,0 z" />
        <path
           inkscape:connector-curvature="0"
           id="path111"
           d="m 1245.7,120.5 c 0,-0.2 -0.1,-0.6 0.5,-0.6 0.4,0.1 1.1,-0.4 1.1,0.6 0,0 0,0 0,0.1 0,1.4 -0.3,1.7 -1.8,1.7 -1.2,0 -2.1,-0.9 -2.3,-2.1 -0.1,-1 0.6,-2.2 1.6,-2.4 0.6,-0.1 1.2,-0.1 1.8,0.1 0.7,0.2 0.7,0.5 0.1,1 -0.1,-0.1 -0.2,-0.1 -0.4,-0.2 -0.6,-0.3 -1.3,-0.2 -1.7,0.2 -0.5,0.5 -0.6,1.2 -0.3,1.8 0.3,0.6 1,0.9 1.7,0.7 0.1,0 0.2,-0.2 0.4,-0.3 -0.3,-0.2 -0.4,-0.4 -0.7,-0.6 z" />
        <path
           inkscape:connector-curvature="0"
           id="path113"
           d="m 1282.9,117.6 c 0,0.5 0,1.1 0,1.6 0,0 0.1,0 0.1,0 0.4,-0.5 0.8,-0.9 1.2,-1.4 0.4,-0.5 0.5,-0.5 1.3,-0.2 -0.6,0.7 -1.2,1.4 -1.8,2.1 0.6,0.8 1.3,1.5 1.9,2.3 -0.6,0.2 -1.1,0.2 -1.4,-0.3 -0.4,-0.5 -0.8,-1 -1.3,-1.5 0,0.6 0,1.2 0,1.9 -0.4,0 -0.6,0 -0.9,0 0,-1.5 0,-3 0,-4.6 0.2,0.1 0.5,0.1 0.9,0.1 z" />
        <path
           inkscape:connector-curvature="0"
           id="path115"
           d="m 1232.3,117.7 c -0.6,0.7 -1.2,1.4 -1.8,2.1 0.6,0.8 1.3,1.5 1.9,2.3 -0.6,0.2 -1.1,0.2 -1.4,-0.3 -0.4,-0.5 -0.8,-1 -1.3,-1.7 0,0.8 0,1.4 0,2 -0.9,0.2 -1,0.2 -1,-0.6 0,-1.3 0,-2.5 0,-3.9 0.3,0 0.6,0 0.9,0 0,0.5 0,1.1 0,1.8 0.6,-0.6 1,-1.1 1.4,-1.6 0.4,-0.3 0.8,-0.3 1.3,-0.1 z" />
        <path
           inkscape:connector-curvature="0"
           id="path117"
           d="m 1263.5,120.3 c -0.6,0 -1.1,0 -1.7,0 0,0.4 0,0.7 0,1.1 0.7,0 1.3,0 2,0 0,0.3 0,0.5 0,0.8 -0.9,0 -1.9,0 -2.9,0 0,-0.5 0,-0.9 0,-1.3 0,-0.9 0,-1.8 0,-2.8 0,-0.3 0,-0.5 0.4,-0.5 0.8,0 1.7,0 2.5,0 0,0.3 0,0.5 0,0.8 -0.7,0 -1.3,0 -2,0 0,0.4 0,0.6 0,1 0.5,0 1.1,0 1.7,0 0,0.3 0,0.6 0,0.9 z" />
        <path
           inkscape:connector-curvature="0"
           id="path119"
           d="m 1295.9,119.5 c 0.5,0 1.1,0 1.6,0 0,0.3 0,0.5 0,0.8 -0.5,0 -1.1,0 -1.6,0.1 0,0.4 0,0.7 0,1.1 0.5,0 0.9,0 1.4,0 0.6,0 0.8,0.1 0.6,0.8 -0.9,0 -1.8,0 -2.8,0 0,-1.5 0,-3 0,-4.6 0.9,0 1.8,0 2.8,0 0.2,0.7 0.2,0.8 -0.5,0.8 -0.4,0 -0.9,0 -1.4,0 -0.1,0.3 -0.1,0.6 -0.1,1 z" />
        <path
           inkscape:connector-curvature="0"
           id="path121"
           d="m 1254,117.5 c 0.7,1.5 1.4,3.1 2.1,4.6 -0.6,0.2 -0.9,0.1 -1.2,-0.4 -0.1,-0.2 -0.3,-0.3 -0.5,-0.3 -0.4,0 -0.8,0 -1.2,0 -0.2,0 -0.4,0.1 -0.5,0.3 -0.2,0.6 -0.6,0.7 -1.2,0.5 0.7,-1.6 1.4,-3.1 2.1,-4.6 0.2,-0.1 0.3,-0.1 0.4,-0.1 z m -0.7,3 c 0.4,0 0.8,0 1.2,0 -0.2,-0.5 -0.4,-0.8 -0.6,-1.3 -0.3,0.6 -0.5,0.9 -0.6,1.3 z" />
        <path
           inkscape:connector-curvature="0"
           id="path123"
           d="m 1271.3,117.5 c 0.7,1.5 1.4,3.1 2.1,4.6 -0.6,0.2 -0.9,0.1 -1.1,-0.4 -0.1,-0.2 -0.4,-0.3 -0.6,-0.3 -0.3,-0.1 -0.6,0 -0.9,0 -0.4,0 -0.7,0.1 -0.9,0.5 -0.1,0.2 -0.5,0.3 -0.8,0.5 -0.1,-0.1 -0.2,-0.1 -0.2,-0.2 0.7,-1.6 1.4,-3.1 2.1,-4.6 0.1,-0.1 0.2,-0.1 0.3,-0.1 z m 0.4,3.1 c -0.2,-0.4 -0.4,-0.8 -0.6,-1.3 -0.2,0.5 -0.4,0.9 -0.6,1.3 0.5,0 0.8,0 1.2,0 z" />
        <path
           inkscape:connector-curvature="0"
           id="path125"
           d="m 1216.1,118.4 c 0,0.4 0,0.7 0,1 0.5,0 1.1,0 1.6,0 0,0.3 0,0.5 0,0.8 -0.5,0 -1,0 -1.6,0 0,0.4 0,0.7 0,1.1 0.6,0 1.3,0 2,0 0,0.3 0,0.5 0,0.8 -0.9,0 -1.9,0 -2.8,0 0,-1.5 0,-3 0,-4.6 0.9,0 1.7,0 2.6,0 0.1,0 0.3,0.3 0.3,0.4 0,0.2 -0.2,0.4 -0.3,0.4 -0.6,0.2 -1.2,0.1 -1.8,0.1 z" />
        <path
           inkscape:connector-curvature="0"
           id="path127"
           d="m 1315.4,117.5 c 0.7,1.5 1.4,3.1 2.1,4.6 -0.6,0.2 -0.9,0.2 -1.1,-0.4 -0.1,-0.2 -0.4,-0.3 -0.6,-0.4 -0.3,-0.1 -0.5,0 -0.8,0 -0.4,0 -0.7,0.1 -0.9,0.5 -0.1,0.2 -0.5,0.3 -0.8,0.5 -0.1,-0.1 -0.1,-0.1 -0.2,-0.2 0.7,-1.5 1.4,-3.1 2.1,-4.6 0.1,0 0.1,0 0.2,0 z m -0.1,1.8 c -0.2,0.5 -0.4,0.9 -0.6,1.3 0.4,0 0.8,0 1.2,0 -0.2,-0.5 -0.4,-0.8 -0.6,-1.3 z" />
        <path
           inkscape:connector-curvature="0"
           id="path129"
           d="m 1259.2,118.7 c -0.3,-0.1 -0.5,-0.3 -0.8,-0.3 -0.2,0 -0.5,0.1 -0.7,0.2 0.1,0.2 0.2,0.5 0.3,0.7 0.2,0.2 0.5,0.3 0.8,0.4 0.6,0.3 1,0.7 1,1.4 0,0.6 -0.4,1 -0.9,1.1 -0.7,0.2 -1.4,0.1 -1.9,-0.4 -0.1,-0.1 0,-0.5 0,-0.8 0.4,0.2 0.6,0.3 0.8,0.4 0.4,0.1 0.8,0.2 1,-0.2 0.2,-0.4 -0.2,-0.6 -0.5,-0.8 -0.3,-0.2 -0.6,-0.3 -0.9,-0.5 -0.5,-0.3 -0.7,-0.9 -0.5,-1.4 0.1,-0.5 0.5,-0.8 1.1,-0.9 0.4,0 0.8,0 1.2,0.1 0.5,0.2 0.5,0.4 0,1 z" />
        <path
           inkscape:connector-curvature="0"
           id="path131"
           d="m 1278.1,121.1 c 0.3,0.1 0.6,0.3 1,0.4 0.2,0 0.6,-0.1 0.7,-0.3 0.1,-0.1 -0.1,-0.5 -0.3,-0.6 -0.3,-0.2 -0.6,-0.3 -0.9,-0.5 -0.7,-0.4 -0.9,-0.9 -0.7,-1.6 0.2,-0.5 0.7,-0.9 1.4,-0.9 0.3,0 0.6,0.1 0.9,0.2 0.6,0.2 0.7,0.4 0.1,1 -0.3,-0.1 -0.5,-0.3 -0.8,-0.3 -0.2,0 -0.5,0.1 -0.7,0.2 0.1,0.2 0.2,0.5 0.3,0.7 0.1,0.1 0.3,0.2 0.5,0.2 1.1,0.5 1.5,1.2 1.1,2 -0.3,0.7 -1.5,1 -2.4,0.6 -0.6,-0.4 -0.7,-0.6 -0.2,-1.1 z" />
        <path
           inkscape:connector-curvature="0"
           id="path133"
           d="m 1298.8,121.7 c 0.1,-0.6 0.4,-0.7 0.9,-0.4 0.2,0.1 0.4,0.2 0.6,0.1 0.2,0 0.4,-0.2 0.5,-0.3 0.1,-0.1 0,-0.4 -0.2,-0.5 -0.2,-0.2 -0.5,-0.3 -0.7,-0.4 -1,-0.5 -1.4,-1.2 -1,-1.9 0.3,-0.7 1.2,-0.9 2.1,-0.6 0.7,0.3 0.8,0.4 0.2,1 -0.3,-0.1 -0.6,-0.3 -0.9,-0.3 -0.2,0 -0.5,0.1 -0.6,0.3 -0.1,0.1 0.1,0.5 0.3,0.6 0.3,0.2 0.7,0.3 1,0.5 0.7,0.4 0.9,0.9 0.8,1.6 -0.1,0.5 -0.6,0.9 -1.3,1 -0.6,-0.1 -1.2,-0.2 -1.7,-0.7 z" />
        <path
           inkscape:connector-curvature="0"
           id="path135"
           d="m 1200,118.1 c -0.1,0.2 -0.3,0.4 -0.4,0.6 -0.3,-0.1 -0.6,-0.3 -0.9,-0.3 -0.2,0 -0.5,0.1 -0.6,0.3 -0.1,0.1 0.1,0.5 0.2,0.6 0.3,0.2 0.6,0.3 0.9,0.5 0.7,0.4 1,0.9 0.8,1.6 -0.1,0.6 -0.7,1 -1.5,1 -0.5,0 -1,-0.3 -1.6,-0.4 0.2,-0.4 0.3,-0.5 0.4,-0.8 0.3,0.1 0.5,0.3 0.8,0.4 0.3,0 0.7,0 0.9,-0.2 0.3,-0.3 -0.1,-0.6 -0.4,-0.8 -0.3,-0.2 -0.6,-0.3 -0.8,-0.4 -0.6,-0.4 -0.9,-0.9 -0.7,-1.5 0.1,-0.6 0.6,-1 1.3,-1 0.5,0 1,0.2 1.5,0.3 0.1,-0.1 0.1,0 0.1,0.1 z" />
        <path
           inkscape:connector-curvature="0"
           id="path137"
           d="m 1227,118.7 c -0.4,-0.1 -0.7,-0.3 -1,-0.3 -0.2,0 -0.5,0.1 -0.5,0.3 -0.1,0.2 0.1,0.5 0.2,0.6 0.3,0.2 0.6,0.3 0.9,0.5 0.7,0.4 1,0.9 0.9,1.6 -0.2,0.7 -0.8,1.1 -1.6,1 -0.4,0 -0.8,-0.2 -1.1,-0.3 -0.1,-0.1 -0.1,-0.4 -0.1,-0.6 0.2,0 0.4,-0.1 0.6,-0.1 0,0 0.1,0 0.1,0.1 0.6,0.3 1.1,0.3 1.2,-0.1 0.2,-0.6 -0.3,-0.7 -0.7,-0.9 -0.3,-0.2 -0.8,-0.3 -0.9,-0.6 -0.2,-0.3 -0.4,-0.9 -0.3,-1.2 0.1,-0.3 0.5,-0.7 0.9,-0.8 0.4,-0.1 0.9,0 1.3,0.1 0.6,-0.1 0.6,0.1 0.1,0.7 z" />
        <path
           inkscape:connector-curvature="0"
           id="path139"
           d="m 1209.9,117.7 c 0.6,-0.2 1,-0.1 1.2,0.5 0.3,0.7 0.6,1.4 1,2.3 0.4,-0.8 0.7,-1.5 1,-2.2 0.3,-0.7 0.3,-0.7 1.2,-0.6 -0.7,1.6 -1.4,3.1 -2.1,4.7 -0.1,0 -0.1,0 -0.2,0 -0.7,-1.6 -1.4,-3.2 -2.1,-4.7 z" />
        <path
           inkscape:connector-curvature="0"
           id="path141"
           d="m 1310.9,120.4 c 0.4,-0.8 0.7,-1.5 1,-2.2 0.3,-0.7 0.3,-0.7 1.2,-0.6 -0.7,1.6 -1.4,3.1 -2.1,4.7 -0.1,0 -0.1,0 -0.2,0 -0.7,-1.5 -1.4,-3.1 -2.1,-4.7 0.6,-0.2 1,-0.1 1.2,0.5 0.3,0.8 0.6,1.5 1,2.3 z" />
        <path
           inkscape:connector-curvature="0"
           id="path143"
           d="m 1269,117.7 c -0.7,1.6 -1.4,3.1 -2.1,4.6 -0.1,0 -0.1,0 -0.2,0 -0.7,-1.5 -1.4,-3.1 -2.1,-4.6 0.7,-0.2 1,-0.1 1.2,0.5 0.3,0.7 0.6,1.4 1,2.2 0.4,-0.8 0.7,-1.5 1,-2.3 0.3,-0.6 0.3,-0.6 1.2,-0.4 z" />
        <path
           inkscape:connector-curvature="0"
           id="path145"
           d="m 1290.9,117.6 c 0.9,0 1.7,0 2.5,0 0.1,0 0.4,0.3 0.4,0.4 0,0.2 -0.2,0.4 -0.4,0.4 -0.5,0.1 -1,0 -1.6,0 0,0.4 0,0.7 0,1.1 0.5,0 1.1,0 1.7,0 0,0.3 0,0.5 0,0.8 -0.6,0 -1.1,0 -1.7,0 0,0.6 0,1.2 0,1.7 -0.3,0 -0.5,0 -0.8,0 -0.1,-1.3 -0.1,-2.8 -0.1,-4.4 z" />
        <path
           inkscape:connector-curvature="0"
           id="path147"
           d="m 1302.8,117.6 c 0.9,0 1.8,0 2.7,0 0.1,0 0.3,0.3 0.3,0.4 0,0.1 -0.2,0.4 -0.3,0.4 -0.2,0.1 -0.5,0 -0.8,0 0,1.3 0,2.5 0,3.7 -0.3,0 -0.6,0 -0.9,0 0,-1.2 0,-2.5 0,-3.7 -1.2,-0.1 -1.2,-0.1 -1,-0.8 z" />
        <path
           inkscape:connector-curvature="0"
           id="path149"
           d="m 1274.3,122.2 c 0,-1.5 0,-3 0,-4.6 0.3,0 0.5,0 0.8,0 0,1.2 0,2.5 0,3.8 0.6,0 1.2,0 1.8,0 0,0.3 0,0.5 0,0.8 -0.9,0 -1.7,0 -2.6,0 z" />
        <path
           inkscape:connector-curvature="0"
           id="path151"
           d="m 1318.5,117.6 c 0.3,0 0.5,0 0.8,0 0,1.3 0,2.5 0,3.8 0.6,0 1.2,0 1.8,0 0,0.3 0,0.5 0,0.8 -0.9,0 -1.7,0 -2.6,0 0,-1.5 0,-3 0,-4.6 z" />
        <path
           inkscape:connector-curvature="0"
           id="path153"
           d="m 1248.5,122.2 c 0,-1.5 0,-3 0,-4.6 0.3,0 0.5,0 0.8,0 0,1.2 0,2.5 0,3.8 0.6,0 1.2,0 1.8,0 0,0.3 0,0.5 0.1,0.8 -0.9,0 -1.8,0 -2.7,0 z" />
        <path
           inkscape:connector-curvature="0"
           id="path155"
           d="m 1201.4,117.6 c 0.3,0 0.5,0 0.8,0 0,1.3 0,2.5 0,3.8 0.6,0 1.2,0 1.8,0 0,0.3 0,0.5 0,0.8 -0.9,0 -1.7,0 -2.6,0 0,-1.5 0,-3 0,-4.6 z" />
        <path
           inkscape:connector-curvature="0"
           id="path157"
           d="m 1287.5,122.2 c -0.3,0 -0.6,0 -0.8,0 0,-1.5 0,-3 0,-4.5 0.8,-0.2 0.8,-0.1 0.8,0.6 0,1.3 0,2.6 0,3.9 z" />
        <path
           inkscape:connector-curvature="0"
           id="path159"
           d="m 1233.4,117.6 c 0.3,0 0.5,0 0.8,0 0,1.5 0,3 0,4.6 -0.2,0 -0.5,0 -0.8,0 0,-1.5 0,-3 0,-4.6 z" />
        <path
           inkscape:connector-curvature="0"
           id="path161"
           d="m 1307.7,122.2 c -0.3,0 -0.5,0 -0.8,0 0,-1.5 0,-3 0,-4.6 0.3,0 0.5,0 0.8,0 0,1.5 0,3 0,4.6 z" />
        <path
           inkscape:connector-curvature="0"
           id="path163"
           d="m 1258.2,117.3 c -0.3,-0.2 -0.6,-0.4 -0.8,-0.6 -0.1,-0.1 -0.1,-0.2 -0.1,-0.4 0.1,0 0.3,-0.1 0.4,0 0.3,0.3 0.6,0.3 1,0 0.1,-0.1 0.3,0 0.4,0.1 0,0.1 0,0.3 -0.1,0.4 -0.2,0.1 -0.5,0.3 -0.8,0.5 z" />
        <path
           inkscape:connector-curvature="0"
           id="path165"
           d="m 1275.2,82 c 0,3.6 -2.9,6.5 -6.5,6.5 -3.6,0 -6.4,-2.9 -6.4,-6.4 0,-3.6 2.9,-6.5 6.5,-6.5 3.5,0 6.4,2.8 6.4,6.4 z" />
      </g>
    </g>
  </g>
</svg>
