<?xml version="1.0" encoding="UTF-8" standalone="no"?>
<!-- Created with Inkscape (http://www.inkscape.org/) -->

<svg
   xmlns:dc="http://purl.org/dc/elements/1.1/"
   xmlns:cc="http://creativecommons.org/ns#"
   xmlns:rdf="http://www.w3.org/1999/02/22-rdf-syntax-ns#"
   xmlns:svg="http://www.w3.org/2000/svg"
   xmlns="http://www.w3.org/2000/svg"
   xmlns:sodipodi="http://sodipodi.sourceforge.net/DTD/sodipodi-0.dtd"
   xmlns:inkscape="http://www.inkscape.org/namespaces/inkscape"
   width="24.817917mm"
   height="21.092297mm"
   viewBox="0 0 24.817917 21.092297"
   version="1.1"
   id="svg632"
   inkscape:version="0.92.4 (5da689c313, 2019-01-14)"
   sodipodi:docname="vaga.svg">
  <defs
     id="defs626" />
  <sodipodi:namedview
     id="base"
     pagecolor="#ffffff"
     bordercolor="#666666"
     borderopacity="1.0"
     inkscape:pageopacity="0.0"
     inkscape:pageshadow="2"
     inkscape:zoom="0.35"
     inkscape:cx="838.32858"
     inkscape:cy="-440.14054"
     inkscape:document-units="mm"
     inkscape:current-layer="layer1"
     showgrid="false"
     fit-margin-top="0"
     fit-margin-left="0"
     fit-margin-right="0"
     fit-margin-bottom="0"
     inkscape:window-width="1246"
     inkscape:window-height="666"
     inkscape:window-x="1288"
     inkscape:window-y="748"
     inkscape:window-maximized="0" />
  <metadata
     id="metadata629">
    <rdf:RDF>
      <cc:Work
         rdf:about="">
        <dc:format>image/svg+xml</dc:format>
        <dc:type
           rdf:resource="http://purl.org/dc/dcmitype/StillImage" />
        <dc:title></dc:title>
      </cc:Work>
    </rdf:RDF>
  </metadata>
  <g
     inkscape:label="Layer 1"
     inkscape:groupmode="layer"
     id="layer1"
     transform="translate(115.97444,-11.287185)">
    <g
       transform="matrix(0.26458333,0,0,0.26458333,-156.24402,-2.1271895)"
       id="vw4aVK.tif">
      <g
         id="g294">
        <path
           inkscape:connector-curvature="0"
           id="path216"
           d="m 227.3,58 c 0,8.1 0,16.1 0,24.1 0.1,0 0.2,0 0.3,0 -0.1,0.4 -0.2,0.8 -0.3,1.4 1.4,-1.4 2.6,-2.7 3.8,-4 0.1,0.1 0.2,0.2 0.4,0.3 -0.2,0.2 -0.3,0.4 -0.5,0.6 -1,1.1 -2.1,2.2 -3,3.4 -0.5,0.6 -0.7,1.4 -0.5,2.3 1.1,-1.6 2.1,-3.1 3.2,-4.6 1.1,-1.5 2.5,-2.6 4,-3.7 -2.9,2.6 -5.3,5.7 -7.3,9.7 0,7.4 0,15.4 0,23.5 -25,0 -50,0 -75,0 0,-17.7 0,-35.3 0,-52.9 C 177.2,58 202.2,58 227.3,58 Z m -66.6,44.5 c 19.4,0 38.8,0 58.2,0 0,-5.5 0,-10.9 0,-16.5 -0.4,0.3 -0.6,0.6 -0.9,0.8 -0.1,-0.3 0,-0.5 0.1,-0.7 0.7,-1.2 0.9,-2.5 0.9,-3.8 0,-4.9 0,-9.7 0,-14.6 0,-0.4 0,-0.8 0,-1.2 -19.5,0 -38.9,0 -58.2,0 -0.1,12.1 -0.1,24 -0.1,36 z" />
        <path
           inkscape:connector-curvature="0"
           id="path218"
           d="m 196.6,126.8 c -1,-2.4 -2,-4.7 -2.9,-6.9 -0.1,0 -0.2,0 -0.3,0 0,2.3 0,4.6 0,6.9 -0.9,0 -1.7,0 -2.5,0 -0.1,-0.1 -0.1,-0.3 -0.2,-0.5 -1.4,1.1 -2.9,1.1 -4.3,0 -1.4,-1.1 -1.7,-2.6 -1.4,-4.2 -1.7,-0.8 -2.7,-0.2 -2.8,1.6 0,0.9 0,1.9 0,2.8 0,0.1 -0.1,0.1 -0.1,0.3 -0.8,0 -1.5,0 -2.4,0 0,-2.4 0,-4.7 0,-7.2 0.8,0 1.7,0 2.5,0 0.1,0.2 0.1,0.4 0.2,0.5 0.8,-0.3 1.7,-0.6 2.7,-1 0,0.9 0,1.6 0,2.4 1.9,-2.4 3.3,-2.8 5.5,-1.7 0.9,-0.8 1.9,-0.1 2.9,-0.5 -0.4,-1 -0.8,-2.1 -1.3,-3.2 1.1,0 2,0 3,0 0.8,2 1.6,4 2.5,6.3 0.9,-2.2 1.7,-4.2 2.5,-6.3 1,0 2,0 3.1,0 -1.5,3.6 -3,7.1 -4.5,10.6 -0.8,0.1 -1.4,0.1 -2.2,0.1 z m -7.4,-5.2 c -0.9,0 -1.6,0.7 -1.6,1.5 0,0.9 0.7,1.7 1.7,1.7 0.9,0 1.5,-0.7 1.5,-1.6 -0.1,-0.9 -0.7,-1.6 -1.6,-1.6 z" />
        <path
           inkscape:connector-curvature="0"
           id="path220"
           d="m 152.2,126.9 c 0,-3.6 0,-7.1 0,-10.8 1.8,0.1 3.6,0 5.3,0.3 2.7,0.6 4.2,2.9 4,5.8 -0.2,2.3 -2.4,4.5 -4.9,4.6 -1.5,0.1 -2.9,0.1 -4.4,0.1 z m 2.9,-2.5 c 1.3,0.2 2.4,-0.1 3.1,-1.2 0.6,-1.1 0.6,-2.3 0,-3.4 -0.7,-1.1 -1.8,-1.3 -3,-1.1 -0.1,1.9 -0.1,3.7 -0.1,5.7 z" />
        <path
           inkscape:connector-curvature="0"
           id="path222"
           d="m 210.1,127.7 c 1.2,0 2,0 2.9,0 0.5,0.6 1.3,0.9 2.2,0.5 0.7,-0.3 0.8,-1 0.7,-1.9 -1.1,0.7 -2.2,1 -3.3,0.5 -0.7,-0.3 -1.3,-0.8 -1.8,-1.4 -1,-1.4 -0.8,-3.6 0.4,-4.9 1.2,-1.4 2.9,-1.6 4.6,-0.6 0.8,-0.7 1.8,-0.2 2.7,-0.4 0,0.4 0.1,0.6 0.1,0.9 0,2 0,4 0,5.9 0,2 -0.8,3.3 -2.3,3.8 -1.9,0.6 -3.8,0.4 -5.3,-1 -0.4,-0.3 -0.6,-0.8 -0.9,-1.4 z m 4.4,-6.1 c -1,0 -1.6,0.5 -1.6,1.5 0,1 0.6,1.7 1.6,1.6 0.9,0 1.6,-0.7 1.6,-1.6 -0.1,-0.8 -0.7,-1.5 -1.6,-1.5 z" />
        <path
           inkscape:connector-curvature="0"
           id="path224"
           d="m 173.2,126.3 c -0.1,0.2 -0.1,0.3 -0.2,0.5 -0.8,0 -1.6,0 -2.4,0 0,-3.9 0,-7.8 0,-11.7 0.8,0 1.6,0 2.4,0 0,1.6 0,3.2 0,4.9 2.6,-1 4.2,-0.7 5.3,1 1,1.6 0.8,3.8 -0.5,5.1 -1.2,1.2 -2.8,1.3 -4.6,0.2 z m 3.1,-3 c 0,-0.9 -0.7,-1.6 -1.6,-1.6 -0.9,0 -1.6,0.6 -1.6,1.5 0,1 0.6,1.7 1.6,1.7 0.9,-0.1 1.6,-0.8 1.6,-1.6 z" />
        <path
           inkscape:connector-curvature="0"
           id="path226"
           d="m 224.5,119.9 c 0.9,-0.6 1.8,-0.2 2.8,-0.4 0,2.4 0,4.8 0,7.2 -0.8,0 -1.6,0 -2.4,0 -0.1,-0.1 -0.1,-0.3 -0.2,-0.4 -2.2,1.3 -4,0.9 -5.3,-1.3 -0.9,-1.5 -0.5,-3.6 0.7,-4.7 1.1,-1.1 2.7,-1.3 4.4,-0.4 z m 0.3,3.4 c 0,-1 -0.6,-1.6 -1.5,-1.6 -0.9,0 -1.7,0.7 -1.7,1.6 0,0.9 0.7,1.6 1.6,1.6 0.9,-0.1 1.6,-0.7 1.6,-1.6 z" />
        <path
           inkscape:connector-curvature="0"
           id="path228"
           d="m 206.4,119.7 c 1.3,-0.1 2.2,-0.1 3.2,-0.2 0,2.5 0,4.8 0,7.3 -0.9,-0.1 -1.9,0.4 -2.8,-0.4 -1.9,1 -3.5,0.8 -4.7,-0.6 -1.2,-1.4 -1.2,-3.7 -0.1,-5.2 1.2,-1.4 2.8,-1.6 4.4,-0.9 z m -1,1.9 c -0.9,0 -1.5,0.7 -1.5,1.6 0,0.9 0.6,1.6 1.6,1.6 0.9,0 1.6,-0.7 1.6,-1.7 -0.1,-0.9 -0.8,-1.5 -1.7,-1.5 z" />
        <path
           inkscape:connector-curvature="0"
           id="path230"
           d="m 166,127.3 c -3,-0.2 -4.8,-2.3 -4.3,-4.9 0.3,-1.5 1.4,-2.4 2.8,-2.8 2.4,-0.7 4.9,0.3 5.6,2.4 0.7,1.8 0,3.7 -1.7,4.5 -0.7,0.4 -1.6,0.5 -2.4,0.8 z m 0,-5.7 c -0.9,0 -1.6,0.6 -1.6,1.5 0,1 0.6,1.7 1.6,1.7 0.9,0 1.6,-0.7 1.6,-1.6 0,-0.9 -0.7,-1.6 -1.6,-1.6 z" />
        <path
           inkscape:connector-curvature="0"
           id="path232"
           d="m 186.4,56.6 c 1.2,-2 2.2,-3.9 3.4,-5.9 1.2,2 2.3,3.9 3.4,5.9 -2.4,0 -4.5,0 -6.8,0 z m 5.2,-1 c -0.6,-1.1 -1.2,-2 -1.8,-3.1 -0.7,1.2 -1.2,2.1 -1.8,3.1 1.2,0 2.3,0 3.6,0 z" />
        <path
           inkscape:connector-curvature="0"
           id="path234"
           d="m 244,73.8 c -2.2,2.1 -4.4,4.1 -6.5,6.3 -2.1,2.2 -3.2,4.9 -4.4,7.7 1.5,-6.4 6.1,-10.3 10.9,-14 z" />
        <path
           inkscape:connector-curvature="0"
           id="path236"
           d="m 236.5,84.9 c 0.1,-0.5 0.1,-1.1 0.3,-1.5 2.2,-3.7 5.3,-6.6 8.8,-9.2 0.1,-0.1 0.2,-0.1 0.4,-0.1 -3.8,3.1 -7.2,6.4 -9.5,10.8 0,0 0,0 0,0 z" />
        <path
           inkscape:connector-curvature="0"
           id="path238"
           d="m 229.5,86.5 c 1.8,-4.1 4.3,-7.6 8.3,-9.9 -0.2,0.2 -0.5,0.4 -0.7,0.7 -2.2,2 -4.3,3.9 -5.7,6.5 -0.5,0.8 -0.9,1.7 -1.3,2.5 -0.1,0.2 -0.1,0.3 -0.2,0.5 -0.2,-0.1 -0.3,-0.2 -0.4,-0.3 z" />
        <path
           inkscape:connector-curvature="0"
           id="path240"
           d="m 230.2,88 c 1.4,-4.2 3.8,-7.7 7.5,-10.3 -3.2,2.9 -5.7,6.3 -7.5,10.3 z" />
        <path
           inkscape:connector-curvature="0"
           id="path242"
           d="m 236.5,84.9 c -1.3,2 -2.6,3.9 -3.1,6.3 -0.1,0 -0.2,0 -0.3,-0.1 0,-0.2 0,-0.5 0,-0.7 0.4,-1.9 1.5,-3.5 2.5,-5.2 0.2,0 0.6,-0.1 0.9,-0.3 0,0 0,0 0,0 z" />
        <path
           inkscape:connector-curvature="0"
           id="path244"
           d="m 181.8,79.6 c 0.2,-0.1 0.4,-0.2 0.5,-0.3 0.2,-0.7 0.3,-1.4 0.4,-2.3 0.1,0.4 0.2,0.6 0.2,0.8 -0.1,2.1 -0.7,4.1 -1.3,6.1 -0.1,0.4 -0.2,0.7 -0.2,1.2 1.3,-2.9 2.1,-5.9 2.5,-9.2 0.1,0.2 0.2,0.4 0.2,0.6 0.2,-0.1 0.3,-0.2 0.5,-0.3 0,0.4 0,0.8 -0.1,1.1 -0.5,2 -1,4.1 -1.5,6.1 -0.6,2.7 -1.8,5.2 -2.8,7.7 -0.2,0.4 -0.6,0.8 -1,1.1 -0.2,0.4 -0.4,0.8 -0.5,1.2 -0.1,0 -0.2,-0.1 -0.3,-0.1 1,-2.6 2,-5.1 3,-7.7 -0.1,0 -0.2,-0.1 -0.2,-0.1 -1,2.3 -1.8,4.8 -3,7 -0.1,0 -0.2,-0.1 -0.3,-0.1 0.1,-0.3 0.3,-0.6 0.4,-0.9 -0.3,-0.4 -0.6,-0.8 -1,-1.2 0.4,-1 0.8,-1.9 1.2,-2.8 0,0 0.1,0 0.1,0 0,0.3 0,0.7 0,1 0.1,0 0.1,0 0.2,0 0.3,-0.5 0.5,-1 0.8,-1.5 0,0 0,0 0,0 0,0.2 0.1,0.4 0,0.6 -0.1,0.5 -0.3,0.9 -0.5,1.4 0.1,0 0.2,0.1 0.4,0.1 0.5,-1.6 1,-3.3 1.5,-4.9 v 0 c 0.4,-1.3 0.8,-2.5 1.2,-3.8 0,-0.2 -0.3,-0.5 -0.4,-0.8 z" />
        <path
           inkscape:connector-curvature="0"
           id="path246"
           d="m 175.4,84.9 c -0.3,0.4 -0.6,0.7 -0.8,1.1 -0.6,1.7 -1.2,3.4 -1.8,5.1 -0.3,-0.1 -0.8,-0.3 -1.3,-0.6 0,0.1 -0.1,0.3 -0.3,0.6 -0.5,-1.3 0.2,-2.1 0.2,-3.1 -0.1,0 -0.2,-0.1 -0.3,-0.1 -0.4,0.9 -0.8,1.9 -1.2,2.8 -0.1,0 -0.2,-0.1 -0.3,-0.1 0.3,-1 0.6,-1.9 0.8,-2.9 -0.1,0 -0.1,-0.1 -0.2,-0.1 -0.2,0.5 -0.4,0.9 -0.7,1.5 -0.2,-0.2 -0.4,-0.4 -0.6,-0.5 0.5,-3.2 2.3,-5.7 4.2,-8.1 0.1,0 0.2,0.1 0.3,0.1 -0.6,1 -1.1,2.1 -1.7,3.1 0,0 -0.1,0 -0.1,-0.1 -0.4,1.2 -0.9,2.3 -1.3,3.5 0.1,0 0.2,0.1 0.2,0.1 0.7,-1.2 1.4,-2.3 2,-3.5 v 0 c -0.1,0.5 -0.3,1.1 -0.4,1.6 0,0 0.1,0 0.1,0 0.6,-0.9 1.1,-1.7 1.7,-2.6 0,0 0,0 0,0 -0.1,0.4 -0.2,0.7 -0.3,1.1 -0.6,1.4 -1.2,2.7 -1.7,4.1 -0.1,0.3 -0.1,0.6 -0.2,1.1 0.3,-0.1 0.4,-0.2 0.4,-0.2 0.1,-0.3 0.3,-0.5 0.4,-0.8 1,-2.7 2.1,-5.5 3.8,-7.9 0.2,-0.3 0.2,-0.6 0.2,-1 0,0 0,0 0,0 0.4,-0.5 0.8,-0.9 1.3,-1.4 -0.1,0.6 -0.1,1.1 -0.2,1.6 v 0 c -0.4,0.3 -0.9,0.6 -1.2,1.1 -0.3,0.6 -0.5,1.3 -0.7,2 0,1 -0.1,1.7 -0.3,2.5 z m -2.7,4.2 c 0.1,0 0.2,0.1 0.3,0.1 0.6,-1.6 1.3,-3.2 1.9,-4.8 -0.1,0 -0.2,-0.1 -0.3,-0.1 -0.8,1.6 -1.5,3.1 -1.9,4.8 z" />
        <path
           inkscape:connector-curvature="0"
           id="path248"
           d="m 186,78.7 c 0.3,-0.9 0.6,-1.7 0.8,-2.5 0.2,0.4 0.3,0.5 -0.1,2.8 -0.2,1.1 -0.6,2.1 -0.8,3.1 -0.3,1 -0.6,2.1 -0.7,3.1 1.1,-3 2.2,-6.1 2.2,-9.6 0.2,0.3 0.3,0.4 0.3,0.5 -0.3,1.9 -0.5,3.7 -0.8,5.6 -0.1,0.9 -0.5,1.7 -0.7,2.5 -0.1,0.2 0.1,0.5 0.1,0.9 -0.4,0.2 -0.9,0.4 -0.5,1 -1.4,2.5 -1.7,5.5 -3.4,7.8 1.1,-2.7 2.1,-5.5 2.9,-8.3 -0.1,0 -0.3,-0.1 -0.4,-0.1 -0.4,1 -0.8,2 -1.2,3.1 -0.4,1 -0.7,1.9 -1.1,2.9 -0.2,0.4 -0.5,0.7 -0.7,1 -0.1,0 -0.2,-0.1 -0.3,-0.1 0,-0.2 0.1,-0.4 0.1,-0.7 v 0.1 c 0.2,-0.4 0.5,-0.7 0.6,-1.1 0.9,-2.1 1.9,-4.1 2.6,-6.2 0.4,-1.9 0.7,-3.9 1.1,-5.8 -0.1,0 0,0 0,0 z" />
        <path
           inkscape:connector-curvature="0"
           id="path250"
           d="m 200.2,87.7 c -1,1.9 -2,3.7 -3.1,5.6 -0.1,0 -0.2,-0.1 -0.2,-0.1 1.4,-3 3.2,-5.9 4,-9.3 -0.3,-0.1 -0.6,-0.1 -0.7,-0.1 -1.5,3.2 -3,6.3 -4.5,9.5 -0.1,0 -0.2,-0.1 -0.3,-0.1 2.5,-5.4 5.4,-10.7 5.9,-16.7 0.6,0.8 0.4,2.1 -1.1,6.8 0.2,0.1 0.5,0.2 0.8,0.4 0.9,-2.2 1.4,-4.3 1.5,-6.6 0.1,0 0.2,0 0.3,0 0,0.4 0.1,0.7 0.1,1.1 -0.3,2.8 -1,5.6 -2.2,8.2 -0.2,0.3 -0.3,0.8 -0.5,1.3 z" />
        <path
           inkscape:connector-curvature="0"
           id="path252"
           d="m 178.8,79.9 c 0.5,0.1 1,0.1 1.5,0.2 0.2,0.2 0.4,0.5 0.7,0.8 0.2,-1.1 0.3,-2 0.5,-3.2 0.8,0.6 -0.1,1.4 0.2,2 v 0 c -0.4,1.3 -0.7,2.5 -1,3.8 -0.1,0.2 0.1,0.5 0.1,0.8 v 0 c -0.2,0.4 -0.5,0.7 -0.7,1.1 -0.3,0.5 -0.5,1.1 -0.7,1.6 v 0 c 0.2,-0.9 0.3,-1.8 0.5,-2.6 -0.1,-0.1 -0.1,-0.1 -0.2,-0.2 0,0.2 -0.1,0.3 -0.1,0.5 -0.1,-0.2 -0.2,-0.4 -0.3,-0.5 -0.3,0.2 -0.6,0.4 -1,0.6 -0.4,-0.2 -0.8,-0.4 -1.3,-0.6 -0.4,1.2 -0.8,2.4 -1.2,3.7 0.1,0.1 0.1,0.1 0.2,0.2 0.3,-0.4 0.6,-0.8 1,-1.3 0,0.2 0.1,0.5 0.1,0.7 -0.3,0.5 -0.6,1 -1,1.5 0,-0.3 0,-0.5 -0.1,-1.1 -0.5,0.7 -0.8,1.2 -1.1,1.6 v 0 c 0,-0.2 -0.1,-0.3 0,-0.5 0.1,-0.6 0.3,-1.2 0.5,-1.8 0.3,-0.9 0.6,-1.8 1,-2.7 0.6,-1.3 1.2,-2.5 1.8,-3.7 0.4,-0.3 0.6,-0.7 0.6,-0.9 0.1,-0.1 0,0 0,0 z m -0.4,4.6 c 0.7,-1.3 2,-2.1 2,-3.7 -0.7,-0.2 -1.4,0.1 -2,0.9 -0.7,0.9 -0.7,1.9 0,2.8 z" />
        <path
           inkscape:connector-curvature="0"
           id="path254"
           d="m 181.6,91.7 c -0.4,0.5 -0.8,1.1 -1.2,1.6 -0.3,0.4 -0.5,0.8 -0.8,1.2 2.1,-5 4.3,-9.9 5.3,-15.3 -0.1,0 -0.3,0.1 -0.5,0.1 0,-0.1 -0.1,-0.1 -0.1,-0.2 0.3,-0.2 0.5,-0.3 0.9,-0.5 -0.1,-0.1 -0.3,-0.3 -0.2,-0.2 0.2,-0.6 0.4,-1.1 0.5,-1.6 0.1,-0.5 0.1,-1.1 0.2,-1.6 0.1,0 0.2,0 0.4,0 -0.1,1 -0.2,2 -0.3,2.9 0,0.2 0.2,0.4 0.2,0.5 v 0 c -0.2,0.2 -0.4,0.4 -0.5,0.6 -0.7,2.2 -1.4,4.5 -2.1,6.7 -0.6,1.8 -1.3,3.5 -2,5.4 0,0.1 0.1,0.3 0.2,0.4 z" />
        <path
           inkscape:connector-curvature="0"
           id="path256"
           d="m 191.2,95.2 c 1,-2.6 2,-5 3,-7.4 0,-0.1 -0.1,-0.2 -0.1,-0.2 1.3,-1.7 1.7,-3.6 2.3,-5.5 0.6,-2 1,-4 0.9,-6 0.6,0.9 0.5,1.9 0.2,2.8 -0.4,2 -1,3.9 -1.5,5.8 -0.4,1.7 -1.3,3.2 -2,4.8 -0.7,1.7 -1.5,3.3 -2.3,5 -0.1,0.2 -0.3,0.4 -0.5,0.7 z" />
        <path
           inkscape:connector-curvature="0"
           id="path258"
           d="m 196.3,74.9 c 0,3.6 -1.2,6.9 -2.3,10.4 0.1,0.1 0.3,0.2 0.4,0.2 -0.2,0.3 -0.4,0.4 -0.5,0.6 -1.2,2.6 -2.3,5.3 -3.4,7.9 -0.2,0.4 -0.4,0.7 -0.6,1 2.4,-6.5 5.3,-13 6.4,-20.1 z" />
        <path
           inkscape:connector-curvature="0"
           id="path260"
           d="m 200.5,75.4 c -0.6,6.6 -3,12.7 -6.3,18.4 2.9,-5.8 5.1,-11.9 6.3,-18.4 z" />
        <path
           inkscape:connector-curvature="0"
           id="path262"
           d="m 200.2,87.7 c 1.3,0 1.6,-1.1 2.1,-2 0.3,-0.5 0.4,-1.2 0.6,-1.8 0.6,-1.9 1.1,-3.7 1.7,-5.6 -0.2,3.3 -1.4,6.4 -2.5,9 -1.2,2.5 -2.2,4.5 -3.2,6.5 -0.1,0 -0.2,-0.1 -0.3,-0.1 0.6,-1.3 1.1,-2.5 1.7,-3.8 0.2,-0.4 0.4,-0.8 0.5,-1.3 0.2,-0.4 0,-0.8 -0.6,-0.9 z" />
        <path
           inkscape:connector-curvature="0"
           id="path264"
           d="m 207.6,85.8 c 0.1,0.1 0.2,0.3 0.3,0.5 -0.2,0.1 -0.4,0.2 -0.5,0.2 -1.4,2.9 -2.7,5.7 -4.3,8.4 -0.1,0 -0.2,-0.1 -0.2,-0.1 1.2,-2.7 2.6,-5.3 3.7,-8 1.2,-2.7 2.3,-5.4 2.4,-8.4 0.6,2.6 -0.7,4.9 -1.4,7.4 z" />
        <path
           inkscape:connector-curvature="0"
           id="path266"
           d="m 191.5,75.8 c 0,0.6 0.1,1.2 0,1.8 -0.5,2.4 -1,4.7 -1.7,7 -0.7,2.3 -1.7,4.4 -2.6,6.6 -0.4,1 -0.8,2 -1.2,3 -0.1,0.2 -0.2,0.4 -0.5,0.6 2.2,-6.2 5.1,-12.3 6,-19 z" />
        <path
           inkscape:connector-curvature="0"
           id="path268"
           d="m 186.2,87.7 c -0.2,-0.1 -0.3,-0.2 -0.5,-0.3 0.2,0 0.4,-0.1 0.6,-0.1 1.4,-3.8 2.4,-7.7 2.9,-11.6 0.6,2.9 -2.9,14.5 -5,16.8 0.7,-1.5 1.3,-3.1 2,-4.8 z" />
        <path
           inkscape:connector-curvature="0"
           id="path270"
           d="m 193.3,76.2 c 0.1,2.2 0,4.5 -0.8,6.6 -0.7,2 -1.4,4.1 -2.2,6.5 -0.9,1 -1,3 -2.2,4.3 0.6,-1.6 1.3,-3.3 1.9,-4.9 0.9,-2.6 1.9,-5.2 2.7,-7.9 0.4,-1.2 0.3,-2.6 0.4,-3.9 0,-0.2 0,-0.5 0,-0.7 0,0 0.1,0 0.2,0 z" />
        <path
           inkscape:connector-curvature="0"
           id="path272"
           d="m 204.8,93.7 c 0.3,-0.7 0.7,-1.5 1,-2.2 0.4,-0.9 0.9,-1.8 1.4,-2.7 0.8,-1.7 1.6,-3.3 2.1,-5 0.4,-1 0.4,-2.2 0.7,-3.3 0,0.4 0.1,0.9 0.1,1.3 0,1.3 -0.3,2.6 -0.9,3.8 -1.3,2.7 -2.6,5.3 -4,8 0,0.1 -0.2,0.2 -0.2,0.2 0,0 -0.1,-0.1 -0.2,-0.1 z" />
        <path
           inkscape:connector-curvature="0"
           id="path274"
           d="m 202,92.2 c 2.1,-4.6 4,-9.2 4.2,-14.5 1,2 -1.8,11.4 -4.2,14.5 z" />
        <path
           inkscape:connector-curvature="0"
           id="path276"
           d="m 208.1,92.5 c 2,-3.9 4,-7.8 4.1,-12.4 0.8,3.7 -2.1,10.4 -4.1,12.4 z" />
        <path
           inkscape:connector-curvature="0"
           id="path278"
           d="m 217.4,82.1 c 0.3,0.5 0.5,0.9 0.9,1.6 -0.4,1 -1,2.3 -1.5,3.7 -0.2,-0.1 -0.4,-0.2 -0.5,-0.3 -0.2,0.5 -0.5,1 -0.7,1.4 -0.1,-0.1 -0.2,-0.1 -0.4,-0.2 0.5,-1 1,-2 1.3,-3 0.3,-1 0.6,-2.1 0.9,-3.2 z" />
        <path
           inkscape:connector-curvature="0"
           id="path280"
           d="m 210.8,90.3 c 1.5,-2.8 2.7,-5.7 3.1,-8.9 0.9,1.2 -1.5,7.9 -3.1,8.9 z" />
        <path
           inkscape:connector-curvature="0"
           id="path282"
           d="m 172.7,84 c 0,-0.2 -0.1,-0.4 0,-0.5 0.8,-1.5 1.5,-3.1 2.3,-4.6 0,-0.1 0.1,-0.1 0.3,-0.1 0.4,0.2 0.8,0.5 1.3,0.7 v 0 c -0.4,0.5 -0.8,1 -1.1,1.5 -0.5,0.7 -0.9,1.5 -1.4,2.2 0,0 0,0 0,0 0,-0.9 1.1,-1.6 0.6,-2.6 -0.7,1 -1.4,2.2 -2,3.4 z" />
        <path
           inkscape:connector-curvature="0"
           id="path284"
           d="m 215.7,81.1 c 0.6,1.4 -1.4,7.2 -2.8,8 1.3,-2.7 2.4,-5.2 2.8,-8 z" />
        <path
           inkscape:connector-curvature="0"
           id="path286"
           d="m 176.1,89.4 c 0,0.3 0,0.6 0.1,0.8 0.1,0 0.1,0 0.2,0 0.3,-0.7 0.6,-1.4 0.9,-2.1 0.1,0 0.1,0.1 0.2,0.1 -0.5,0.9 -0.1,2.3 -1.7,2.5 0.1,1 -0.2,1.5 -1.1,1.7 -0.2,0.5 -0.4,1 -0.5,1.4 -0.1,0 -0.2,-0.1 -0.3,-0.1 0.2,-1.5 0.7,-2.9 1.4,-4.3 v 0 c -0.1,0.8 -0.3,1.6 -0.4,2.4 0.1,0 0.1,0 0.2,0.1 0.2,-0.9 0.6,-1.7 1,-2.5 z" />
        <path
           inkscape:connector-curvature="0"
           id="path288"
           d="m 175.4,84.9 c 0.5,-0.9 1.1,-1.9 1.6,-2.8 -0.4,1.1 -0.9,2.3 -1.3,3.4 -0.5,1.5 -1,3 -1.6,4.5 -0.1,0.3 -0.3,0.5 -0.4,0.8 -0.1,0 -0.2,-0.1 -0.3,-0.1 0.5,-1.4 1,-2.9 1.5,-4.3 0.2,-0.5 0.4,-1 0.5,-1.5 z" />
        <path
           inkscape:connector-curvature="0"
           id="path290"
           d="m 177.7,80.9 c 0,-0.4 0,-0.8 0,-1.3 v 0 c 0.2,-0.4 0.5,-0.8 0.6,-1.2 0.3,-0.6 0.5,-1.3 0.7,-2 0.5,0.3 0.8,0.5 1.1,0.6 -0.5,0.9 -1.4,1.5 -1.2,2.7 v 0 c -0.8,0.1 -0.7,0.9 -1.2,1.2 z" />
        <path
           inkscape:connector-curvature="0"
           id="path292"
           d="m 177.3,87.4 c 0,-0.2 -0.1,-0.5 -0.1,-0.7 0,-0.4 0.1,-0.7 0.1,-1.1 0.3,-0.1 0.7,-0.2 1.2,-0.4 -0.3,0.9 -0.6,1.8 -0.9,2.9 -0.2,-0.4 -0.3,-0.6 -0.3,-0.7 z" />
      </g>
    </g>
  </g>
</svg>
