<svg xmlns:osb="http://www.openswatchbook.org/uri/2009/osb" xmlns="http://www.w3.org/2000/svg" xmlns:xlink="http://www.w3.org/1999/xlink" width="1920" height="1080" viewBox="0 0 507.99999 285.75001"><defs><linearGradient href="#a" id="d" gradientUnits="userSpaceOnUse" gradientTransform="translate(.49901694 .155946) scale(.26406)" x1="1478.2" y1="1348.5" x2="743.20001" y2="75.400002"/><linearGradient id="a" x1="1478.2" x2="743.20001" y1="1348.5" y2="75.400002" gradientUnits="userSpaceOnUse" osb:paint="gradient"><stop offset="0" stop-color="#009ee2"/><stop offset="1" stop-color="#e5332a"/></linearGradient><linearGradient id="b" x1="1439.6" x2="480.39999" y1="-290.79999" y2="1370.8" gradientTransform="translate(.49901694 .155946) scale(.26406)" gradientUnits="userSpaceOnUse" href="#a"><stop offset="0" stop-color="#56b585"/><stop offset="1" stop-color="#009ee2"/></linearGradient><filter id="c" x="-.03219341" width="1.0643868" y="-.05495082" height="1.1099016" color-interpolation-filters="sRGB"><feGaussianBlur stdDeviation="6.6268455"/></filter></defs><path d="M-1.4970531-1.840124H509.49706V287.59013H-1.4970531z" fill="url(#b)"/><path d="M17.860673 181.59045L142.61509 236.4824 4.8862133 248.45883l74.8526497 17.96462H498.91372V-23.006791L472.96481 111.72798l-24.95089-67.866402-4.99018 79.842822L377.15342.94605859 401.10626 189.57474 319.26735-8.0362613 331.24379 111.72798l-83.83498-74.852652 60.88016 166.671902L146.60724 21.904798 227.4481 196.56098 76.744763 133.68476l59.882117 62.87622z" transform="matrix(1.02127 0 0 1.04138 -5.1291189 30.376457)" opacity=".36199999" filter="url(#c)"/><path d="M28.444007 202.75713l124.754423 54.89195-137.728883 11.97643 74.85265 17.96462H509.49706V-1.840124L483.54815 132.89466l-24.95089-67.866414-4.99018 79.842834-65.87032-122.758354L411.6896 210.74142 329.85069 13.130406l11.97644 119.764254-83.83498-74.852664 60.88016 166.671914L157.19058 43.071466l80.84086 174.656194-150.703343-62.87622 59.882123 62.87622z" fill="url(#d)"/></svg>
