<?xml version="1.0" encoding="UTF-8" standalone="no"?>
<svg
   xmlns:dc="http://purl.org/dc/elements/1.1/"
   xmlns:cc="http://creativecommons.org/ns#"
   xmlns:rdf="http://www.w3.org/1999/02/22-rdf-syntax-ns#"
   xmlns:svg="http://www.w3.org/2000/svg"
   xmlns="http://www.w3.org/2000/svg"
   xmlns:sodipodi="http://sodipodi.sourceforge.net/DTD/sodipodi-0.dtd"
   xmlns:inkscape="http://www.inkscape.org/namespaces/inkscape"
   width="42.333336mm"
   height="42.333328mm"
   viewBox="0 0 42.333336 42.333328"
   version="1.1"
   id="svg8"
   inkscape:version="1.0.2 (e86c870879, 2021-01-15)"
   sodipodi:docname="rs_zelen.svg">
  <defs
     id="defs2">
    <clipPath
       clipPathUnits="userSpaceOnUse"
       id="clipPath46">
      <path
         d="M 0,0 H 1920 V 1080 H 0 Z"
         id="path44" />
    </clipPath>
    <clipPath
       clipPathUnits="userSpaceOnUse"
       id="clipPath72">
      <path
         d="M 0,0 H 1920 V 1080 H 0 Z"
         id="path70" />
    </clipPath>
    <clipPath
       clipPathUnits="userSpaceOnUse"
       id="clipPath90">
      <path
         d="M 0,0 H 1920 V 1080 H 0 Z"
         id="path88" />
    </clipPath>
  </defs>
  <sodipodi:namedview
     id="base"
     pagecolor="#ffffff"
     bordercolor="#666666"
     borderopacity="1.0"
     inkscape:pageopacity="0.0"
     inkscape:pageshadow="2"
     inkscape:zoom="1.2647041"
     inkscape:cx="85.250424"
     inkscape:cy="258.5134"
     inkscape:document-units="mm"
     inkscape:current-layer="layer1"
     inkscape:document-rotation="0"
     showgrid="false"
     inkscape:window-width="909"
     inkscape:window-height="820"
     inkscape:window-x="0"
     inkscape:window-y="0"
     inkscape:window-maximized="1"
     fit-margin-top="0"
     fit-margin-left="0"
     fit-margin-right="0"
     fit-margin-bottom="0" />
  <metadata
     id="metadata5">
    <rdf:RDF>
      <cc:Work
         rdf:about="">
        <dc:format>image/svg+xml</dc:format>
        <dc:type
           rdf:resource="http://purl.org/dc/dcmitype/StillImage" />
        <dc:title></dc:title>
      </cc:Work>
    </rdf:RDF>
  </metadata>
  <g
     inkscape:label="Plast 1"
     inkscape:groupmode="layer"
     id="layer1"
     transform="translate(-97.517853,-123.22024)">
    <g
       id="g38"
       transform="matrix(0.35277777,0,0,0.35277777,-512.80427,-205.78772)">
      <g
         id="g40">
        <g
           id="g42"
           clip-path="url(#clipPath46)">
          <g
             id="g48">
            <path
               d="m 1750.047,1003.047 c -3.672,0 -6.195,-2.692 -6.195,-6.324 h 2.933 c 0,1.949 1.137,3.632 3.262,3.632 2.004,0 3.226,-1.437 3.226,-3.386 0,-2.149 -1.546,-2.641 -3.226,-3.293 -3.125,-1.196 -5.625,-2.117 -5.625,-6.028 0,-3.121 2.555,-5.457 5.625,-5.457 3.34,0 5.754,2.2 5.754,5.598 h -2.938 c 0,-1.742 -1.082,-2.91 -2.816,-2.91 -1.473,0 -2.692,1.277 -2.692,2.742 0,4.266 8.852,1.711 8.852,9.348 0,3.609 -2.582,6.078 -6.16,6.078"
               style="fill:#b4d9b9;fill-opacity:1;fill-rule:nonzero;stroke:none"
               id="path50" />
            <path
               d="m 1760.32,1002.664 v -17.402 h -4.152 v -2.692 h 7.086 v 20.094 z m 6.844,-1.328 c -1.336,-1.172 -2.039,-2.883 -2.039,-5.164 V 982.57 h 7.168 v 2.692 h -4.238 v 10.832 c 0,3.718 2.718,4.261 3.8,4.261 1.09,0 3.805,-0.543 3.805,-4.261 V 982.57 h 2.934 v 13.602 c 0,2.281 -0.703,3.992 -2.039,5.164 -1.223,1.086 -2.852,1.711 -4.7,1.711 -1.839,0 -3.472,-0.625 -4.691,-1.711"
               style="fill:#b4d9b9;fill-opacity:1;fill-rule:nonzero;stroke:none"
               id="path52" />
            <path
               d="m 1794.965,999.758 c -2.199,2.176 -4.832,2.906 -7.852,2.906 h -6.406 V 982.57 h 6.52 c 3.234,0 6.269,0.981 8.199,3.696 1.301,1.82 2.062,4.152 2.062,6.41 0,2.336 -0.84,5.402 -2.523,7.082 m -1.004,-10.153 c -1.195,-2.906 -3.668,-4.343 -6.762,-4.343 h -3.558 v 14.715 h 3.507 c 4.559,0 7.407,-2.665 7.407,-7.301 0,-1.035 -0.219,-2.094 -0.594,-3.071"
               style="fill:#b4d9b9;fill-opacity:1;fill-rule:nonzero;stroke:none"
               id="path54" />
          </g>
        </g>
      </g>
    </g>
    <path
       d="m 121.63057,147.92985 v -7.08872 h 3.8227 v 0.94968 h -2.78765 v 2.08774 h 2.78765 v 0.94791 h -2.78765 v 2.15548 h 2.78765 v 0.94791 z"
       style="fill:#b4d9b9;fill-opacity:1;fill-rule:nonzero;stroke:none;stroke-width:0.352778"
       id="path56" />
    <path
       d="m 130.75622,147.92985 -3.50449,-5.47899 h -0.0208 v 5.47899 h -1.03328 v -7.08872 h 1.12994 l 3.44911,5.39362 h 0.018 v -4.44394 h -1.50495 v -0.94968 h 2.54106 v 7.08872 z m 2.75872,-6.13904 v 6.13904 h -1.03364 v -7.08872 h 2.49979 v 0.94968 z"
       style="fill:#b4d9b9;fill-opacity:1;fill-rule:nonzero;stroke:none;stroke-width:0.352778"
       id="path58" />
    <path
       d="m 107.05661,153.07123 v 3.06494 h -1.03364 v -7.08731 h 3.58175 v 0.94791 h -2.54811 v 2.12514 h 1.85208 v 0.94932 z"
       style="fill:#b4d9b9;fill-opacity:1;fill-rule:nonzero;stroke:none;stroke-width:0.352778"
       id="path60" />
    <path
       d="m 116.0909,156.13617 v -5.9877 h -0.0303 l -2.38372,5.9877 h -0.62301 l -2.39501,-5.9877 h -0.0194 v 5.9877 h -1.0347 v -7.08731 h 1.62878 l 2.1276,5.43207 2.13466,-5.43207 h 1.63019 v 7.08731 z"
       style="fill:#b4d9b9;fill-opacity:1;fill-rule:nonzero;stroke:none;stroke-width:0.352778"
       id="path62" />
    <g
       id="g64"
       transform="matrix(0.35277777,0,0,0.35277777,-512.80427,-205.78772)">
      <g
         id="g66">
        <g
           id="g68"
           clip-path="url(#clipPath72)">
          <g
             id="g74">
            <path
               d="m 1793.098,1026.309 c -3.5,0 -6.356,-2.77 -6.356,-6.297 0,-2.231 0.875,-3.86 2.637,-5.16 -1.168,-1.141 -1.711,-2.176 -1.711,-3.86 0,-3.039 2.445,-5.539 5.484,-5.539 3.016,0 5.407,2.555 5.407,5.516 0,1.738 -0.516,2.769 -1.793,3.883 1.738,1.164 2.687,2.988 2.687,5.078 0,3.5 -2.848,6.379 -6.355,6.379 m 0,-9.887 c -2.008,0 -3.528,1.766 -3.528,3.726 0,1.926 1.547,3.582 3.5,3.582 1.93,0 3.559,-1.628 3.559,-3.558 0,-1.984 -1.496,-3.75 -3.531,-3.75 m 0.031,-8.387 c -1.524,0 -2.637,1.301 -2.637,2.77 0,1.465 1.113,2.742 2.606,2.742 1.656,0 2.636,-1.277 2.636,-2.852 0,-1.437 -1.14,-2.66 -2.605,-2.66"
               style="fill:#b4d9b9;fill-opacity:1;fill-rule:nonzero;stroke:none"
               id="path76" />
            <path
               d="m 1811.781,1017.102 -5.597,8.824 h -3.336 l 4.261,-6.598 c -0.382,0.055 -0.789,0.113 -1.168,0.113 -3.773,0 -6.488,-3.097 -6.488,-6.789 0,-3.882 2.906,-7.199 6.895,-7.199 2.855,0 5.136,1.496 6.328,4.074 0.379,0.844 0.656,1.821 0.656,2.743 0,1.738 -0.629,3.394 -1.551,4.832 m -5.406,-9.067 c -2.359,0 -4.098,2.063 -4.098,4.344 0,2.281 1.684,4.48 4.071,4.48 2.308,0 4.156,-2.039 4.156,-4.289 0,-2.363 -1.629,-4.535 -4.129,-4.535"
               style="fill:#b4d9b9;fill-opacity:1;fill-rule:nonzero;stroke:none"
               id="path78" />
          </g>
        </g>
      </g>
    </g>
    <path
       d="m 125.42434,154.96882 h 0.99765 v 1.16735 h -0.99765 z"
       style="fill:#b4d9b9;fill-opacity:1;fill-rule:nonzero;stroke:none;stroke-width:0.352778"
       id="path80" />
    <g
       id="g82"
       transform="matrix(0.35277777,0,0,0.35277777,-512.80427,-205.78772)">
      <g
         id="g84">
        <g
           id="g86"
           clip-path="url(#clipPath90)">
          <g
             id="g92">
            <path
               d="m 1819.418,1026.309 c -3.531,0 -6.461,-2.743 -6.488,-6.297 h 2.824 c 0.109,2.195 1.547,3.718 3.746,3.718 2.012,0 3.613,-1.71 3.613,-3.695 0,-2.113 -1.683,-3.613 -3.75,-3.613 h -1.027 v -2.82 h 0.973 c 1.714,0 2.937,-1.09 2.937,-2.797 0,-1.524 -1.141,-2.77 -2.691,-2.77 -1.684,0 -2.524,1.246 -2.688,2.824 h -2.82 c 0.133,-2.363 1.301,-4.183 3.555,-5.023 0.652,-0.219 1.355,-0.383 2.035,-0.383 3.203,0 5.433,2.395 5.433,5.567 0,1.792 -0.57,2.746 -1.851,3.91 1.742,1.117 2.719,2.937 2.719,5 0,3.8 -2.77,6.379 -6.52,6.379"
               style="fill:#b4d9b9;fill-opacity:1;fill-rule:nonzero;stroke:none"
               id="path94" />
          </g>
        </g>
      </g>
    </g>
    <path
       d="m 121.28061,132.63517 h 1.03646 v 7.09013 h -1.03646 z"
       style="fill:#b4d9b9;fill-opacity:1;fill-rule:nonzero;stroke:none;stroke-width:0.352778"
       id="path96" />
    <path
       d="m 126.75854,139.85724 c -2.03129,0 -3.68794,-1.64677 -3.68794,-3.67806 0,-2.04894 1.64818,-3.67771 3.68794,-3.67771 2.07116,0 3.689,1.63689 3.689,3.69711 0,2.02318 -1.66758,3.65866 -3.689,3.65866 m 0,-6.40786 c -1.09996,0 -1.97485,0.59408 -2.40488,1.59844 -0.15134,0.3556 -0.24801,0.74012 -0.24801,1.13136 0,0.39299 0.0967,0.78563 0.24801,1.15076 0.44238,0.99624 1.31339,1.57938 2.40488,1.57938 1.1684,0 2.07116,-0.67133 2.47192,-1.75295 0.11606,-0.29774 0.18203,-0.62301 0.18203,-0.94791 0,-1.50495 -1.11195,-2.75908 -2.65395,-2.75908"
       style="fill:#b4d9b9;fill-opacity:1;fill-rule:nonzero;stroke:none;stroke-width:0.352778"
       id="path98" />
    <path
       d="m 119.70828,133.93868 c -0.68051,-0.95779 -1.75401,-1.30351 -2.89384,-1.30351 h -2.53682 l -4.24991,6.18878 -1.30634,-1.74343 c 0.2286,0 0.4766,-0.0579 0.68897,-0.13511 0.91899,-0.32632 1.34091,-1.08162 1.34091,-2.04082 0,-0.61172 -0.20143,-1.24566 -0.65193,-1.6757 -0.49742,-0.48789 -1.21673,-0.59372 -1.88666,-0.59372 h -2.19498 v 6.14045 h -1.46367 v 0.94932 h 2.49978 v -3.28647 h 0.018 l 2.33856,3.28647 h 1.29258 l -0.0152,-0.0205 1.41394,-2.06869 h 2.41405 v 2.08915 h 2.26025 c 1.06504,0 1.99249,-0.25893 2.76825,-1.02517 0.59549,-0.59408 0.89182,-1.6771 0.89182,-2.50119 0,-0.79516 -0.26741,-1.61925 -0.72778,-2.2599 m -12.65449,2.35515 v -2.71075 h 1.0929 c 0.82268,0 1.56951,0.42157 1.56951,1.32151 0,1.13136 -1.03505,1.38924 -1.95403,1.38924 z m 7.46195,0.39405 h -1.76247 l 1.74484,-2.71074 h 0.0176 z m 2.27119,2.08774 h -1.23755 v -5.19254 h 1.25695 c 1.09114,0 1.96215,0.50871 2.38513,1.53247 0.13229,0.34572 0.20955,0.71931 0.20955,1.08303 0,1.63724 -1.00471,2.57704 -2.61408,2.57704"
       style="fill:#b4d9b9;fill-opacity:1;fill-rule:nonzero;stroke:none;stroke-width:0.352778"
       id="path100" />
    <path
       d="m 97.517853,144.3869 c 0,-11.69141 9.475257,-21.16666 21.166667,-21.16666 11.69,0 21.16667,9.47525 21.16667,21.16666 0,11.69 -9.47667,21.16526 -21.16667,21.16667 -11.69141,0 -21.166667,-9.47667 -21.166667,-21.16667 m 6.928907,-14.23776 c -3.64525,3.6449 -5.89668,8.67587 -5.89668,14.23776 0,5.56049 2.25143,10.59039 5.89668,14.2367 3.6449,3.64349 8.67586,5.89633 14.23776,5.89633 5.56048,0 10.59145,-2.25284 14.23635,-5.89633 3.6449,-3.64631 5.89668,-8.67621 5.89668,-14.2367 0,-5.56189 -2.25178,-10.59286 -5.89668,-14.23776 -3.6449,-3.64348 -8.67587,-5.89668 -14.23635,-5.89668 -5.5619,0 -10.59286,2.2532 -14.23776,5.89668"
       style="fill:#b4d9b9;fill-opacity:1;fill-rule:nonzero;stroke:none;stroke-width:0.352778"
       id="path102" />
  </g>
</svg>
