<?xml version="1.0" encoding="UTF-8" standalone="no"?>
<!-- Created with Inkscape (http://www.inkscape.org/) -->

<svg
   xmlns:dc="http://purl.org/dc/elements/1.1/"
   xmlns:cc="http://creativecommons.org/ns#"
   xmlns:rdf="http://www.w3.org/1999/02/22-rdf-syntax-ns#"
   xmlns:svg="http://www.w3.org/2000/svg"
   xmlns="http://www.w3.org/2000/svg"
   xmlns:sodipodi="http://sodipodi.sourceforge.net/DTD/sodipodi-0.dtd"
   xmlns:inkscape="http://www.inkscape.org/namespaces/inkscape"
   width="21.325417mm"
   height="21.325417mm"
   viewBox="0 0 21.325417 21.325417"
   version="1.1"
   id="svg384"
   inkscape:version="0.92.4 (5da689c313, 2019-01-14)"
   sodipodi:docname="rs.svg">
  <defs
     id="defs378" />
  <sodipodi:namedview
     id="base"
     pagecolor="#ffffff"
     bordercolor="#666666"
     borderopacity="1.0"
     inkscape:pageopacity="0.0"
     inkscape:pageshadow="2"
     inkscape:zoom="0.35"
     inkscape:cx="180.3"
     inkscape:cy="-62.557144"
     inkscape:document-units="mm"
     inkscape:current-layer="layer1"
     showgrid="false"
     fit-margin-top="0"
     fit-margin-left="0"
     fit-margin-right="0"
     fit-margin-bottom="0"
     inkscape:window-width="1246"
     inkscape:window-height="666"
     inkscape:window-x="1288"
     inkscape:window-y="748"
     inkscape:window-maximized="0" />
  <metadata
     id="metadata381">
    <rdf:RDF>
      <cc:Work
         rdf:about="">
        <dc:format>image/svg+xml</dc:format>
        <dc:type
           rdf:resource="http://purl.org/dc/dcmitype/StillImage" />
        <dc:title></dc:title>
      </cc:Work>
    </rdf:RDF>
  </metadata>
  <g
     inkscape:label="Layer 1"
     inkscape:groupmode="layer"
     id="layer1"
     transform="translate(-58.128959,-110.95634)">
    <g
       transform="matrix(0.26458333,0,0,0.26458333,49.503542,98.547381)"
       id="g317">
      <polygon
         class="st4"
         points="61.6,72.5 65,72.5 65,67.4 64.9,67.4 "
         id="polygon299" />
      <path
         inkscape:connector-curvature="0"
         class="st4"
         d="m 71,82.3 h -2.4 v 9.9 H 71 c 3.1,0 5,-1.8 5,-4.9 0,-0.7 -0.1,-1.4 -0.4,-2.1 -0.9,-2 -2.5,-2.9 -4.6,-2.9 z"
         id="path301" />
      <path
         inkscape:connector-curvature="0"
         class="st4"
         d="m 83.9,97.5 c -1.6,0 -2.8,1.4 -2.8,2.9 0,1.5 1.1,3 2.7,3 1.6,0 2.8,-1.4 2.8,-2.9 0,-1.5 -1.1,-3 -2.7,-3 z"
         id="path303" />
      <path
         inkscape:connector-curvature="0"
         class="st4"
         d="m 74.9,103.2 c -1.3,0 -2.4,1.2 -2.4,2.5 0,1.3 1,2.4 2.4,2.4 1.3,0 2.4,-1.1 2.4,-2.4 0,-1.3 -1,-2.5 -2.4,-2.5 z"
         id="path305" />
      <path
         inkscape:connector-curvature="0"
         class="st4"
         d="m 55.8,69.2 c 0,-1.7 -1.4,-2.5 -3,-2.5 h -2.1 v 5.2 H 52 c 1.9,-0.1 3.8,-0.6 3.8,-2.7 z"
         id="path307" />
      <path
         inkscape:connector-curvature="0"
         class="st4"
         d="m 88.3,76.8 c 2.2,0 3.9,-1.3 4.7,-3.3 0.2,-0.6 0.3,-1.2 0.3,-1.8 0,-2.9 -2.1,-5.2 -5,-5.2 -2.1,0 -3.8,1.1 -4.6,3 -0.3,0.7 -0.5,1.4 -0.5,2.2 0,0.7 0.2,1.5 0.5,2.2 0.8,1.8 2.5,2.9 4.6,2.9 z"
         id="path309" />
      <path
         inkscape:connector-curvature="0"
         class="st4"
         d="m 74.9,101.2 c 1.1,0 1.8,-0.9 1.8,-1.9 0,-1 -0.8,-1.8 -1.7,-1.8 -1,0 -1.8,0.9 -1.8,1.9 0,1 0.7,1.8 1.7,1.8 z"
         id="path311" />
      <path
         inkscape:connector-curvature="0"
         class="st4"
         d="m 72.9,46.9 c -22.2,0 -40.3,18 -40.3,40.3 0,22.3 18,40.3 40.3,40.3 22.2,0 40.3,-18 40.3,-40.3 C 113.2,65 95.1,46.9 72.9,46.9 Z m 15.4,17.7 c 3.9,0 7,3.1 7,7 0,3.8 -3.2,7 -7,7 -3.9,0 -7,-3.1 -7,-7 -0.1,-3.9 3.1,-7 7,-7 z M 85.8,86.2 V 88 h -5.3 v 4.1 h 5.3 v 1.8 H 78.5 V 80.4 h 7.3 v 1.8 h -5.3 v 4 z m -8,-21.4 h 2 v 13.5 h -2 z m 0.1,22.4 c 0,1.6 -0.6,3.6 -1.7,4.8 -1.5,1.5 -3.2,2 -5.3,2 H 66.6 V 80.4 H 71 c 2.2,0 4.2,0.7 5.5,2.5 0.9,1.2 1.4,2.8 1.4,4.3 z M 46,76.5 h 2.8 V 64.8 H 53 c 1.3,0 2.6,0.2 3.6,1.1 0.9,0.8 1.2,2 1.2,3.2 0,1.8 -0.8,3.3 -2.6,3.9 -0.4,0.1 -0.9,0.3 -1.3,0.3 l 2.5,3.3 8.1,-11.8 h 0.5 2 2.4 c 2.2,0 4.2,0.7 5.5,2.5 0.9,1.2 1.4,2.8 1.4,4.3 0,1.6 -0.6,3.6 -1.7,4.8 -1.5,1.5 -3.2,1.9 -5.3,1.9 H 67 65 v -4 h -4.6 l -2.7,3.9 v 0 H 57.6 55.2 L 50.8,72 v 0 6.2 0 0 H 46 Z m 14.7,15.9 c 0.7,0 2.6,-0.4 2.6,-2.9 v -9.1 h 2 v 9.1 c 0,1.5 -0.5,2.7 -1.4,3.5 -0.8,0.7 -1.9,1.1 -3.2,1.1 -1.2,0 -2.3,-0.4 -3.2,-1.1 -0.9,-0.8 -1.4,-1.9 -1.4,-3.5 V 80.4 H 61 v 1.8 h -2.8 v 7.3 c -0.1,2.5 1.8,2.9 2.5,2.9 z M 50.2,82.3 V 80.5 H 55 V 94 H 53 V 82.3 Z m -8.3,7.6 h 2 c 0,1.3 0.8,2.4 2.2,2.4 1.3,0 2.2,-1 2.2,-2.3 0,-1.4 -1,-1.8 -2.2,-2.2 -2.1,-0.8 -3.8,-1.4 -3.8,-4 0,-2.1 1.7,-3.7 3.8,-3.7 2.2,0 3.9,1.5 3.9,3.8 h -2 c 0,-1.2 -0.7,-2 -1.9,-2 -1,0 -1.8,0.9 -1.8,1.8 0,2.9 5.9,1.1 5.9,6.3 0,2.4 -1.7,4.1 -4.1,4.1 -2.5,0.1 -4.2,-1.7 -4.2,-4.2 z m 28,19.6 h -2 V 98.2 h -0.1 l -4.5,11.4 H 62.1 L 57.5,98.2 v 0 11.4 h -2 V 97.9 h -4.8 v 4 h 3.5 v 1.8 h -3.5 v 5.8 h -2 V 96.1 h 6.8 3.1 l 4,10.3 4.1,-10.3 h 3.1 v 13.4 z m 5,0.3 c -2.3,0 -4.3,-1.9 -4.3,-4.2 0,-1.5 0.6,-2.6 1.8,-3.5 -0.8,-0.8 -1.1,-1.5 -1.1,-2.6 0,-2 1.6,-3.7 3.7,-3.7 2,0 3.6,1.7 3.6,3.7 0,1.2 -0.3,1.9 -1.2,2.6 1.2,0.8 1.8,2 1.8,3.4 0,2.4 -1.9,4.3 -4.3,4.3 z m 6.6,-0.3 2.9,-4.4 c -0.3,0 -0.5,0.1 -0.8,0.1 -2.5,0 -4.4,-2.1 -4.4,-4.6 0,-2.6 2,-4.8 4.6,-4.8 1.9,0 3.4,1 4.2,2.7 0.3,0.6 0.4,1.2 0.4,1.8 0,1.2 -0.4,2.3 -1,3.2 l -3.8,5.9 h -2.1 z m 6.1,0 h -1.9 v -2.2 h 1.9 z m 5,0.3 c -2.4,0 -4.3,-1.8 -4.4,-4.2 h 1.9 c 0.1,1.5 1,2.5 2.5,2.5 1.4,0 2.4,-1.1 2.4,-2.5 0,-1.4 -1.1,-2.4 -2.5,-2.4 h -0.7 v -1.9 h 0.7 c 1.2,0 2,-0.7 2,-1.9 0,-1 -0.8,-1.9 -1.8,-1.9 -1.1,0 -1.7,0.8 -1.8,1.9 H 89 c 0.1,-1.6 0.9,-2.8 2.4,-3.4 0.4,-0.1 0.9,-0.3 1.4,-0.3 2.1,0 3.6,1.6 3.6,3.7 0,1.2 -0.4,1.8 -1.2,2.6 1.2,0.7 1.8,2 1.8,3.4 0,2.7 -1.9,4.4 -4.4,4.4 z m 5.3,-15.9 h -2 L 89.2,83.5 v 0 10.4 h -2 V 80.4 h 2.1 l 6.6,10.3 v 0 -8.5 H 93 v -1.8 h 4.8 v 13.5 z m 3.2,-11.6 V 94 h -2 V 80.4 h 4.8 v 1.8 h -2.8 z"
         id="path313" />
      <path
         inkscape:connector-curvature="0"
         class="st4"
         d="m 74.3,71.6 c 0,-0.7 -0.1,-1.4 -0.4,-2.1 -0.8,-1.9 -2.5,-2.9 -4.5,-2.9 H 67 v 9.9 h 2.4 c 2.9,0 4.9,-1.8 4.9,-4.9 z"
         id="path315" />
    </g>
  </g>
</svg>
