<?xml version="1.0" encoding="UTF-8" standalone="no"?>
<!-- Created with Inkscape (http://www.inkscape.org/) -->

<svg
   xmlns:dc="http://purl.org/dc/elements/1.1/"
   xmlns:cc="http://creativecommons.org/ns#"
   xmlns:rdf="http://www.w3.org/1999/02/22-rdf-syntax-ns#"
   xmlns:svg="http://www.w3.org/2000/svg"
   xmlns="http://www.w3.org/2000/svg"
   xmlns:sodipodi="http://sodipodi.sourceforge.net/DTD/sodipodi-0.dtd"
   xmlns:inkscape="http://www.inkscape.org/namespaces/inkscape"
   width="66.092918mm"
   height="18.626667mm"
   viewBox="0 0 66.092918 18.626667"
   version="1.1"
   id="svg761"
   inkscape:version="0.92.4 (5da689c313, 2019-01-14)"
   sodipodi:docname="tamta.svg">
  <defs
     id="defs755" />
  <sodipodi:namedview
     id="base"
     pagecolor="#ffffff"
     bordercolor="#666666"
     borderopacity="1.0"
     inkscape:pageopacity="0.0"
     inkscape:pageshadow="2"
     inkscape:zoom="0.35"
     inkscape:cx="124.9"
     inkscape:cy="35.200005"
     inkscape:document-units="mm"
     inkscape:current-layer="layer1"
     showgrid="false"
     fit-margin-top="0"
     fit-margin-left="0"
     fit-margin-right="0"
     fit-margin-bottom="0"
     inkscape:window-width="1246"
     inkscape:window-height="666"
     inkscape:window-x="1288"
     inkscape:window-y="748"
     inkscape:window-maximized="0" />
  <metadata
     id="metadata758">
    <rdf:RDF>
      <cc:Work
         rdf:about="">
        <dc:format>image/svg+xml</dc:format>
        <dc:type
           rdf:resource="http://purl.org/dc/dcmitype/StillImage" />
        <dc:title></dc:title>
      </cc:Work>
    </rdf:RDF>
  </metadata>
  <g
     inkscape:label="Layer 1"
     inkscape:groupmode="layer"
     id="layer1"
     transform="translate(-72.786875,-139.52)">
    <g
       transform="matrix(0.26458333,0,0,0.26458333,3.1750013,125.41771)"
       id="g97">
      <g
         id="g95">
        <path
           inkscape:connector-curvature="0"
           id="path83"
           d="m 504.2,95.5 c -2.5,-8.6 -4.9,-17.1 -7.3,-25.5 -0.1,0 -0.2,0 -0.3,0 -2.1,6.6 -4.1,13.2 -6.2,19.9 -5.3,-4.5 -10.4,-8.9 -15.5,-13.3 -0.1,0 -0.2,0.1 -0.3,0.1 2.4,8.4 4.8,16.7 7.2,25.3 -2.9,0.8 -5.7,1.6 -8.6,2.4 -3.8,-13.3 -7.6,-26.4 -11.4,-39.7 3.1,-0.9 6.2,-1.8 9.4,-2.7 5,4.5 10.1,9.1 15.3,13.8 1.9,-6.7 3.8,-13.2 5.6,-19.8 3.1,-0.9 6.2,-1.8 9.4,-2.7 3.8,13.3 7.6,26.4 11.4,39.7 -2.9,0.8 -5.8,1.6 -8.7,2.5 z" />
        <path
           inkscape:connector-curvature="0"
           id="path85"
           d="m 377,69.9 c -2,6.5 -4.1,13 -6.2,19.7 -5.3,-4.5 -10.4,-8.9 -15.6,-13.3 -0.1,0.1 -0.3,0.2 -0.4,0.3 2.4,8.4 4.8,16.7 7.2,25.3 -2.8,0.8 -5.4,1.6 -8.2,2.4 C 350,91 346.3,78 342.5,64.8 c 3.1,-0.9 6,-1.7 9.1,-2.7 5,4.5 10,9 15.1,13.6 0.1,0 0.3,0 0.4,0 1.9,-6.5 3.7,-13 5.6,-19.6 3,-0.9 6,-1.7 9.2,-2.7 2.8,9.6 5.5,19 8.2,28.6 -2.9,0.8 -5.6,1.6 -8.4,2.4 -1.5,-5 -2.8,-9.8 -4.2,-14.6 -0.1,0.1 -0.3,0.1 -0.5,0.1 z" />
        <path
           inkscape:connector-curvature="0"
           id="path87"
           d="m 457.9,108.8 c -2.1,-2.7 -4.1,-5.2 -6.2,-7.9 -5.5,1.6 -11.1,3.2 -16.8,4.8 -0.4,3.3 -0.7,6.6 -1.1,9.9 -2.9,0.8 -5.8,1.7 -8.9,2.6 1.9,-15.1 3.7,-30 5.5,-44.9 2.7,-0.8 5.4,-1.5 8.1,-2.3 9.5,11.7 18.9,23.3 28.4,35.2 -3,0.8 -6,1.7 -9,2.6 z M 437.7,83 c -0.1,0.1 -0.2,0.1 -0.3,0.2 -0.5,4.6 -1,9.2 -1.5,14 3.6,-1 6.9,-2 10.5,-3 -3,-3.9 -5.9,-7.6 -8.7,-11.2 z" />
        <path
           inkscape:connector-curvature="0"
           id="path89"
           d="m 347.2,106.1 c -3.1,0.9 -5.8,1.7 -8.7,2.5 -2.1,-2.6 -4.1,-5.1 -6.3,-7.8 -5.6,1.6 -11.1,3.2 -16.9,4.8 -0.4,3.2 -0.7,6.4 -1.2,9.9 -2.7,0.8 -5.4,1.6 -8.6,2.5 1.9,-15.1 3.7,-29.8 5.5,-44.6 2.7,-0.8 5.2,-1.5 7.8,-2.2 9.6,11.6 18.9,23.1 28.4,34.9 z m -31,-9.2 c 0.1,0.1 0.2,0.2 0.3,0.3 3.4,-1 6.8,-2 10.6,-3 -3.2,-3.9 -5.8,-7.8 -9,-11.3 -0.2,0.1 -0.3,0.1 -0.5,0.2 -0.4,4.6 -0.9,9.2 -1.4,13.8 z" />
        <path
           inkscape:connector-curvature="0"
           id="path91"
           d="m 382.4,87.4 c 11,-3.2 21.9,-6.3 32.9,-9.4 0.8,2.7 1.5,5.3 2.3,8 -4.1,1.2 -8,2.4 -12.1,3.6 3,10.5 6,21 9.1,31.6 -2.9,0.8 -5.7,1.7 -8.7,2.5 -3,-10.5 -6,-21 -9.1,-31.6 -4,1.1 -8,2.3 -12.1,3.4 -0.7,-2.8 -1.5,-5.4 -2.3,-8.1 z" />
        <path
           inkscape:connector-curvature="0"
           id="path93"
           d="m 286.5,123.4 c -3,-10.6 -6,-20.9 -9.1,-31.6 -4,1.1 -8,2.3 -12.1,3.4 -0.7,-2.6 -1.5,-5.1 -2.2,-7.8 10.9,-3.1 21.6,-6.2 32.6,-9.3 0.7,2.6 1.5,5 2.2,7.7 -4.1,1.2 -8,2.4 -12,3.6 3,10.6 6,21 9,31.6 -1.5,0.5 -2.8,0.9 -4.2,1.3 -1.3,0.4 -2.6,0.7 -4.2,1.1 z" />
      </g>
    </g>
  </g>
</svg>
