<svg xmlns="http://www.w3.org/2000/svg" version="1.1" id="Layer_1" x="0" y="0" xml:space="preserve" width="126" height="126"><style type="text/css" id="style2">.st1{fill:#fff}</style><path id="polygon4" transform="translate(-6 -2.7000015)" fill="#323230" d="M129.7 79.5l-13.6 2.4 9.6 10-13.9-.4 7.3 11.7-13.4-3.2 4.7 13-12.5-6 1.9 13.6-10.9-8.4-1 13.8-9-10.6-3.8 13.3-6.6-12.2-6.5 12.2-3.9-13.3-8.9 10.6-1-13.8-10.9 8.4 1.8-13.6-12.4 6 4.7-13-13.5 3.2 7.3-11.7-13.8.4 9.6-10-13.6-2.4 11.4-7.8L6 66.5l12.8-5.2-11.4-7.8L21 51l-9.6-9.9 13.8.4-7.3-11.8L31.4 33l-4.7-13 12.4 6-1.8-13.7 10.9 8.5 1-13.8 8.9 10.6L62 4.3l6.5 12.2 6.6-12.2 3.8 13.3 9-10.6 1 13.8 10.9-8.5L97.9 26l12.5-6-4.7 13 13.4-3.3-7.3 11.8 13.9-.4-9.6 9.9 13.6 2.5-11.4 7.8 12.8 5.2-12.8 5.2z"/><g id="g32" transform="translate(-6 -2.7000015)"><path class="st1" d="M42.5 60.1c-1.3-1.3-1.9-3-1.6-5.1l4.4.5c-.2 1.4.6 2.8 3 3 2 .2 3.1-.7 3.3-2.1.2-1.5-.7-2.6-3-2.8l-1.8-.2.4-3.9 1.7.2c1.8.2 2.8-.4 3-1.9.1-1.1-.8-2.1-2.4-2.3-1.8-.2-2.9.7-3 2.4l-4.5-.5c.2-2 1-3.5 2.5-4.6 1.5-1 3.3-1.5 5.5-1.2 2 .2 3.6.9 4.9 2.1 1.2 1.1 1.8 2.5 1.6 4.1-.2 2.2-1.5 3.5-3.2 4v.1c1.8.8 3.1 2.7 2.9 4.9-.2 1.8-1 3.3-2.4 4.4-1.4 1.1-3.3 1.5-5.8 1.2-2.4-.3-4.2-1-5.5-2.3z" id="path10" fill="#fff"/><path class="st1" d="M57 60.7c.2-1.6 1.2-2.5 2.9-2.3 1.6.2 2.5 1.3 2.3 2.8-.2 1.6-1.2 2.5-2.9 2.3-1.6-.1-2.4-1.1-2.3-2.8z" id="path12" fill="#fff"/><path class="st1" d="M63.4 57.2l.4-4 8.8.9-.4 4z" id="path14" fill="#fff"/><path class="st1" d="M63.8 57.3l.4-4 8.8.9-.4 4z" id="path16" fill="#fff"/><path class="st1" d="M77.8 63.7c-1.3-1.4-1.8-2.9-1.6-4.6l4.5.5c.1 1.3.9 2.4 2.7 2.6 2 .2 3.2-1.2 3.4-2.9.2-1.6-.7-3.1-2.8-3.3-1.2-.1-2.2.2-3 1.1l-4.3-.5 2-11.6 12.4 1.3-.4 3.9-8.7-.8-.7 3.8h.1c1-.6 2.2-.8 3.8-.7 2 .2 3.6 1 4.7 2.4 1.2 1.4 1.6 3 1.4 4.9-.2 2.1-1.1 3.7-2.6 4.9-1.5 1.2-3.4 1.6-5.7 1.4-2.2-.2-3.9-1-5.2-2.4z" id="path18" fill="#fff"/><path class="st1" d="M91.4 64.4c.2-1.6 1.2-2.5 2.9-2.3 1.6.2 2.5 1.3 2.3 2.8-.2 1.6-1.2 2.5-2.9 2.3-1.7-.1-2.5-1.2-2.3-2.8z" id="path20" fill="#fff"/><path class="st1" d="M37.7 82.7c.3-2.9 2.5-4.4 6.5-4 1.3.1 2.3.4 3.2.8l.1-1.2c.1-1.1-.5-1.9-2.1-2.1-1.4-.1-2.3.5-2.4 1.4l-4.1-.4c.3-3 2.8-5 7-4.5 2 .2 3.6.9 4.6 2 1.1 1.1 1.5 2.5 1.4 4.1l-1.1 9.9-4-.4-.2-1.4h-.1c-1.1 1-2.4 1.4-4.2 1.2-3.2-.5-4.9-2.7-4.6-5.4zm9.3-.1v-.1c-.8-.4-1.6-.7-2.6-.8-1.4-.1-2.2.4-2.3 1.2-.1.9.6 1.6 1.9 1.7 1.7.2 2.9-.7 3-2z" id="path22" fill="#fff"/><path class="st1" d="M52.8 95.4l2.3-21.6 4 .4.3 1.5h.1c1.1-1 2.5-1.5 4.2-1.3 1.8.2 3.2 1.1 4.2 2.7s1.3 3.5 1.1 5.8c-.2 2.3-1 4.1-2.3 5.4-1.2 1.3-2.8 1.9-4.7 1.7-1.7-.2-3-.9-3.8-2.1h-.1l-.9 8zm9.1-17.2c-2-.2-3.1 1.3-3.4 3.6-.3 2.6.6 4 2.5 4.2 2 .2 3.1-1 3.4-3.6.3-2.3-.5-4-2.5-4.2z" id="path24" fill="#fff"/><path class="st1" d="M70.2 90.6l1.6-15 3.7.4.1 2.2h.1c1-1.6 2.4-2.2 4.1-2l1 .1-.4 4.1-1.4-.2c-2.1-.2-3.6 1.1-3.9 3.5l-.8 7.4z" id="path26" fill="#fff"/><path class="st1" d="M81.4 91.8l1.6-15 4.4.5-1.6 15zM83 72.6c.2-1.6 1.2-2.5 2.9-2.3 1.7.2 2.6 1.2 2.4 2.8-.2 1.6-1.3 2.5-2.9 2.3-1.7-.1-2.5-1.1-2.4-2.8z" id="path28" fill="#fff"/><path class="st1" d="M88.4 92.6l2.3-21.3 4.4.5-2.3 21.3z" id="path30" fill="#fff"/></g></svg>