<svg xmlns="http://www.w3.org/2000/svg" version="1.1" id="Layer_1" x="0" y="0" viewBox="0 0 116.7 112.7" xml:space="preserve"><style type="text/css" id="style2">.st1{fill:#fff}</style><path id="hamstar" fill="red" d="M55.8 8.2l9 17.3L82.5 9.3l-5.3 23.4L111 16.2l-26.6 29 29.3 7.9-29.3 6.5L99.5 83l-21.2-6 7.3 32.7-20.8-30.4-9.1 17-5.3-17-23 26.3 6.3-31.1L7.9 89.8l22.8-30.2L16.2 55l14.5-9.8L3 20.7l34.9 12L25.7 2.9l24.7 22.6z"/><g id="hamburger-group"><path id="ham3" class="st1" fill="#fff" d="M37.9 38.5h41v8.4h-41z"/><path id="ham2" class="st1" fill="#fff" d="M37.9 49.3h41v8.4h-41z"/><path id="ham1" class="st1" fill="#fff" d="M37.9 60h41v8.4h-41z"/></g></svg>