<?xml version="1.0" encoding="UTF-8" standalone="no"?>
<svg
   xmlns:dc="http://purl.org/dc/elements/1.1/"
   xmlns:cc="http://creativecommons.org/ns#"
   xmlns:rdf="http://www.w3.org/1999/02/22-rdf-syntax-ns#"
   xmlns:svg="http://www.w3.org/2000/svg"
   xmlns="http://www.w3.org/2000/svg"
   xmlns:sodipodi="http://sodipodi.sourceforge.net/DTD/sodipodi-0.dtd"
   xmlns:inkscape="http://www.inkscape.org/namespaces/inkscape"
   version="1.1"
   id="Layer_1"
   x="0"
   y="0"
   xml:space="preserve"
   width="100"
   height="100"
   sodipodi:docname="rs_crn.svg"
   inkscape:version="0.92.3 (2405546, 2018-03-11)"><metadata
   id="metadata18"><rdf:RDF><cc:Work
       rdf:about=""><dc:format>image/svg+xml</dc:format><dc:type
         rdf:resource="http://purl.org/dc/dcmitype/StillImage" /><dc:title></dc:title></cc:Work></rdf:RDF></metadata><defs
   id="defs16">
    
    
    
    
    
    
    
    
    
  </defs><sodipodi:namedview
   pagecolor="#ffffff"
   bordercolor="#666666"
   borderopacity="1"
   objecttolerance="10"
   gridtolerance="10"
   guidetolerance="10"
   inkscape:pageopacity="0"
   inkscape:pageshadow="2"
   inkscape:window-width="1920"
   inkscape:window-height="1027"
   id="namedview14"
   showgrid="false"
   inkscape:zoom="2.36"
   inkscape:cx="50"
   inkscape:cy="50"
   inkscape:window-x="-8"
   inkscape:window-y="-8"
   inkscape:window-maximized="1"
   inkscape:current-layer="Layer_1" />
  <style
   type="text/css"
   id="style2">
    .st1{fill:#130f17}
  </style>
  <circle
   style="opacity:1;vector-effect:none;fill:#ffffff;fill-opacity:1;stroke:none;stroke-width:0.78897029;stroke-linecap:butt;stroke-linejoin:miter;stroke-miterlimit:4;stroke-dasharray:none;stroke-dashoffset:0;stroke-opacity:1"
   id="path828"
   cx="50"
   cy="50"
   r="49" /><path
   style="fill:#130f17;stroke-width:1.00805998"
   inkscape:connector-curvature="0"
   class="st1"
   id="polygon6"
   d="m 40.120788,25.403116 -4.133046,6.350778 h 4.133046 z" /><path
   style="fill:#130f17;stroke-width:1.00805998"
   inkscape:connector-curvature="0"
   class="st1"
   d="m 47.580432,43.850614 h -2.923374 v 12.298332 h 2.923374 c 3.830628,0 6.149166,-2.217732 6.149166,-6.04836 0,-0.907254 -0.201612,-1.713702 -0.50403,-2.52015 -1.00806,-2.52015 -3.02418,-3.729822 -5.645136,-3.729822 z"
   id="path8" /><path
   style="fill:#130f17;stroke-width:1.00805998"
   inkscape:connector-curvature="0"
   class="st1"
   d="m 63.608586,62.902948 c -2.01612,0 -3.427404,1.713702 -3.427404,3.629016 0,1.915314 1.411284,3.729822 3.427404,3.729822 1.915314,0 3.427404,-1.713702 3.427404,-3.52821 0,-2.116926 -1.310478,-3.830628 -3.427404,-3.830628 z"
   id="path10" /><path
   style="fill:#130f17;stroke-width:1.00805998"
   inkscape:connector-curvature="0"
   class="st1"
   d="m 52.519926,69.858562 c -1.713702,0 -2.923374,1.51209 -2.923374,3.124986 0,1.612896 1.310478,3.02418 2.923374,3.02418 1.612896,0 2.923374,-1.310478 2.923374,-2.923374 0,-1.713702 -1.209672,-3.225792 -2.923374,-3.225792 z"
   id="path12" /><path
   style="fill:#130f17;stroke-width:1.00805998"
   inkscape:connector-curvature="0"
   class="st1"
   d="m 28.830516,27.620848 c 0,-2.116926 -1.814508,-3.124986 -3.729822,-3.124986 h -2.620956 v 6.350778 h 1.713702 c 2.116926,0 4.637076,-0.604836 4.637076,-3.225792 z"
   id="path14" /><path
   style="fill:#130f17;stroke-width:1.00805998"
   inkscape:connector-curvature="0"
   class="st1"
   d="m 69.05211,37.096612 c 2.721762,0 4.939494,-1.612896 5.846748,-4.133046 0.302418,-0.705642 0.403224,-1.51209 0.403224,-2.217732 0,-3.52821 -2.620956,-6.55239 -6.249972,-6.55239 -2.620956,0 -4.637076,1.411284 -5.645136,3.729822 -0.403224,0.806448 -0.604836,1.713702 -0.604836,2.721762 0,0.907254 0.201612,1.814508 0.604836,2.721762 1.00806,2.318538 3.124986,3.729822 5.645136,3.729822 z"
   id="path16" /><path
   style="fill:#130f17;stroke-width:1.00805998"
   inkscape:connector-curvature="0"
   class="st1"
   d="m 52.519926,67.439218 c 1.411284,0 2.217732,-1.108866 2.217732,-2.419344 0,-1.209672 -0.907254,-2.217732 -2.217732,-2.217732 -1.310478,0 -2.217732,1.108866 -2.217732,2.318538 0.100806,1.310478 1.00806,2.318538 2.217732,2.318538 z"
   id="path18" /><path
   style="fill:#130f17;stroke-width:1.00805998"
   inkscape:connector-curvature="0"
   class="st1"
   d="M 49.999776,4.034583e-6 C 22.378932,4.034583e-6 0,22.378936 0,49.99978 0,77.620624 22.378932,99.999553 49.999776,99.999553 77.62062,99.999553 99.999552,77.620624 99.999552,49.99978 99.999552,22.378936 77.62062,4.034583e-6 49.999776,4.034583e-6 Z M 69.05211,21.874906 c 4.939494,0 8.770122,3.830628 8.770122,8.770122 0,4.737882 -3.931434,8.669316 -8.770122,8.669316 -4.838688,0 -8.669316,-3.931434 -8.669316,-8.669316 0,-4.939494 3.931434,-8.770122 8.669316,-8.770122 z m -3.02418,26.915202 v 2.217732 h -6.55239 v 5.141106 h 6.55239 v 2.217732 H 56.95539 V 41.632882 h 9.07254 v 2.217732 h -6.55239 v 4.939494 z M 56.148942,22.177324 h 2.419344 V 38.91112 h -2.419344 z m 0.100806,27.822456 c 0,1.915314 -0.705642,4.53627 -2.116926,5.947554 -1.814508,1.814508 -4.03224,2.419344 -6.55239,2.419344 H 42.237714 V 41.632882 h 5.443524 c 2.721762,0 5.241912,0.806448 6.854808,3.124986 1.00806,1.411284 1.713702,3.427404 1.713702,5.241912 z M 16.63299,36.693388 h 3.427404 V 22.177324 H 25.2015 c 1.612896,0 3.326598,0.201612 4.435464,1.411284 1.108866,1.00806 1.51209,2.52015 1.51209,3.931434 0,2.217732 -1.00806,4.03224 -3.124986,4.838688 -0.50403,0.201612 -1.108866,0.302418 -1.612896,0.302418 l 3.124986,4.133046 10.0806,-14.61687 h 6.04836 c 2.721762,0 5.241912,0.806448 6.854808,3.124986 1.108866,1.51209 1.713702,3.427404 1.713702,5.342718 0,1.915314 -0.705642,4.53627 -2.116926,5.947554 -1.814508,1.814508 -4.03224,2.419344 -6.55239,2.419344 h -5.342718 v -4.939494 h -5.745942 l -3.427404,4.838688 h -3.124986 l -5.54433,-7.762062 v 7.762062 h -5.947554 v -2.217732 z m 18.245886,19.757976 c 0.907254,0 3.124986,-0.403224 3.124986,-3.52821 V 41.632882 h 2.419344 V 53.02396 c 0,1.915314 -0.604836,3.326598 -1.713702,4.334658 -1.00806,0.907254 -2.419344,1.411284 -3.931434,1.411284 -1.51209,0 -2.923374,-0.50403 -3.931434,-1.411284 -1.108866,-1.00806 -1.713702,-2.419344 -1.713702,-4.334658 V 41.632882 h 5.947554 v 2.217732 h -3.52821 v 9.07254 c 0.100806,3.124986 2.419344,3.52821 3.326598,3.52821 z M 21.774096,43.850614 V 41.632882 H 27.72165 V 58.366678 H 25.302306 V 43.850614 Z m -10.282212,9.57657 h 2.419344 c 0,1.612896 0.907254,3.02418 2.721762,3.02418 1.713702,0 2.721762,-1.209672 2.721762,-2.822568 0,-1.814508 -1.310478,-2.217732 -2.721762,-2.721762 -2.620956,-1.00806 -4.737882,-1.814508 -4.737882,-5.0403 0,-2.620956 2.116926,-4.53627 4.737882,-4.53627 2.822568,0 4.838688,1.814508 4.838688,4.637076 h -2.419344 c 0,-1.411284 -0.907254,-2.419344 -2.318538,-2.419344 -1.209672,0 -2.217732,1.108866 -2.217732,2.318538 0,3.52821 7.358838,1.411284 7.358838,7.762062 0,3.02418 -2.116926,5.0403 -5.141106,5.0403 -3.124986,0 -5.241912,-2.217732 -5.241912,-5.241912 z m 34.77807,24.395052 H 43.85061 v -14.11284 h -0.100806 l -5.645136,14.11284 h -1.51209 l -5.645136,-14.11284 v 14.11284 H 28.528098 V 63.306172 h -6.04836 v 5.0403 h 4.334658 v 2.217732 h -4.334658 v 7.258032 H 20.060394 V 60.987634 h 12.298332 l 5.0403,12.802362 5.0403,-12.802362 h 3.830628 z m 6.249972,0.302418 c -2.923374,0 -5.342718,-2.318538 -5.342718,-5.241912 0,-1.814508 0.705642,-3.225792 2.217732,-4.334658 -1.00806,-0.907254 -1.411284,-1.814508 -1.411284,-3.225792 0,-2.52015 2.01612,-4.637076 4.53627,-4.637076 2.52015,0 4.53627,2.116926 4.53627,4.637076 0,1.411284 -0.403224,2.318538 -1.51209,3.225792 1.411284,1.00806 2.217732,2.52015 2.217732,4.233852 0.100806,2.923374 -2.318538,5.342718 -5.241912,5.342718 z m 8.165286,-0.302418 3.52821,-5.54433 c -0.302418,0 -0.705642,0.100806 -1.00806,0.100806 -3.124986,0 -5.443524,-2.620956 -5.443524,-5.645136 0,-3.225792 2.419344,-6.04836 5.745942,-6.04836 2.419344,0 4.233852,1.209672 5.241912,3.427404 0.302418,0.705642 0.50403,1.51209 0.50403,2.318538 0,1.411284 -0.50403,2.822568 -1.310478,4.03224 l -4.637076,7.358838 z m 7.56045,0 h -2.318538 v -2.721762 h 2.318538 z m 6.249972,0.302418 c -2.923374,0 -5.342718,-2.318538 -5.443524,-5.241912 h 2.318538 c 0.100806,1.814508 1.310478,3.124986 3.124986,3.124986 1.713702,0 3.02418,-1.411284 3.02418,-3.124986 0,-1.713702 -1.411284,-3.02418 -3.124986,-3.02418 h -0.907254 v -2.318538 h 0.806448 c 1.411284,0 2.419344,-0.907254 2.419344,-2.318538 0,-1.310478 -0.907254,-2.318538 -2.217732,-2.318538 -1.411284,0 -2.116926,1.00806 -2.217732,2.318538 h -2.318538 c 0.100806,-2.01612 1.108866,-3.52821 2.923374,-4.233852 0.50403,-0.201612 1.108866,-0.302418 1.713702,-0.302418 2.620956,0 4.53627,2.01612 4.53627,4.637076 0,1.51209 -0.50403,2.318538 -1.51209,3.225792 1.411284,0.907254 2.217732,2.419344 2.217732,4.133046 0.100806,3.225792 -2.217732,5.443524 -5.342718,5.443524 z m 6.55239,-19.757976 h -2.52015 L 70.261782,45.46351 V 58.366678 H 67.842438 V 41.632882 h 2.620956 L 78.62868,54.334438 V 43.850614 h -3.52821 v -2.217732 h 6.04836 v 16.733796 z m 4.03224,-14.516064 V 58.366678 H 82.66092 V 41.632882 h 5.947554 v 2.217732 z"
   id="path20" /><path
   style="fill:#130f17;stroke-width:1.00805998"
   inkscape:connector-curvature="0"
   class="st1"
   d="m 51.713478,30.645028 c 0,-0.907254 -0.201612,-1.713702 -0.50403,-2.52015 -1.00806,-2.419344 -3.02418,-3.629016 -5.645136,-3.629016 h -2.923374 v 12.298332 h 2.923374 c 3.729822,-0.100806 6.149166,-2.318538 6.149166,-6.149166 z"
   id="path22" />
</svg>