<?xml version="1.0" encoding="UTF-8" standalone="no"?>
<!-- Generator: Adobe Illustrator 21.0.2, SVG Export Plug-In . SVG Version: 6.00 Build 0)  -->

<svg
   xmlns:dc="http://purl.org/dc/elements/1.1/"
   xmlns:cc="http://creativecommons.org/ns#"
   xmlns:rdf="http://www.w3.org/1999/02/22-rdf-syntax-ns#"
   xmlns:svg="http://www.w3.org/2000/svg"
   xmlns="http://www.w3.org/2000/svg"
   xmlns:xlink="http://www.w3.org/1999/xlink"
   xmlns:sodipodi="http://sodipodi.sourceforge.net/DTD/sodipodi-0.dtd"
   xmlns:inkscape="http://www.inkscape.org/namespaces/inkscape"
   version="1.1"
   id="svg211"
   x="0px"
   y="0px"
   viewBox="0 0 1080 1920"
   style="enable-background:new 0 0 1080 1920;"
   xml:space="preserve"
   sodipodi:docname="signs.svg"
   inkscape:version="0.92.3 (2405546, 2018-03-11)"><metadata
   id="metadata276"><rdf:RDF><cc:Work
       rdf:about=""><dc:format>image/svg+xml</dc:format><dc:type
         rdf:resource="http://purl.org/dc/dcmitype/StillImage" /><dc:title></dc:title></cc:Work></rdf:RDF></metadata><defs
   id="defs274" /><sodipodi:namedview
   pagecolor="#ffffff"
   bordercolor="#666666"
   borderopacity="1"
   objecttolerance="10"
   gridtolerance="10"
   guidetolerance="10"
   inkscape:pageopacity="0"
   inkscape:pageshadow="2"
   inkscape:window-width="1920"
   inkscape:window-height="1027"
   id="namedview272"
   showgrid="false"
   inkscape:zoom="0.34766083"
   inkscape:cx="292.47597"
   inkscape:cy="837.05104"
   inkscape:window-x="-8"
   inkscape:window-y="-8"
   inkscape:window-maximized="1"
   inkscape:current-layer="svg211" />
<style
   type="text/css"
   id="style2">
	.st0{fill:#7F7D7E;}
	.st1{fill:#B5B4B5;}
	.st2{fill:#727272;}
	.st3{fill:#676767;}
	.st4{fill:#717070;}
	.st5{fill:#A29A9B;}
	.st6{fill:#8D898A;}
	.st7{fill:#1C1A1B;}
	.st8{fill:#FFFFFF;}
	.st9{opacity:0.12;fill:#FFFFFF;enable-background:new    ;}
	.st10{fill:#878787;}
	.st11{fill:#232321;}
	.st12{fill:url(#path74_1_);}
	.st13{fill:url(#path91_1_);}
	.st14{fill:url(#path108_1_);}
	.st15{fill:#7F8080;}
	.st16{fill:#6F6F6E;}
	.st17{fill:#E2E2E2;}
	.st18{fill:#E42320;}
	.st19{fill:#1D1D1B;}
	.st20{opacity:0.11;fill:#FFFFFF;enable-background:new    ;}
	.st21{fill:#838383;}
	.st22{fill:#9E9D9D;}
	.st23{fill:#068347;}
	.st24{fill:#636363;}
	.st25{fill:#E30613;stroke:#FFFFFF;stroke-width:0.75;stroke-miterlimit:10;}
	.st26{fill:#F6E71B;}
	.st27{fill:#FFFF00;}
	.st28{clip-path:url(#SVGID_2_);}
	.st29{clip-path:url(#SVGID_4_);}
	.st30{clip-path:url(#SVGID_6_);}
	.st31{clip-path:url(#SVGID_8_);}
	.st32{fill:#DDD70B;}
</style>
<g
   id="tresk_tabla">
	<path
   id="path4"
   class="st0"
   d="M283.1,383.1L279.8,264l6.5-7.6l4.6,123.5L283.1,383.1z" />
	<path
   id="path6"
   class="st1"
   d="M672,368.8l-381.1,11.1c-0.7,0-1.3-0.6-1.3-1.3l-3.3-122c0-0.7,0.6-1.3,1.3-1.3l381.1-11.1   c0.7,0,1.3,0.6,1.3,1.3l3.3,122C673.3,368.1,672.8,368.7,672,368.8z" />
	<path
   id="path8"
   class="st2"
   d="M284,296.9l-2.6,0.9l-20.9,0.6l-0.1-0.8L284,296.9z M285.5,360.1l-2.6,0.9l-19.8,0.5l0.1-0.9   L285.5,360.1z" />
	<path
   id="path10"
   class="st3"
   d="M285.5,360.1l-2.8,8.6l-0.2-7.7L285.5,360.1z" />
	<path
   id="path12"
   class="st4"
   d="M283.9,296.9l-3,7.5l-0.1-6.6L283.9,296.9z M283.1,383.1L662,372.7l10.2-3.9l-381.4,11.1   L283.1,383.1z" />
	<path
   id="path14"
   class="st5"
   d="M294.3,376.1l-3.1-116l374.4-10.9l3.6,115.5L294.3,376.1z" />
	<path
   id="path16"
   class="st6"
   d="M293.5,261.9l3,111.9L666.8,363l-3-112L293.5,261.9z" />
	<path
   id="path18"
   class="st0"
   d="M293.5,261.9l3.2,2.8L660.9,254l2.9-3L293.5,261.9z" />
	<path
   id="path20"
   class="st4"
   d="M296.7,264.7l-3.2-2.8l3,111.9l3.1-3L296.7,264.7z" />
	<path
   id="path22"
   class="st0"
   d="M299.6,370.8l364.2-10.7l3,2.9l-370.3,10.8L299.6,370.8z" />
	<path
   id="path24"
   class="st1"
   d="M660.9,254l2.9,106.1l3,2.9l-3-112L660.9,254z" />
	<path
   id="path26"
   class="st7"
   d="M296.8,264.7L660.6,254l3.1,106.1l-364.1,10.7L296.8,264.7z" />
	<path
   id="path28"
   class="st8"
   d="M340.6,284.6l29.6-0.8l0.2,8.7l-10,0.3l1.4,52.2l-9.6,0.3l-1.4-52.2l-10,0.3L340.6,284.6z    M397.5,344c-0.1-0.4-0.3-0.8-0.4-1.1c-0.3-0.7-0.5-1.6-0.5-3.3c-0.1-0.8-0.1-1.8-0.2-3l-0.3-9.6c-0.2-5.7-2-7.7-6.5-7.6l-3.3,0.1   l0.7,24.8l-9.6,0.3l-1.6-60.9l14.4-0.4c10-0.3,14.3,4.2,14.6,13.6l0.1,4.8c0.2,6.3-1.8,10.4-5.9,12.5c4.9,1.9,6.5,6.4,6.7,12.8   l0.3,9.4c0.1,3,0.2,5,1.2,7.4L397.5,344z M385.7,292.1l0.5,18.7l3.7-0.1c3.6-0.1,5.7-1.7,5.6-6.6l-0.2-6c-0.1-4.4-1.6-6.2-5-6.1   L385.7,292.1z M422.2,308.1l13.1-0.4l0.2,8.7l-13.1,0.4l0.5,17.8l16.5-0.4l0.2,8.7l-26.1,0.7l-1.6-60.9L438,282l0.2,8.7l-16.5,0.4   L422.2,308.1z M456.8,280.8c9.4-0.3,14.2,5.1,14.5,14.9l0.1,1.9l-9.1,0.2l-0.1-2.5c-0.1-4.4-1.9-6-4.9-5.9s-4.7,1.7-4.6,6.1   c0.1,4.2,2.3,7.2,5.1,9.9c1.4,1.4,2.9,2.8,4.6,4.1c3.2,2.8,6.3,6,8.2,10.2c1,2.2,1.5,4.7,1.6,7.5c0.3,9.8-4.5,15.4-13.9,15.7   c-9.4,0.3-14.4-5.1-14.7-14.9l-0.1-3.7l9.1-0.2l0.1,4.4c0.1,4.4,2.1,5.9,5.1,5.8s4.9-1.6,4.8-6.1c-0.1-4.2-2.3-7.2-5.1-10   c-1.4-1.4-2.9-2.7-4.6-4.1c-3.3-2.7-6.3-5.9-8.3-10.1c-1-2.2-1.5-4.7-1.6-7.5C442.9,286.6,447.4,281,456.8,280.8L456.8,280.8z    M490,317.2l-2.8,5.6l0.5,18.7l-9.6,0.3l-1.6-60.9l9.6-0.3l0.7,26.5l11.8-26.9l9.6-0.3l-12.6,27.5l14.2,33.4l-9.8,0.3L490,317.2z    M527.9,341.2c-0.2,0-0.4-0.1-0.5-0.2c-0.1-0.2-0.2-0.4-0.2-0.6l1.3-16.6l-3.5,0.1c-0.2,0-0.4-0.1-0.6-0.2   c-0.1-0.2-0.2-0.4-0.2-0.6l0.5-6.8c0-0.4,0.3-0.7,0.7-0.7l3.6-0.1l1.1-14.5l-3.5,0.1c-0.2,0-0.4-0.1-0.6-0.2   c-0.1-0.2-0.2-0.4-0.2-0.6l0.5-6.8c0-0.4,0.3-0.7,0.7-0.7l3.7-0.1l1.1-13.4c0-0.4,0.3-0.7,0.7-0.7l7.8-0.2c0.2,0,0.4,0.1,0.6,0.2   c0.1,0.2,0.2,0.4,0.2,0.6l-1,13.2l4.2-0.1l1.1-13.4c0-0.4,0.3-0.7,0.7-0.7l7.8-0.2c0.2,0,0.4,0.1,0.6,0.2c0.1,0.2,0.2,0.4,0.2,0.6   l-1,13.2l3.6-0.1c0.2,0,0.4,0.1,0.6,0.2c0.1,0.2,0.2,0.4,0.2,0.6l-0.5,6.8c0,0.4-0.3,0.7-0.7,0.7l-3.8,0.1l-1.1,14.5l3.6-0.1   c0.2,0,0.4,0.1,0.6,0.2c0.1,0.2,0.2,0.4,0.2,0.6l-0.5,6.8c0,0.4-0.3,0.7-0.7,0.7l-3.8,0.1L550,340c0,0.4-0.3,0.7-0.7,0.7l-7.8,0.2   c-0.2,0-0.4-0.1-0.6-0.2c-0.1-0.2-0.2-0.4-0.2-0.6l1.3-16.6l-4.2,0.1l-1.3,16.8c0,0.4-0.3,0.7-0.7,0.7L527.9,341.2z M529.3,322.3   c0.2,0,0.4,0.1,0.5,0.2c0.1,0.2,0.2,0.4,0.2,0.6l-1.3,16.6l6.4-0.2l1.3-16.8c0-0.4,0.3-0.7,0.7-0.7l5.7-0.2c0.2,0,0.4,0.1,0.6,0.2   c0.1,0.2,0.2,0.4,0.2,0.6l-1.3,16.6l6.4-0.2l1.3-16.8c0-0.4,0.3-0.7,0.7-0.7l3.8-0.1l0.4-5.3l-3.6,0.1c-0.2,0-0.4-0.1-0.6-0.2   c-0.1-0.2-0.2-0.4-0.2-0.6l1.2-16c0-0.4,0.3-0.7,0.7-0.7l3.8-0.1l0.4-5.3l-3.6,0.1c-0.2,0-0.4-0.1-0.6-0.2   c-0.1-0.2-0.2-0.4-0.2-0.6l1-13.2l-6.4,0.2l-1.1,13.4c0,0.4-0.3,0.7-0.7,0.7l-5.7,0.2c-0.2,0-0.4-0.1-0.6-0.2   c-0.1-0.2-0.2-0.4-0.2-0.6l1-13.2l-6.4,0.2l-1.1,13.4c0,0.4-0.3,0.7-0.7,0.7l-3.7,0.1l-0.4,5.3l3.5-0.1c0.2,0,0.4,0.1,0.6,0.2   c0.1,0.2,0.2,0.4,0.2,0.6l-1.2,16c0,0.4-0.3,0.7-0.7,0.7l-3.6,0.1l-0.4,5.3L529.3,322.3z M537.6,316.8c-0.2,0-0.4-0.1-0.5-0.2   c-0.1-0.2-0.2-0.4-0.2-0.6l1.2-16c0-0.4,0.3-0.7,0.7-0.7l5.7-0.2c0.2,0,0.4,0.1,0.6,0.2c0.1,0.2,0.2,0.4,0.2,0.6l-1.2,16   c0,0.4-0.3,0.7-0.7,0.7L537.6,316.8z M539.5,300.8l-1.1,14.5l4.2-0.1l1.1-14.5L539.5,300.8z M583.6,339.9c-0.5,0-0.9-0.4-0.9-0.9   l-1.2-45.6l-6.5,0.2c-0.2,0-0.5-0.1-0.7-0.3c-0.2-0.2-0.3-0.4-0.3-0.6l-0.2-6.8c0-0.2,0.1-0.5,0.3-0.7s0.4-0.3,0.6-0.3   c3.2-0.1,5.4-0.8,6.8-2.2c1.1-1.1,1.9-2.6,2.7-5.1c0.1-0.4,0.5-0.6,0.9-0.6l6.4-0.2c0.2,0,0.5,0.1,0.7,0.3c0.2,0.2,0.3,0.4,0.3,0.6   l1.6,60.9c0,0.2-0.1,0.5-0.3,0.7s-0.4,0.3-0.6,0.3L583.6,339.9z M582.4,291.6c0.2,0,0.5,0.1,0.6,0.3c0.2,0.2,0.3,0.4,0.3,0.6   l1.2,45.6l7.7-0.2l-1.6-59.1l-4.9,0.1c-0.6,1.7-1.4,3.7-2.9,5.2c-1.6,1.6-3.9,2.5-7.1,2.7l0.1,5L582.4,291.6z M611.1,339.2   c-0.5,0-0.9-0.4-0.9-0.9l-1.2-45.6l-6.5,0.2c-0.2,0-0.5-0.1-0.7-0.3c-0.2-0.2-0.3-0.4-0.3-0.6l-0.2-6.8c0-0.5,0.4-0.9,0.9-0.9   c3.2-0.1,5.4-0.8,6.8-2.2c1.1-1.1,1.9-2.6,2.7-5.1c0.1-0.4,0.5-0.6,0.9-0.6l6.4-0.2c0.2,0,0.5,0.1,0.7,0.3c0.2,0.2,0.3,0.4,0.3,0.6   l1.6,60.9c0,0.2-0.1,0.5-0.3,0.7s-0.4,0.3-0.6,0.3L611.1,339.2z M609.9,290.9c0.2,0,0.5,0.1,0.6,0.3c0.2,0.2,0.3,0.4,0.3,0.6   l1.2,45.6l7.7-0.2l-1.6-59.1l-4.9,0.1c-0.6,1.7-1.4,3.7-2.9,5.2c-1.6,1.6-3.9,2.5-7.1,2.7l0.1,5L609.9,290.9z" />
	<path
   id="path30"
   class="st9"
   d="M589.5,256.1l72.8,48.7l-1.7-50.8L589.5,256.1z M518.6,258.2l145.2,101.9l-74.2,2L429.5,260.8   L518.6,258.2z M409.9,261.4l165.9,101.3l-56.2,1.6L360.2,262.8L409.9,261.4z M312.6,264.3l164.7,101.3l-18.1,0.5L296.7,264.7   L312.6,264.3z M297.5,293.2l121.1,74.1l-47.5,1.4l-72.6-38.1L297.5,293.2z" />
	<path
   id="path32"
   class="st5"
   d="M260.4,297.6l0.5-14.8l22.6-0.4l0.4,14.5L260.4,297.6z M285.1,344.3l0.4,15.8l-22.3,0.5l0.3-15.8   L285.1,344.3z" />
	<g
   id="g38">
		
			<ellipse
   id="circle34"
   transform="matrix(0.6392 -0.7691 0.7691 0.6392 -172.8492 365.7293)"
   class="st10"
   cx="303.3"
   cy="367.1"
   rx="1.8"
   ry="1.8" />
		<path
   id="path36"
   class="st11"
   d="M304.1,368l-0.3-0.5c-0.2-0.3,0.2-0.5,0.2-0.5l0.5-0.3l-0.3-0.5l-0.5,0.3    c-0.3,0.2-0.5-0.2-0.5-0.2l-0.3-0.5l-0.5,0.3l0.3,0.6c0.1,0.3-0.1,0.4-0.1,0.4l-0.6,0.3l0.3,0.5l0.6-0.3c0.2-0.1,0.4,0.2,0.4,0.2    l0.3,0.6L304.1,368z" />
	</g>
	<g
   id="g44">
		
			<ellipse
   id="circle40"
   transform="matrix(0.889 -0.4579 0.4579 0.889 -89.3956 167.454)"
   class="st10"
   cx="300.7"
   cy="268.1"
   rx="1.8"
   ry="1.8" />
		<path
   id="path42"
   class="st11"
   d="M301.1,269.3v-0.6c0-0.4,0.4-0.4,0.4-0.4h0.5v-0.6h-0.6c-0.4,0-0.4-0.4-0.4-0.4v-0.6h-0.6    l0.1,0.7c0,0.3-0.2,0.3-0.2,0.3l-0.7,0.1v0.6l0.7-0.1c0.3,0,0.3,0.3,0.3,0.3l0.1,0.6L301.1,269.3z" />
	</g>
	<g
   id="g50">
		
			<ellipse
   id="circle46"
   transform="matrix(0.2177 -0.976 0.976 0.2177 263.3364 843.0133)"
   class="st10"
   cx="657.5"
   cy="257.2"
   rx="1.8"
   ry="1.8" />
		<path
   id="path48"
   class="st11"
   d="M657.1,258.4l0.3-0.5c0.2-0.3,0.6-0.1,0.6-0.1l0.4,0.3l0.3-0.5l-0.5-0.3    c-0.3-0.2-0.1-0.5-0.1-0.5l0.3-0.5l-0.5-0.3l-0.4,0.5c-0.2,0.2-0.4,0.1-0.4,0.1l-0.6-0.4l-0.3,0.5l0.6,0.4c0.2,0.2,0,0.4,0,0.4    l-0.4,0.5L657.1,258.4z" />
	</g>
	<g
   id="g56">
		
			<ellipse
   id="circle52"
   transform="matrix(0.2177 -0.976 0.976 0.2177 168.203 923.1366)"
   class="st10"
   cx="660"
   cy="356.6"
   rx="1.8"
   ry="1.8" />
		<path
   id="path54"
   class="st11"
   d="M659.5,357.8l0.3-0.5c0.2-0.3,0.6-0.1,0.6-0.1l0.4,0.3l0.3-0.5l-0.5-0.3    c-0.3-0.2-0.1-0.5-0.1-0.5l0.3-0.5l-0.5-0.3l-0.4,0.5c-0.2,0.2-0.4,0.1-0.4,0.1l-0.6-0.4l-0.3,0.5l0.6,0.4c0.2,0.2,0,0.4,0,0.4    l-0.4,0.5L659.5,357.8z" />
	</g>
</g>
<g
   id="stanga">
	
		<linearGradient
   id="path74_1_"
   gradientUnits="userSpaceOnUse"
   x1="195.149"
   y1="932.8168"
   x2="265.7375"
   y2="932.8168"
   gradientTransform="matrix(1 0 -2.031000e-02 -0.9966 44.6554 1916.4452)">
		<stop
   offset="0"
   style="stop-color:#999999"
   id="stop32" />
		<stop
   offset="0.2356"
   style="stop-color:#E0E0E0"
   id="stop34" />
		<stop
   offset="0.401"
   style="stop-color:#B8B8B8"
   id="stop36" />
		<stop
   offset="0.6014"
   style="stop-color:#474747"
   id="stop38" />
		<stop
   offset="0.695"
   style="stop-color:#303030"
   id="stop40" />
		<stop
   offset="0.7678"
   style="stop-color:#404040"
   id="stop42" />
		<stop
   offset="1"
   style="stop-color:#949494"
   id="stop44" />
	</linearGradient>
	<path
   id="path74"
   class="st12"
   d="M310.5,1921.7l-56.1,0.4L201.9,56.5c0,0,15.1-5,28.9-5c19.4,0,26.1,2.9,26.1,2.9L310.5,1921.7z" />
	
		<linearGradient
   id="path91_1_"
   gradientUnits="userSpaceOnUse"
   x1="201.9812"
   y1="1863.5234"
   x2="243.5812"
   y2="1863.5234"
   gradientTransform="matrix(1 0 0 -1 0 1920)">
		<stop
   offset="0"
   style="stop-color:#999999"
   id="stop48" />
		<stop
   offset="0.2356"
   style="stop-color:#E0E0E0"
   id="stop50" />
		<stop
   offset="0.401"
   style="stop-color:#B8B8B8"
   id="stop52" />
		<stop
   offset="0.5574"
   style="stop-color:#474747"
   id="stop54" />
		<stop
   offset="0.695"
   style="stop-color:#303030"
   id="stop56" />
		<stop
   offset="0.7678"
   style="stop-color:#404040"
   id="stop58" />
		<stop
   offset="1"
   style="stop-color:#949494"
   id="stop60" />
	</linearGradient>
	<path
   id="path91"
   class="st13"
   d="M243.3,54.4c-27.6-1-41.3,5.4-41.4,4.8v-0.7c0,0,18-6.6,41.6-4.3" />
	
		<linearGradient
   id="path108_1_"
   gradientUnits="userSpaceOnUse"
   x1="201.0722"
   y1="1866.3202"
   x2="257.5526"
   y2="1866.3202"
   gradientTransform="matrix(1 0 0 -1 0 1920)">
		<stop
   offset="0"
   style="stop-color:#999999"
   id="stop64" />
		<stop
   offset="0.2356"
   style="stop-color:#E0E0E0"
   id="stop66" />
		<stop
   offset="0.401"
   style="stop-color:#B8B8B8"
   id="stop68" />
		<stop
   offset="0.5574"
   style="stop-color:#474747"
   id="stop70" />
		<stop
   offset="0.695"
   style="stop-color:#303030"
   id="stop72" />
		<stop
   offset="0.7678"
   style="stop-color:#404040"
   id="stop74" />
		<stop
   offset="1"
   style="stop-color:#949494"
   id="stop76" />
	</linearGradient>
	<path
   id="path108"
   class="st14"
   d="M201.1,58.8l-0.1-5.2c0,0,12.6-4.7,28.1-5c15.5-0.4,28.3,2.3,28.3,2.3v5.7   c1.2,0.1-11.2-3-25.6-2.7C220.1,54.2,210,55.8,201.1,58.8L201.1,58.8z" />
	<path
   id="path110"
   class="st15"
   d="M257.5,56.6C257.5,56.6,257.6,56.6,257.5,56.6C257.5,56.5,257.5,56.5,257.5,56.6l-0.3-0.1   l-0.4-0.1l-0.9-0.2l-1.8-0.3c-1.2-0.2-2.4-0.4-3.5-0.5c-2.4-0.3-4.7-0.6-7.1-0.8c-4.7-0.4-9.5-0.5-14.3-0.3s-9.5,0.6-14.2,1.4   c-4.7,0.7-9.4,1.8-13.9,3.2c4.5-1.6,9.1-2.8,13.9-3.6c4.7-0.8,9.5-1.3,14.3-1.5s9.6-0.1,14.3,0.4c2.4,0.2,4.7,0.5,7.1,0.9   c1.2,0.2,2.4,0.4,3.5,0.7l1.7,0.4l0.9,0.2l0.4,0.1L257.5,56.6C257.5,56.5,257.5,56.5,257.5,56.6C257.6,56.6,257.5,56.6,257.5,56.6   L257.5,56.6z" />
	<path
   id="path112"
   class="st16"
   d="M201.1,58.8c0,0,0.5,0.4,0.8,0.5v-0.7L201.1,58.8z" />
</g>
<circle
   id="circle115"
   class="st17"
   cx="246.4"
   cy="747.2"
   r="124.3" />
<circle
   id="circle117"
   class="st18"
   cx="246.4"
   cy="747.2"
   r="121.8" />
<circle
   id="circle119"
   class="st8"
   cx="246.4"
   cy="747.2"
   r="106" />
<path
   id="path121"
   class="st8"
   d="M259,690.8c-1.8,20.3-3.6,39.5-12.1,56.3c-3.9,7.7-10.5,11.7-17.4,14.7c-13.2,5.8-27,5.3-41.4,2.1  c7.9-1.9,15.6-3.4,23.1-5.7c11.3-3.4,19.3-11.4,23.9-23.8c2.9-7.9,5.6-15.9,8.5-23.9C246.6,702.1,250.9,695.2,259,690.8L259,690.8z" />
<path
   id="path123"
   d="M191,736.4C191.7,736.2,190.4,736.5,191,736.4z" />
<path
   id="path125"
   d="M328,766.1c-10-8.3-20.4-15.8-33.4-16.2c-3.5-0.1-7.1-0.9-10.7-1.5c-14.4-2.6-17.7-7.9-16-25.1  c1.3-12.4,3.7-24.7,0.2-37.6c-0.4-1.4-1-2.6-1.8-3.6c0.1-1,0.4-2.2,1-3.2c2.1-3.5,4-3.8,5.2-7.3c1.3-3.5-0.1-4.3-0.1-4.3  c-1.3,0.4-5.8-2-5.8-2c-3.4-0.5-2.6,3.6-2.6,3.6c-0.8,6.1-3.5,11.6-3.5,11.6c-9.4,5.1-17.7,11.9-21.9,23.8  c-2.2,6.1-4.7,12.1-6.4,18.4c-1.6,6-5,8.8-9.8,10.2c-2.1,0.6-4.3,1.1-6.5,1.3c-8.2,0.7-16.5,1.3-24.8,2c-5,0.1-6.5,0.9-5.6,2.1  c5.7,7.6,20.5,7.4,28.6,9.3c-16,8.1-33.1,8.5-51.1,7.7c-7.4-0.4-8.3,3.8-2.6,6.8c18,8.3,35.8,12.8,54,11  c13.9-1.4,26.3-6.7,36.1-18.4c6.7,6.7,14.5,8.9,22.6,9.5c5.3,0.4,10.6,0.6,15.8,0c10.1-1.1,19.8,0.2,29.2,3.3  c2.8,0.9,5.6,1.8,8.5,2.4c0.8,0.2,2.2,0.2,2.7-0.8C329.6,768.3,328.7,766.7,328,766.1L328,766.1z M246.9,747.1  c-3.9,7.7-10.5,11.7-17.4,14.7c-13.2,5.8-27,5.3-41.4,2.1c7.9-1.9,15.6-3.4,23.1-5.7c11.3-3.4,19.3-11.4,23.9-23.8  c2.9-7.9,5.6-15.9,8.5-23.9c3-8.3,7.3-15.3,15.5-19.7C257.2,711.1,255.5,730.2,246.9,747.1L246.9,747.1z" />
<path
   id="path127"
   d="M248.6,716.9c0,0-0.4,23.7-9.4,29.1c0,0,9.3,1.6,10.1-10.3C250.1,723.7,251.6,721.5,248.6,716.9L248.6,716.9z" />
<g
   id="g131">
	<path
   id="path129"
   class="st19"
   d="M207.2,807.1l-6.2-14v-0.2l3.9-0.2l4,10.5h0.1l2.9-10.8l3.9-0.2v0.2l-4.7,14.5L207.2,807.1z    M218.4,806.6l-0.7-14.4l3.4-0.1l0.6,14.4L218.4,806.6z M223.9,806.3l-0.1-2.8l6.7-8.9v-0.1l-6.9,0.3l-0.1-2.9l11.1-0.5l0.1,2.8   L228,803v0.1l7.2-0.4l0.1,2.8L223.9,806.3L223.9,806.3z M238.8,804.2c-1.2-0.9-1.8-2.3-1.9-4.2l-0.3-8.6l3.3-0.1l0.3,8.6   c0.1,2,1.1,3,3,2.9s2.9-1.1,2.8-3.1l-0.3-8.5l3.3-0.1l0.3,8.6c0.1,1.9-0.5,3.3-1.6,4.4c-1.1,1-2.6,1.6-4.4,1.7   C241.5,805.6,240,805.1,238.8,804.2L238.8,804.2z M259.4,790.4l5.4,13.6v0.2l-3.6,0.2l-0.9-2.6l-5.3,0.3l-0.8,2.7l-3.4,0.2v-0.2   l4.5-14.2L259.4,790.4z M255.7,799.2l3.6-0.2l-1.9-5.4h-0.1L255.7,799.2L255.7,799.2z M266.4,804.1l-0.4-14l3.2-0.1l0.3,11.2   l6.4-0.3l0.1,2.8L266.4,804.1L266.4,804.1z M277.6,803.5l-0.4-13.9l3.7-0.2l5.4,8.9h0.1l-0.2-9.1l3.1-0.1l0.3,13.9l-3.7,0.2   l-5.4-8.8h-0.1l0.2,9L277.6,803.5L277.6,803.5z M292.4,802.8l-0.3-13.8l3.1-0.1l0.3,13.8L292.4,802.8z M201.6,828l-0.7-14.3l4-0.2   l6,9h0.1l-0.5-9.3l3.4-0.2l0.7,14.2l-4,0.2l-6-8.9h-0.1l0.5,9.3L201.6,828z M225,812.3l5.7,13.6v0.2l-3.7,0.2l-1-2.6l-5.5,0.3   l-0.7,2.7l-3.5,0.2v-0.2l4.5-14.3L225,812.3L225,812.3z M221.3,821.3l3.7-0.2l-2-5.4h-0.1L221.3,821.3L221.3,821.3z M234.4,826   l-0.5-11.2l-4.3,0.2l-0.1-2.9l11.8-0.6l0.1,2.8l-4.2,0.2l0.4,11.2L234.4,826z M243.7,825.4l-0.5-14l10.4-0.6l0.1,2.8l-7.1,0.4   l0.1,2.6l6.4-0.4l0.1,2.8l-6.4,0.4l0.1,3l7.1-0.4l0.1,2.8L243.7,825.4L243.7,825.4z M257.1,822.7c-1.3-1.3-1.9-2.9-2-5   s0.5-3.9,1.6-5.3c1.2-1.4,2.8-2.2,5.1-2.3c1.8-0.1,3.3,0.3,4.4,1.3c1.2,1,1.9,2.2,2,3.7l-3.2,0.2c-0.2-1.4-1.3-2.5-3.1-2.4   c-2.4,0.1-3.6,1.7-3.5,4.5s1.4,4.2,3.8,4.1c1.8-0.1,2.8-1.2,3-2.7l3.2-0.2c-0.1,1.5-0.7,2.8-1.8,3.8c-1.1,1.1-2.5,1.7-4.3,1.8   C260.1,824.5,258.4,824,257.1,822.7L257.1,822.7z M260.2,809.2l-2-2.7v-0.2l2.4-0.1l1.2,1h0.1l1.1-1.1l2.4-0.1v0.2l-1.8,2.9   L260.2,809.2L260.2,809.2z M277.7,809.5l5.2,13.3v0.2l-3.5,0.2l-0.9-2.6l-5.2,0.3l-0.7,2.7l-3.3,0.2v-0.2l4.4-13.9L277.7,809.5z    M274.1,818.2l3.5-0.2l-1.8-5.3h-0.1L274.1,818.2z M284.4,821.8c-0.8-0.8-1.3-1.8-1.3-3l3-0.2c0,1,0.6,1.5,1.7,1.4s1.6-0.7,1.6-1.8   l-0.2-9.4l3.1-0.2l0.2,9.4c0,1.3-0.4,2.4-1.2,3.3c-0.8,0.9-2,1.4-3.5,1.5C286.4,822.9,285.2,822.6,284.4,821.8L284.4,821.8z    M295.2,822.2l-0.3-13.6l3.1-0.2l0.3,13.6L295.2,822.2z" />
</g>
<path
   id="path133"
   class="st20"
   d="M295.5,635.7L145.3,815.1c0,0,8.2,12.9,21.2,24l157.7-185.7C324.1,653.4,313.5,643.7,295.5,635.7   M332,660.5c0,0,3.4,3.3,6.3,6.7l-152,186c0,0-4.3-2.3-8.8-5.5L332,660.5L332,660.5z" />
<g
   id="obracun_tabla">
	<path
   id="path136"
   class="st21"
   d="M338.5,226.5l-206.7,6.7c-2.8,0.1-5.2-2.2-5.3-5.1l-2.7-130.8c-0.1-2.9,2.2-5.3,5.1-5.3   l207.3-2.7c2.7,0,4.9,2.2,5,5l2,126.9C343.3,224.1,341.2,226.4,338.5,226.5L338.5,226.5z" />
	<path
   id="path138"
   class="st8"
   d="M340.1,226.2l-206.7,6.7c-2.8,0.1-5.2-2.2-5.3-5.1L125.4,97c-0.1-2.9,2.2-5.3,5.1-5.3L337.8,89   c2.7,0,4.9,2.2,5,5l2,126.9C344.9,223.8,342.8,226.1,340.1,226.2L340.1,226.2z" />
	<path
   id="path140"
   class="st18"
   d="M337.4,124.5l-205,3.5l-0.6-30.1l205.1-2.5L337.4,124.5z" />
	<path
   id="path142"
   d="M175.2,154.5c0.1,3.7-2.8,6.8-6.5,6.9c-3.7,0.1-6.7-2.9-6.8-6.6c-0.1-3.7,2.8-6.8,6.5-6.9   C172.1,147.8,175.2,150.8,175.2,154.5z" />
	<path
   id="path144"
   class="st19"
   d="M230.6,158.4c-1.2-1.4-1.8-3.2-1.8-5.4s0.5-4,1.6-5.4s2.8-2.2,5-2.2s3.8,0.6,5,2   s1.8,3.2,1.8,5.4s-0.5,4-1.7,5.5c-1.1,1.4-2.8,2.2-5,2.2C233.5,160.4,231.8,159.7,230.6,158.4L230.6,158.4z M235.6,157.7   c1.3,0,2.3-0.5,2.9-1.4c0.6-0.9,0.9-2.1,0.9-3.6s-0.4-2.7-1-3.6c-0.7-0.9-1.7-1.3-2.9-1.3c-1.3,0-2.3,0.5-2.9,1.4   c-0.6,0.9-0.9,2.1-0.9,3.6s0.4,2.7,1,3.6C233.3,157.3,234.3,157.7,235.6,157.7z M247.2,158.7l-0.3,1.2l-2.4,0.1l-0.3-15.5l2.7-0.1   l0.1,5.8h0.1c0.7-0.9,1.6-1.4,2.9-1.4c1.3,0,2.4,0.5,3.2,1.5s1.2,2.4,1.2,4c0,1.7-0.3,3.1-1.1,4.1s-1.8,1.6-3.1,1.6   S247.9,159.6,247.2,158.7L247.2,158.7z M251.6,154.4c0-1.9-0.8-3.1-2.4-3.1c-1.6,0-2.3,1.3-2.3,3.2c0,1.8,0.8,3.1,2.4,3.1   C250.9,157.5,251.6,156.2,251.6,154.4z M256.3,159.7l-0.2-10.8h2.3l0.2,1.6h0.1c0.5-1.2,1.4-1.8,2.7-1.9h0.8v2.6h-0.9   c-1.6,0-2.5,1.2-2.5,3.2l0.1,5.3L256.3,159.7L256.3,159.7z M263.3,156.3c0-2.1,1.4-3.4,4.2-3.4c0.9,0,1.7,0.1,2.3,0.3v-0.9   c0-0.9-0.6-1.6-1.8-1.5c-1.1,0-1.7,0.6-1.7,1.4l-2.5,0.1c0-1.1,0.3-2,1.1-2.7c0.8-0.7,1.8-1.1,3.2-1.1c2.8-0.1,4.5,1.5,4.5,3.8   l0.1,7.2l-2.4,0.1l-0.2-1.1H270c-0.6,0.9-1.6,1.3-2.9,1.4C264.8,159.7,263.4,158.3,263.3,156.3L263.3,156.3z M269.9,155.3v-0.2   c-0.6-0.2-1.3-0.3-2.1-0.3c-1.1,0-1.8,0.6-1.8,1.3s0.6,1.3,1.7,1.3C269,157.4,269.9,156.4,269.9,155.3L269.9,155.3z M275.6,157.9   c-0.9-1-1.4-2.4-1.4-4c0-1.7,0.4-3,1.3-4.1c0.9-1,2.1-1.6,3.7-1.6c2.9-0.1,4.5,1.6,4.7,4.2l-2.7,0.1c-0.1-1.1-0.9-1.8-2-1.8   c-1.5,0-2.3,1.1-2.2,3.2c0,2.1,0.8,3.1,2.3,3.1c1.1,0,1.8-0.7,2-1.9l2.7-0.1c-0.1,2.6-1.7,4.3-4.6,4.4   C277.8,159.4,276.6,158.9,275.6,157.9L275.6,157.9z M277.8,147l-2-2.8V144h2.2l1.2,1.2h0.1l1.2-1.3h2.2v0.2l-1.9,2.9L277.8,147   L277.8,147z M292.3,148.1l2.7-0.1l0.1,6.6c0,1.2-0.4,2.3-1.1,3.2c-0.8,0.8-1.9,1.3-3.4,1.3s-2.6-0.4-3.4-1.2s-1.2-1.9-1.2-3.1   l-0.1-6.6l2.7-0.1l0.1,6.2c0,1.5,0.7,2.2,2,2.2s1.9-0.8,1.9-2.3L292.3,148.1L292.3,148.1z M297.5,158.7l-0.2-10.8l2.4-0.1l0.2,1.2   h0.1c0.7-0.9,1.6-1.4,2.9-1.5c2.3,0,3.8,1.4,3.8,3.8l0.1,7l-2.7,0.1l-0.1-6.3c0-1.4-0.7-2.1-1.9-2.1c-1.3,0-2.1,1-2.1,2.5l0.1,6   L297.5,158.7L297.5,158.7z M230.8,185.1c-0.9-0.7-1.3-1.6-1.4-2.8l2.7-0.1c0.1,0.9,0.9,1.5,2.1,1.5c1.5,0,2.3-0.9,2.3-2.1v-1.7   h-0.1c-0.7,0.9-1.6,1.4-2.9,1.4c-1.4,0-2.4-0.5-3.2-1.5s-1.2-2.4-1.2-4c0-1.7,0.3-3.1,1.1-4.1c0.8-1.1,1.8-1.6,3.2-1.6   c1.3,0,2.3,0.4,2.9,1.3h0.1l0.3-1.2l2.4-0.1l0.2,11.4c0,1.3-0.4,2.4-1.3,3.2c-0.9,0.8-2.1,1.3-3.6,1.3   C232.8,186.1,231.7,185.8,230.8,185.1L230.8,185.1z M234.2,178.8c0.8,0,1.4-0.3,1.8-0.9c0.4-0.6,0.5-1.4,0.5-2.3   c0-0.9-0.2-1.7-0.6-2.3c-0.4-0.6-1-0.9-1.8-0.9s-1.4,0.3-1.8,0.9c-0.4,0.6-0.5,1.4-0.5,2.3c0,0.9,0.2,1.7,0.6,2.3   C232.8,178.6,233.4,178.8,234.2,178.8z M241.5,180.9l-0.3-15.5l2.7-0.1l0.3,15.4L241.5,180.9L241.5,180.9z M245.9,177.6   c0-2.1,1.4-3.4,4.2-3.5c0.9,0,1.7,0.1,2.4,0.3v-0.9c0-0.9-0.6-1.6-1.9-1.5c-1.1,0-1.8,0.6-1.7,1.4l-2.6,0.1c0-1.1,0.4-2,1.1-2.7   c0.8-0.7,1.8-1.1,3.2-1.1c2.8-0.1,4.5,1.5,4.5,3.7l0.1,7.2l-2.4,0.1l-0.2-1.1h-0.1c-0.6,0.9-1.6,1.4-2.9,1.4   C247.3,180.9,245.9,179.6,245.9,177.6L245.9,177.6z M252.5,176.6v-0.2c-0.6-0.2-1.3-0.3-2.1-0.3c-1.2,0-1.8,0.6-1.8,1.3   c0,0.8,0.6,1.3,1.7,1.3C251.6,178.6,252.5,177.7,252.5,176.6L252.5,176.6z M256.9,176.9l2.7-0.1c0,0.9,0.7,1.5,1.9,1.4   c1.1,0,1.7-0.5,1.7-1s-0.4-0.9-1.2-1l-1.7-0.3c-2-0.3-3.1-1.4-3.1-3.2s1.5-3.2,4.1-3.3c1.3,0,2.3,0.3,3.1,0.9   c0.8,0.6,1.2,1.5,1.2,2.6l-2.7,0.1c0-0.8-0.6-1.4-1.7-1.3c-0.9,0-1.5,0.4-1.5,1c0,0.5,0.4,0.8,1.1,1l1.9,0.3   c1.9,0.3,3.1,1.2,3.1,3.2c0,1.1-0.4,1.9-1.2,2.5c-0.8,0.6-1.9,0.9-3.2,1C258.5,180.6,257,179.2,256.9,176.9L256.9,176.9z    M270.6,179l-0.3,1.2l-2.4,0.1l-0.3-15.4l2.7-0.1l0.1,5.7h0.1c0.6-0.9,1.6-1.4,2.9-1.4s2.4,0.5,3.2,1.5c0.8,1,1.2,2.4,1.2,4   c0,1.7-0.3,3-1.1,4.1c-0.7,1-1.8,1.6-3.1,1.6C272.2,180.3,271.3,179.9,270.6,179L270.6,179z M275,174.6c0-1.9-0.8-3.1-2.4-3.1   s-2.3,1.3-2.3,3.2c0,1.8,0.8,3.1,2.4,3.1S275,176.5,275,174.6z M280.4,178.5c-0.9-1-1.4-2.4-1.4-4s0.4-3,1.2-4   c0.8-1.1,2.1-1.6,3.7-1.7c1.5,0,2.7,0.4,3.6,1.4s1.3,2.2,1.4,3.7v1.1l-7.1,0.2c0,1.6,0.8,2.5,2.3,2.5c1.1,0,1.8-0.5,2-1.3l2.6-0.1   c-0.1,1-0.6,1.9-1.4,2.6c-0.8,0.7-1.9,1-3.2,1.1C282.5,180,281.3,179.5,280.4,178.5z M286.1,173.3c-0.1-1.3-0.8-2.2-2.1-2.1   c-1.4,0-2.2,0.9-2.2,2.2L286.1,173.3L286.1,173.3z M295.9,165.7c0-1,0.5-1.7,1.6-1.7c1,0,1.7,0.6,1.7,1.6c0,1.1-0.6,1.7-1.6,1.7   C296.5,167.3,296,166.7,295.9,165.7z M296.5,179.5l-0.2-10.8l2.7-0.1l0.2,10.8L296.5,179.5z M301.4,179.3l-0.2-10.8l2.4-0.1   l0.2,1.2h0.1c0.7-0.9,1.6-1.4,2.9-1.5c2.3-0.1,3.8,1.4,3.8,3.8l0.1,7L308,179l-0.1-6.3c0-1.4-0.7-2.1-1.9-2.1c-1.3,0-2.1,1-2.1,2.5   l0.1,6L301.4,179.3L301.4,179.3z M229.7,202.1v-2.3l5.1-6.2v-0.1l-5.2,0.1v-2.4l8.5-0.2v2.4l-5.1,6.2v0.1l5.2-0.2v2.4L229.7,202.1z    M239.4,198.7c0-2.1,1.4-3.4,4.2-3.5c0.9,0,1.7,0.1,2.4,0.3v-0.9c0-0.9-0.6-1.6-1.9-1.5c-1.1,0-1.8,0.6-1.7,1.4l-2.6,0.1   c0-1.1,0.4-2,1.1-2.7c0.8-0.7,1.8-1.1,3.2-1.1c2.8-0.1,4.5,1.5,4.6,3.7l0.1,7.2l-2.4,0.1l-0.2-1.1h-0.1c-0.6,0.9-1.6,1.4-2.9,1.4   C240.9,202,239.5,200.6,239.4,198.7L239.4,198.7z M246.1,197.6v-0.2c-0.6-0.2-1.3-0.3-2.1-0.3c-1.2,0-1.8,0.6-1.8,1.3   c0,0.8,0.6,1.3,1.7,1.2C245.2,199.7,246.1,198.7,246.1,197.6L246.1,197.6z M251.1,201.5l-0.3-15.4l2.7-0.1l0.3,15.4L251.1,201.5z    M256.8,200c-0.9-1-1.4-2.3-1.4-4s0.4-3,1.3-4.1s2.1-1.6,3.8-1.7c1.6,0,2.9,0.4,3.8,1.5c0.9,1,1.4,2.4,1.4,4s-0.4,3-1.3,4.1   c-0.8,1-2.1,1.6-3.7,1.7C259,201.5,257.7,201,256.8,200L256.8,200z M260.5,192.7c-1.6,0-2.3,1.1-2.3,3.2s0.8,3.1,2.4,3.1   s2.3-1.1,2.3-3.2C262.8,193.7,262,192.6,260.5,192.7z M267.2,201v-2.3l5-6.2v-0.1l-5.1,0.1v-2.4l8.4-0.2v2.3l-5,6.1v0.1l5.1-0.2   v2.4L267.2,201L267.2,201z M269.9,188.8l-2-2.8v-0.2l2.2-0.1l1.2,1.2h0.1l1.2-1.3l2.2-0.1v0.2l-1.9,2.9L269.9,188.8L269.9,188.8z    M277.7,200.7l-0.2-10.8l2.4-0.1l0.2,1.2h0.1c0.7-1,1.6-1.5,2.9-1.5c2.3-0.1,3.8,1.4,3.9,3.8l0.1,7.1l-2.7,0.1l-0.1-6.3   c0-1.4-0.7-2.1-2-2.1s-2.1,1-2.1,2.5l0.1,6L277.7,200.7L277.7,200.7z M288.9,186.6c0-1,0.5-1.7,1.6-1.7c1,0,1.7,0.6,1.7,1.6   c0,1.1-0.6,1.7-1.6,1.7C289.4,188.2,288.9,187.6,288.9,186.6z M289.4,200.4l-0.2-10.8l2.7-0.1l0.2,10.8L289.4,200.4z M293.7,196.6   l2.7-0.1c0,0.8,0.7,1.4,1.9,1.4c1.1,0,1.7-0.5,1.7-1s-0.4-0.9-1.2-1l-1.7-0.3c-2-0.3-3.1-1.4-3.1-3.2s1.5-3.2,4.1-3.3   c1.3,0,2.3,0.3,3.1,0.9c0.8,0.6,1.2,1.5,1.2,2.5l-2.6,0.1c0-0.8-0.6-1.3-1.7-1.3c-0.9,0-1.5,0.4-1.5,1c0,0.5,0.4,0.8,1.1,0.9   l1.9,0.3c1.9,0.3,3,1.2,3.1,3.2c0,1.1-0.4,1.9-1.2,2.5c-0.8,0.6-1.9,0.9-3.2,1C295.3,200.4,293.8,198.9,293.7,196.6L293.7,196.6z    M296.6,188l-2-2.8V185l2.2-0.1l1.2,1.2h0.1l1.2-1.3l2.2-0.1v0.2l-1.9,2.9L296.6,188L296.6,188z M305.5,196.8l-0.1-5.3h-1.7v-2.4   l1.8-0.1v-2.3l2.4-0.6h0.2v2.8l2.5-0.1v2.4l-2.5,0.1l0.1,4.7c0,1,0.4,1.4,1.4,1.4c0.3,0,0.7-0.1,1-0.2h0.2v2.3   c-0.6,0.2-1.2,0.3-1.9,0.3C306.5,200,305.5,198.8,305.5,196.8L305.5,196.8z M315.3,199.6l-3.7-10.4V189l2.7-0.1l2.5,7.9h0.1   l2.2-8.1l2.7-0.1v0.2l-3.3,10.6L315.3,199.6L315.3,199.6z M322.6,196.2c0-2,1.3-3.4,4.1-3.4c0.9,0,1.7,0.1,2.3,0.3v-0.9   c0-0.9-0.6-1.5-1.8-1.5c-1.1,0-1.7,0.6-1.7,1.4l-2.5,0.1c0-1,0.3-1.9,1.1-2.6c0.7-0.7,1.8-1.1,3.1-1.1c2.7-0.1,4.4,1.4,4.4,3.7   l0.1,7.1l-2.3,0.1l-0.2-1.1h-0.1c-0.6,0.9-1.6,1.3-2.8,1.4C324,199.5,322.6,198.2,322.6,196.2z M329,195.2V195   c-0.6-0.2-1.3-0.3-2-0.3c-1.1,0-1.8,0.6-1.8,1.3c0,0.8,0.6,1.3,1.6,1.2C328.1,197.2,329,196.3,329,195.2L329,195.2z" />
	<g
   id="g148">
		<path
   id="path146"
   class="st8"
   d="M167.5,123.7v-21.3l15.2-0.3v4.3l-10.4,0.2v4.5l9.5-0.2v4.3l-9.5,0.2v8.2    C172.3,123.6,167.5,123.7,167.5,123.7z M186,123.4v-21.3l15.2-0.3v4.3l-10.4,0.2v3.9l9.5-0.2v4.3l-9.5,0.2v4.6l10.4-0.2v4.2    L186,123.4z M202.9,115.7l4.8-0.1c0.2,2.2,1.7,3.3,4.1,3.3c2.6-0.1,4-0.8,4-2.3c0-1.2-0.7-1.8-2.6-2.2l-3.1-0.6    c-4.2-0.8-6.6-2.5-6.6-6.3c0-1.8,0.8-3.3,2.3-4.5s3.5-1.8,6-1.8s4.5,0.6,6,1.8c1.6,1.3,2.4,2.9,2.4,4.9l-4.8,0.1    c-0.1-1.5-1.4-2.7-3.7-2.6c-2.3,0-3.3,0.9-3.3,1.9c0,0.9,0.6,1.6,2.4,1.9l2.9,0.6c4.4,0.9,6.9,2.6,6.9,6.5c0,4-2.8,6.6-8.9,6.7    C206.3,123.2,203.2,120.4,202.9,115.7L202.9,115.7z M228.1,122.5v-17l-6.1,0.1v-4.3l17-0.3v4.3l-6.1,0.1v17L228.1,122.5    L228.1,122.5z M241.6,122.3V101l4.8-0.1v21.3C246.4,122.2,241.6,122.3,241.6,122.3z M256.4,122l-7.6-20.8v-0.3l5.4-0.1l4.9,15.5    h0.1l4.8-15.7l5.5-0.1v0.3l-7.5,21.1L256.4,122L256.4,122z M281.5,100.2l7.3,20.9v0.3l-5.3,0.1l-1.2-4l-7.9,0.2l-1.2,4.1l-5,0.1    v-0.3l7.3-21.1L281.5,100.2L281.5,100.2z M275.7,113.4l5.3-0.1l-2.6-8.2h-0.1L275.7,113.4L275.7,113.4z M291.2,121.3V100l4.8-0.1    v17l9.6-0.2v4.3L291.2,121.3L291.2,121.3z" />
	</g>
	<g
   id="g154">
		<circle
   id="circle150"
   class="st10"
   cx="233.6"
   cy="94.6"
   r="1.8" />
		<path
   id="path152"
   class="st11"
   d="M234.8,94.9l-0.5-0.2c-0.3-0.1-0.2-0.5-0.2-0.5l0.2-0.5l-0.5-0.2l-0.2,0.5    c-0.1,0.4-0.5,0.2-0.5,0.2l-0.5-0.2l-0.2,0.5l0.6,0.3c0.3,0.1,0.2,0.4,0.2,0.4l-0.3,0.6l0.5,0.2l0.3-0.6c0.1-0.2,0.4-0.1,0.4-0.1    l0.6,0.2L234.8,94.9L234.8,94.9z" />
	</g>
	<path
   id="path156"
   class="st19"
   d="M338.7,125.8L338.2,94l-207.8,2.5L133,229l207.2-7L338.7,125.8z M337.6,219.4l-114,3.8   l-1.7-95.3l114.2-2L337.6,219.4z M335.6,96.8l0.4,26.4l-202.2,3.4l-0.5-27.3C133.3,99.3,335.6,96.8,335.6,96.8z M133.9,129.4   l85.3-1.5l1.7,95.3l-85.1,2.8L133.9,129.4L133.9,129.4z" />
	<path
   id="path158"
   d="M206.5,195.2c-0.1-0.1-0.2-0.3-0.3-0.4L193.8,179c-0.5-0.6-1-1-1.7-1.3c-1.3-0.6-2.9-0.6-4.2,0.3l-11.4,7.7   l-0.3-15.8l22.3-14.2l0.4-0.3l0.4-0.2l2.1-1.3c1.2-0.8,1.9-2.1,1.9-3.7c0-2.4-2-4.3-4.3-4.2c-0.7,0-1.3,0.2-1.9,0.5l-2.2,1.4   l-0.5,0.3L172.6,162c-0.7,0.5-1.5,0.8-2.4,1c-0.5,0.1-1,0.2-1.6,0.2c-0.5,0-1.1,0-1.6-0.1c-1.8-0.3-3.4-1.3-4.5-2.6l-15.1-17.4   l-0.1-0.1l-1.7-1.9c0,0,0-0.1-0.1-0.1l-0.2-0.2c-0.8-0.8-1.9-1.4-3.2-1.3c-2.4,0-4.3,2-4.2,4.4c0,0.8,0.3,1.6,0.7,2.3l0.3,0.3h-0.1   l2,2.3l0.5,0.6l18.7,21.5l0.4,21.7c0,0,0.4,1.8,2.8,3.2l33.1,20.7c0.2,0.1,0.3,0.2,0.5,0.3c0.7,0.5,1.6,0.9,2.6,0.8   c2.3-0.1,4.2-2.1,4.1-4.4c0-1.7-1.1-3.2-2.5-3.8l-0.2-0.2L178.2,195l11.2-7.5l10.1,12.9c0.1,0.2,0.3,0.3,0.5,0.5   c0.8,1.3,2.1,2.1,3.7,2c2.3-0.1,4.2-2.1,4.1-4.4C207.8,197,207.3,195.9,206.5,195.2z" />
	<path
   id="path160"
   class="st18"
   d="M187.1,156.9c2.2-2.8,4.4-5.5,6.6-8.2l8.4-10.4l-9.8-5.3l-16.6,29.2c-0.1,0.1-0.2,0.3-0.3,0.4   c-0.2,0.4-0.4,0.8-0.8,1.5c3.7-0.5,6.9-1,10.4-1.4c-1.5,3.8-2.9,7.4-4.3,11.2c-1.1-1-2.1-1.9-3.1-2.9l-1.1-1.1v1.4   c0.1,4.8,0.2,9.7,0.3,14.4l13-8.7l-4.8-0.8c4.9-7.1,9.8-14,14.7-21C195.1,155.8,192,156.2,187.1,156.9L187.1,156.9z" />
	<g
   id="g166">
		
			<ellipse
   id="circle162"
   transform="matrix(0.6392 -0.7691 0.7691 0.6392 -85.3136 261.4993)"
   class="st10"
   cx="236"
   cy="221.7"
   rx="1.8"
   ry="1.8" />
		<path
   id="path164"
   class="st11"
   d="M236.8,222.6l-0.3-0.5c-0.2-0.3,0.2-0.5,0.2-0.5l0.5-0.3l-0.3-0.5l-0.5,0.3    c-0.3,0.2-0.5-0.2-0.5-0.2l-0.3-0.5l-0.5,0.3l0.3,0.6c0.1,0.3-0.1,0.4-0.1,0.4l-0.6,0.3l0.3,0.5l0.6-0.3c0.2-0.1,0.4,0.2,0.4,0.2    l0.3,0.6L236.8,222.6L236.8,222.6z" />
	</g>
</g>
<g
   id="vtopnice_taplas">
	<path
   id="path169"
   class="st22"
   d="M382,976l-242.5,7.5c-5.9,0.2-10.8-4.4-11-10.3l-2.2-72.5c-0.2-5.9,4.4-10.8,10.3-11l242.5-7.5   c5.9-0.2,10.8,4.4,11,10.3l2.2,72.5C392.5,970.9,387.9,975.8,382,976L382,976z" />
	<path
   id="path171"
   class="st23"
   d="M384,974.3l-244.4,7.6c-4.4,0.1-8.1-3.3-8.2-7.7l-2.3-74.4c-0.1-4.4,3.3-8.1,7.7-8.2l244.4-7.6   c4.4-0.1,8.1,3.3,8.2,7.7l2.3,74.4C391.9,970.5,388.4,974.2,384,974.3z" />
	<path
   id="path173"
   class="st8"
   d="M383.1,976l-242.5,7.5c-5.9,0.2-10.8-4.4-11-10.3l-2.2-72.5c-0.2-5.9,4.4-10.8,10.3-11l242.5-7.5   c5.9-0.2,10.8,4.4,11,10.3l2.2,72.5C393.6,970.9,389,975.8,383.1,976L383.1,976z M137.8,893.1c-4,0.1-7.2,3.5-7,7.5l2.2,72.5   c0.1,4,3.5,7.2,7.5,7l242.5-7.5c4-0.1,7.2-3.5,7-7.5l-2.2-72.5c-0.1-4-3.5-7.2-7.5-7L137.8,893.1L137.8,893.1z" />
	<path
   id="path175"
   class="st8"
   d="M157.8,950.4l-7.6-27l6-0.2l5.3,20.6l4-20.9l6.1-0.2l-5.9,27.4L157.8,950.4L157.8,950.4z    M173.7,930.7v-0.4c-0.2-4.9,3.1-8.2,9.3-8.4c6.7-0.2,9.7,2.7,9.9,9v0.7l-5.6,0.2c-0.1-3.6-1.2-5.2-4.1-5.1h-0.3   c-2.3,0.1-3.5,1.4-3.5,3.1v0.2c0.1,2,0.9,3,4.9,3.4c5.9,0.6,9,2.5,9.2,7.6v0.3c0.2,5.2-3.2,8.4-9.6,8.6c-6.4,0.2-9.9-2.6-10.1-9.1   v-0.3l5.6-0.2c0.1,3.4,1.5,4.8,4.2,4.7h0.3c2.6-0.1,3.9-1.5,3.8-3.3v-0.2c-0.1-1.9-1.1-3-5.1-3.4   C176.7,937.6,173.8,935.6,173.7,930.7L173.7,930.7z M207.3,948.8l-5.6,0.2l-0.7-22.3l-6.3,0.2l-0.2-4.9l18.2-0.6l0.2,4.9l-6.3,0.2   L207.3,948.8L207.3,948.8z M214.6,935.7v-1.4c-0.3-9.4,2.9-13.4,9.9-13.6c7.1-0.2,10.5,3.6,10.8,13v1.4c0.3,9.4-2.9,13.4-10,13.7   C218.3,948.9,214.9,945.1,214.6,935.7L214.6,935.7z M225.4,943.8c3.5-0.1,4.4-3.2,4.2-8.6v-1.4c-0.2-5.4-1.2-8.4-4.7-8.3h-0.3   c-3.5,0.1-4.4,3.2-4.2,8.6v1.4c0.2,5.4,1.3,8.4,4.8,8.3H225.4z M244.6,947.6l-5.6,0.2l-0.8-27.1l8.9-0.3c4.4-0.1,9.5,0.9,9.7,8.1   v0.7c0.2,7.2-4.8,8.5-9.2,8.6l-3.3,0.1L244.6,947.6z M247.7,932.9c1.5,0,3.5-0.7,3.4-3.8v-0.3c-0.1-3.1-2.1-3.6-3.6-3.5l-3.5,0.1   l0.2,7.7L247.7,932.9L247.7,932.9z M280.1,946.5l-6,0.2l-9.3-16.6l0.3,5.5l0.4,11.4l-5.3,0.2l-0.8-27.1l6-0.2l9.3,16.6l-0.3-5.5   l-0.4-11.4l5.4-0.2L280.1,946.5L280.1,946.5z M289.8,946.2l-5.6,0.2l-0.8-27.1l5.6-0.2L289.8,946.2z M303.3,941.4h0.3   c2.7-0.1,3.7-2,3.6-5l5.6-0.2v0.3c0.2,6.7-3,9.5-9.4,9.7c-7.1,0.2-10.3-3.6-10.6-13v-1.4c-0.3-9.4,2.7-13.4,9.8-13.6   c6.4-0.2,9.8,2.4,10,9.2v1.3l-5.6,0.2c-0.1-3.7-1-5.9-3.9-5.8h-0.3c-3.6,0.1-4.4,3.2-4.2,8.6v1.4   C298.7,938.5,299.7,941.5,303.3,941.4z M332.2,917.8l0.2,4.9l-11,0.3l0.2,6l9.2-0.3l0.2,4.9l-9.2,0.3l0.2,6.5l11-0.3l0.2,4.9   l-16.6,0.5l-0.8-27.1L332.2,917.8L332.2,917.8z" />
	<g
   id="g181">
		<path
   id="path177"
   class="st8"
   d="M354.6,967.2l-13.3,0.5l10.8-37.6L339,893.2l13.3-0.4l13.1,36.8L354.6,967.2z" />
		<path
   id="path179"
   class="st8"
   d="M372,966.7l-13.2,0.4l10.7-37.6l-13-36.8l13.2-0.4l13.1,36.8L372,966.7z" />
	</g>
	<g
   id="g187">
		
			<ellipse
   id="circle183"
   transform="matrix(0.6392 -0.7691 0.7691 0.6392 -655.0394 547.7602)"
   class="st10"
   cx="256.2"
   cy="971.9"
   rx="2.6"
   ry="2.6" />
		<path
   id="path185"
   class="st11"
   d="M257.3,973.3l-0.4-0.7c-0.2-0.4,0.3-0.7,0.3-0.7l0.7-0.4l-0.4-0.7l-0.7,0.4    c-0.5,0.3-0.7-0.2-0.7-0.2l-0.4-0.7l-0.7,0.4l0.4,0.8c0.2,0.4-0.1,0.5-0.1,0.5l-0.9,0.5l0.4,0.7l0.9-0.5c0.3-0.1,0.5,0.2,0.5,0.2    l0.4,0.8L257.3,973.3L257.3,973.3z" />
	</g>
	<g
   id="g193">
		
			<ellipse
   id="circle189"
   transform="matrix(0.976 -0.2179 0.2179 0.976 -188.727 76.9451)"
   class="st10"
   cx="254.5"
   cy="894.2"
   rx="2.6"
   ry="2.6" />
		<path
   id="path191"
   class="st11"
   d="M254.5,896l0.1-0.8c0.1-0.5,0.7-0.4,0.7-0.4l0.8,0.1l0.1-0.8l-0.8-0.1    c-0.6-0.1-0.4-0.6-0.4-0.6l0.1-0.8l-0.8-0.1l-0.2,0.9c-0.1,0.4-0.4,0.3-0.4,0.3l-1-0.2l-0.1,0.8l1,0.2c0.3,0.1,0.3,0.5,0.3,0.5    l-0.2,0.9L254.5,896L254.5,896z" />
	</g>
</g>
<g
   id="program_tabla">
	<path
   id="path196"
   class="st24"
   d="m 369,605.7 -258.9,6.5 c -2.9,0.1 -5.7,-1.4 -7.2,-3.9 -1.5,-2.5 -1.6,-5.7 -0.2,-8.2 L 226.6,372.6 c 1.4,-2.6 4.1,-4.2 7,-4.3 2.9,-0.1 5.7,1.4 7.2,3.9 l 135.1,221 c 1.5,2.5 1.6,5.7 0.2,8.2 -1.4,2.6 -4.1,4.2 -7.1,4.3 z M 124,595.3 354.3,589.5 234.2,392.9 Z"
   inkscape:connector-curvature="0"
   style="fill:#636363" />
	<path
   id="path198"
   class="st25"
   d="m 371.5,604.3 -258.9,6.5 c -2.9,0.1 -5.7,-1.4 -7.2,-3.9 -1.5,-2.5 -1.6,-5.7 -0.2,-8.2 L 229,371.2 c 1.4,-2.6 4.1,-4.2 7,-4.3 2.9,-0.1 5.7,1.4 7.2,3.9 l 135.1,221 c 1.5,2.5 1.6,5.7 0.2,8.2 -1.3,2.6 -4,4.3 -7,4.3 z M 126.5,594 356.8,588.2 236.7,391.6 Z"
   inkscape:connector-curvature="0"
   style="fill:#e30613;stroke:#ffffff;stroke-width:0.75;stroke-miterlimit:10" />
	<path
   id="path200"
   class="st26"
   d="m 236.6,387.3 124,203 -237.8,5.9"
   inkscape:connector-curvature="0"
   style="fill:#f6e71b" />
	<path
   id="path202"
   class="st19"
   d="m 301.6,535.3 -34.4,1.3 -0.3,-7.5 -20.2,12.7 21.2,11.2 -0.3,-7.5 34.3,-1.4 z"
   inkscape:connector-curvature="0"
   style="fill:#1d1d1b" />
	<path
   id="path204"
   class="st19"
   d="m 260.9,500.8 c 3.3,2.6 5.3,6.3 6,11.2 l -7.3,0.3 12.8,20.2 11.1,-21.2 -7.7,0.3 c -0.7,-5.9 -2.8,-10.8 -6.1,-14.7 l 5.1,-5.5 5.5,5.1 5.3,-23.3 -22.8,7.1 5.5,5.1 -5.5,6 c -7.1,-3.8 -15.3,-4 -20.4,-3.6 l -1.3,-42.8 7.5,-0.3 -12.8,-20.2 -11.1,21.2 7.5,-0.3 2.5,74.5 c -5.6,11.9 -9.1,14.7 -15.7,12.7 -5,-1.5 -4.9,-5.6 -1.9,-18.2 0.3,-1.3 0.6,-2.6 0.9,-3.8 2.3,-10.5 -4.9,-16.7 -11,-19.4 l 2.1,-7.5 -23.1,6.1 16.8,17 1.8,-6.8 c 0.6,0.4 1.3,0.8 1.9,1.3 2.6,2.1 3.5,4.4 2.8,7.4 -0.3,1.2 -0.6,2.5 -0.9,3.7 -1.3,5.3 -2.5,10.7 -2.3,15.5 l -10.2,0.4 -0.3,-7.5 -20.2,12.8 21.2,11.1 -0.3,-7.5 13,-0.5 c 2,2.5 4.8,3.8 7.2,4.5 2.3,0.7 4.6,1 6.7,0.9 3.9,-0.2 7.3,-1.6 10.4,-4.3 l 1.8,-1.8 0.8,19.4 8.9,-0.3 -2.3,-58.2 c 4.5,-0.6 12.6,-0.5 18.1,3.9 z"
   inkscape:connector-curvature="0"
   style="fill:#1d1d1b" />
	<g
   id="g208">
		<path
   id="path206"
   class="st19"
   d="m 152,590.2 -0.9,-25.5 11.6,-0.4 c 2.6,-0.1 4.6,0.6 6.2,2.2 1.6,1.5 2.4,3.5 2.5,5.9 0.1,2.5 -0.6,4.5 -2.1,6.2 -1.5,1.7 -3.5,2.5 -6,2.6 l -5.9,0.2 0.3,8.5 z m 5.2,-13.9 4.7,-0.2 c 2.5,-0.1 3.7,-1.3 3.6,-3.6 -0.1,-2.2 -1.5,-3.3 -3.8,-3.2 l -4.7,0.2 z m 39.9,11.9 v 0.4 l -6.7,0.2 -5.8,-8.8 -3.6,0.1 0.3,9 -5.7,0.2 -0.9,-25.5 11.7,-0.4 c 2.6,-0.1 4.8,0.6 6.4,2.1 1.7,1.5 2.5,3.4 2.6,5.7 0.1,3.6 -1.6,6.5 -4.8,7.9 z m -16.5,-19.5 0.2,6.3 5.6,-0.2 c 2.2,-0.1 3.1,-1.6 3,-3.4 -0.1,-1.7 -1.2,-3 -3.2,-2.9 z m 20.4,-2.5 c 2.1,-2.5 5.1,-3.9 9.1,-4 4,-0.1 7,1 9.3,3.4 2.2,2.4 3.4,5.5 3.6,9.3 0.1,3.8 -0.8,7 -2.9,9.5 -2.1,2.5 -5,3.9 -9,4 -4,0.1 -7.1,-1 -9.3,-3.3 -2.2,-2.4 -3.4,-5.5 -3.5,-9.3 -0.3,-3.9 0.6,-7.1 2.7,-9.6 z m 3,9.3 c 0.2,5.1 2.6,7.8 6.8,7.7 4.2,-0.2 6.5,-3 6.3,-8.1 -0.2,-5.1 -2.6,-7.8 -6.8,-7.7 -4.3,0.1 -6.5,3 -6.3,8.1 z m 24.6,8.5 c -2.2,-2.4 -3.4,-5.5 -3.5,-9.3 -0.1,-3.8 0.8,-7 2.9,-9.6 2.1,-2.5 5,-3.9 9,-4 3.2,-0.1 5.8,0.7 7.9,2.4 2.1,1.7 3.3,3.8 3.7,6.4 l -5.8,0.2 c -0.5,-2.3 -2.3,-4 -5.6,-3.8 -4.2,0.2 -6.4,3 -6.2,8.2 0.2,5.1 2.6,7.8 6.8,7.7 3,-0.1 4.8,-1.5 5.4,-4.1 l -4.8,0.2 -0.2,-5.1 10.8,-0.4 0.1,2.9 c 0.1,3.4 -0.8,6.1 -2.9,8.3 -2.1,2.1 -4.8,3.2 -8.2,3.4 -4,0.1 -7.1,-1 -9.4,-3.4 z m 45.9,1.4 v 0.4 l -6.7,0.2 -5.8,-8.8 -3.6,0.1 0.3,9 -5.7,0.2 -0.9,-25.5 11.7,-0.4 c 2.6,-0.1 4.8,0.6 6.4,2.1 1.7,1.5 2.5,3.4 2.6,5.7 0.1,3.6 -1.6,6.5 -4.8,7.9 z m -16.5,-19.5 0.2,6.3 5.6,-0.2 c 2.2,-0.1 3.1,-1.6 3,-3.4 -0.1,-1.7 -1.2,-3 -3.2,-2.9 z m 32.4,-6.3 9.7,24.8 v 0.4 l -6.3,0.2 -1.7,-4.8 -9.5,0.3 -1.3,4.9 -6.1,0.2 v -0.4 l 7.8,-25.5 z m -6.4,15.9 6.3,-0.2 -3.5,-9.8 h -0.1 z m 19,9.2 -0.9,-25.5 6.3,-0.2 7.6,11.4 h 0.1 l 6.8,-12 6.2,-0.2 0.9,25.5 -5.5,0.2 -0.6,-16.5 h -0.1 l -7.2,12.5 h -0.4 l -8.1,-12.1 H 308 l 0.6,16.6 z"
   inkscape:connector-curvature="0"
   style="fill:#1d1d1b" />
	</g>
</g>
<g
   id="g157">
	<polygon
   class="st27"
   points="144.6,232.9 259.9,90.1 316.4,89 204.3,231  "
   id="polygon132" />
	<g
   id="g155">
		<defs
   id="defs135">
			<polygon
   id="SVGID_1_"
   points="144.6,232.9 259.9,90.1 316.4,89 204.3,231    " />
		</defs>
		<clipPath
   id="SVGID_2_">
			<use
   xlink:href="#SVGID_1_"
   style="overflow:visible;"
   id="use137" />
		</clipPath>
		<g
   class="st28"
   clip-path="url(#SVGID_2_)"
   id="g153">
			<g
   id="g142">
				<rect
   x="73.2"
   y="326"
   transform="matrix(0.6191 -0.7853 0.7853 0.6191 -250.5258 195.4574)"
   width="6"
   height="60"
   id="rect140" />
			</g>
			<g
   id="g147">
				<path
   d="M109.1,362.7L62,325.5l7.5-9.5l47.1,37.1L109.1,362.7z M124.1,343.6L77,306.5l7.5-9.5l47.1,37.1L124.1,343.6z       M139.2,324.6L92,287.4l7.5-9.5l47.1,37.1L139.2,324.6z M154.2,305.5l-47.1-37.1l7.5-9.5l47.1,37.1L154.2,305.5z M169.2,286.5      l-47.1-37.1l7.5-9.5l47.1,37.1L169.2,286.5z M184.2,267.4l-47.1-37.1l7.5-9.5l47.1,37.1L184.2,267.4z M199.2,248.4l-47.1-37.1      l7.5-9.5l47.1,37.1L199.2,248.4z M214.2,229.4l-47.1-37.1l7.5-9.5l47.1,37.1L214.2,229.4z M229.2,210.3l-47.1-37.1l7.5-9.5      l47.1,37.1L229.2,210.3z M244.2,191.3l-47.1-37.1l7.5-9.5l47.1,37.1L244.2,191.3z M259.3,172.2l-47.1-37.1l7.5-9.5l47.1,37.1      L259.3,172.2z M274.3,153.2L227.2,116l7.5-9.5l47.1,37.1L274.3,153.2z M289.3,134.1L242.2,97l7.5-9.5l47.1,37.1L289.3,134.1z       M304.3,115.1L257.2,78l7.5-9.5l47.1,37.1L304.3,115.1z M319.3,96.1l-47.1-37.1l7.5-9.5l47.1,37.1L319.3,96.1z M334.3,77      l-47.1-37.1l7.5-9.5l47.1,37.1L334.3,77z"
   id="path145" />
			</g>
			<g
   id="g151">
				<rect
   x="324.6"
   y="7"
   transform="matrix(0.6191 -0.7853 0.7853 0.6191 95.7175 271.4121)"
   width="6"
   height="60"
   id="rect149" />
			</g>
		</g>
	</g>
</g>
<g
   id="g184">
	<polygon
   class="st27"
   points="271.4,417.4 163.3,610.8 231.2,609 305.5,473.2  "
   id="polygon159" />
	<g
   id="g182">
		<defs
   id="defs162">
			<polygon
   id="SVGID_3_"
   points="271.4,417.4 163.3,610.8 231.2,609 305.5,473.2    " />
		</defs>
		<clipPath
   id="SVGID_4_">
			<use
   xlink:href="#SVGID_3_"
   style="overflow:visible;"
   id="use164" />
		</clipPath>
		<g
   class="st29"
   clip-path="url(#SVGID_4_)"
   id="g180">
			<g
   id="g169">
				<polygon
   points="163.7,735.4 103.5,702.3 106.3,697 166.6,730.2     "
   id="polygon167" />
			</g>
			<g
   id="g174">
				<path
   d="M172.4,719.5l-60.3-33.1l5.8-10.6l60.3,33.1L172.4,719.5z M184,698.2l-60.3-33.1l5.8-10.6l60.3,33.1L184,698.2z       M195.6,676.9l-60.3-33.1l5.8-10.6l60.3,33.1L195.6,676.9z M207.3,655.7L147,622.5l5.8-10.6l60.3,33.1L207.3,655.7z       M218.9,634.4l-60.3-33.1l5.8-10.6l60.3,33.1L218.9,634.4z M230.5,613.1l-60.3-33.1l5.8-10.6l60.3,33.1L230.5,613.1z       M242.1,591.8l-60.3-33.1l5.8-10.6l60.3,33.1L242.1,591.8z M253.7,570.5l-60.3-33.1l5.8-10.6l60.3,33.1L253.7,570.5z       M265.3,549.2l-60.3-33.1l5.8-10.6l60.3,33.1L265.3,549.2z M276.9,527.9l-60.3-33.1l5.8-10.6l60.3,33.1L276.9,527.9z       M288.6,506.6l-60.3-33.1l5.8-10.6l60.3,33.1L288.6,506.6z M300.2,485.4l-60.3-33.1l5.8-10.6l60.3,33.1L300.2,485.4z       M311.8,464.1l-60.3-33.1l5.8-10.6l60.3,33.1L311.8,464.1z M323.4,442.8l-60.3-33.1l5.8-10.6l60.3,33.1L323.4,442.8z M335,421.5      l-60.3-33.1l5.8-10.6l60.3,33.1L335,421.5z M346.6,400.2l-60.3-33.1l5.8-10.6l60.3,33.1L346.6,400.2z"
   id="path172" />
			</g>
			<g
   id="g178">
				<polygon
   points="358.2,378.9 298,345.8 300.9,340.5 361.1,373.6     "
   id="polygon176" />
			</g>
		</g>
	</g>
</g>
<g
   id="g213">
	<g
   id="g188">
		<path
   class="st27"
   d="M191.8,859l158.9-179.4c-10.6-15.3-23.6-29-39.8-38.3l-162.1,183C160.3,838.8,175,850.7,191.8,859z"
   id="path186" />
	</g>
	<g
   id="g211">
		<defs
   id="defs191">
			<path
   id="SVGID_5_"
   d="M191.8,859l158.9-179.4c-10.6-15.3-23.6-29-39.8-38.3l-162.1,183C160.3,838.8,175,850.7,191.8,859z" />
		</defs>
		<clipPath
   id="SVGID_6_">
			<use
   xlink:href="#SVGID_5_"
   style="overflow:visible;"
   id="use193" />
		</clipPath>
		<g
   class="st30"
   clip-path="url(#SVGID_6_)"
   id="g209">
			<g
   id="g198">
				<rect
   x="121"
   y="870.3"
   transform="matrix(0.6468 -0.7627 0.7627 0.6468 -642.9575 412.6636)"
   width="6"
   height="60.3"
   id="rect196" />
			</g>
			<g
   id="g203">
				<path
   d="M156.9,908.4l-46-39l7.9-9.3l46,39L156.9,908.4z M172.6,889.8l-46-39l7.9-9.3l46,39L172.6,889.8z M188.4,871.2l-46-39      l7.9-9.3l46,39L188.4,871.2z M204.2,852.6l-46-39l7.9-9.3l46,39L204.2,852.6z M220,834l-46-39l7.9-9.3l46,39L220,834z       M235.7,815.4l-46-39l7.9-9.3l46,39L235.7,815.4z M251.5,796.8l-46-39l7.9-9.3l46,39L251.5,796.8z M267.3,778.2l-46-39l7.9-9.3      l46,39L267.3,778.2z M283.1,759.6l-46-39l7.9-9.3l46,39L283.1,759.6z M298.8,741l-46-39l7.9-9.3l46,39L298.8,741z M314.6,722.4      l-46-39l7.9-9.3l46,39L314.6,722.4z M330.4,703.8l-46-39l7.9-9.3l46,39L330.4,703.8z M346.1,685.2l-46-39l7.9-9.3l46,39      L346.1,685.2z M361.9,666.6l-46-39l7.9-9.3l46,39L361.9,666.6z M377.7,648l-46-39l7.9-9.3l46,39L377.7,648z M393.5,629.4l-46-39      l7.9-9.3l46,39L393.5,629.4z"
   id="path201" />
			</g>
			<g
   id="g207">
				<rect
   x="385.2"
   y="558.8"
   transform="matrix(0.6468 -0.7627 0.7627 0.6468 -312.1039 504.1044)"
   width="6"
   height="60.3"
   id="rect205" />
			</g>
		</g>
	</g>
</g>
<g
   id="g239">
	<polygon
   class="st27"
   points="300.5,884.7 162.8,983 231.6,980.8 365.4,882.7  "
   id="polygon215" />
	<g
   id="g237">
		<defs
   id="defs218">
			<polygon
   id="SVGID_7_"
   points="300.5,884.7 162.8,983 231.6,980.8 365.4,882.7    " />
		</defs>
		<clipPath
   id="SVGID_8_">
			<use
   xlink:href="#SVGID_7_"
   style="overflow:visible;"
   id="use220" />
		</clipPath>
		<g
   class="st31"
   clip-path="url(#SVGID_8_)"
   id="g235">
			<g
   id="g225">
				<rect
   x="128.1"
   y="995.9"
   transform="matrix(0.8105 -0.5858 0.5858 0.8105 -576.1024 271.2589)"
   width="6"
   height="60"
   id="rect223" />
			</g>
			<g
   id="g229">
				<path
   d="M161,1041.4l-35.1-48.6l9.8-7.1l35.1,48.6L161,1041.4z M180.6,1027.2l-35.1-48.6l9.8-7.1l35.1,48.6L180.6,1027.2z       M200.3,1013l-35.1-48.6l9.8-7.1l35.1,48.6L200.3,1013z M219.9,998.8l-35.1-48.6l9.8-7.1l35.1,48.6L219.9,998.8z M239.6,984.5      l-35.1-48.6l9.8-7.1l35.1,48.6L239.6,984.5z M259.2,970.3l-35.1-48.6l9.8-7.1l35.1,48.6L259.2,970.3z M278.9,956.1l-35.1-48.6      l9.8-7.1l35.1,48.6L278.9,956.1z M298.5,941.9l-35.1-48.6l9.8-7.1l35.1,48.6L298.5,941.9z M318.2,927.7l-35.1-48.6l9.8-7.1      l35.1,48.6L318.2,927.7z M337.9,913.5l-35.1-48.6l9.8-7.1l35.1,48.6L337.9,913.5z M357.5,899.3l-35.1-48.6l9.8-7.1l35.1,48.6      L357.5,899.3z M377.2,885.1L342,836.5l9.8-7.1L387,878L377.2,885.1z M396.8,870.9l-35.1-48.6l9.8-7.1l35.1,48.6L396.8,870.9z       M416.5,856.7l-35.1-48.6l9.8-7.1l35.1,48.6L416.5,856.7z M436.1,842.5L401,793.9l9.8-7.1l35.1,48.6L436.1,842.5z M455.8,828.3      l-35.1-48.6l9.8-7.1l35.1,48.6L455.8,828.3z"
   id="path227" />
			</g>
			<g
   id="g233">
				<rect
   x="457.3"
   y="758"
   transform="matrix(0.8105 -0.5858 0.5858 0.8105 -374.371 418.9803)"
   width="6"
   height="60"
   id="rect231" />
			</g>
		</g>
	</g>
</g>
<polygon
   class="st27"
   points="351.9,378 519.1,248.6 584.8,246.6 423.7,376.1 "
   id="polygon241" />
<polygon
   class="st32"
   points="338.8,381.6 351.9,378 423.7,376.1 406.1,379.7 "
   id="polygon243" />
<g
   id="g269">
	<path
   d="M407.7,374.3l-10.3-12.6l5.7-4.7c1.3-1,2.6-1.5,4-1.3c1.4,0.2,2.6,0.8,3.6,2.1c1,1.2,1.4,2.5,1.3,4c-0.1,1.4-0.8,2.6-2,3.7   l-2.9,2.4l3.4,4.2L407.7,374.3z M405.1,365.3l2.3-1.9c1.2-1,1.4-2.1,0.4-3.2c-0.9-1.1-2-1.1-3.2-0.2l-2.3,1.9L405.1,365.3z"
   id="path245" />
	<path
   d="M430,355.9l0.1,0.2l-3.3,2.7l-6.4-2.2l-1.8,1.4l3.6,4.5l-2.8,2.3l-10.3-12.6l5.8-4.7c1.3-1.1,2.7-1.5,4.1-1.4   c1.4,0.1,2.6,0.8,3.5,1.9c1.5,1.8,1.7,3.9,0.6,5.8L430,355.9z M414,352.3l2.5,3.1l2.8-2.3c1.1-0.9,1-2,0.2-2.9   c-0.7-0.8-1.8-1.1-2.8-0.2L414,352.3z"
   id="path247" />
	<path
   d="M431.6,354.9l-10.3-12.6l9-7.4l2.1,2.5l-6.2,5.1l1.9,2.3l5.6-4.6l2.1,2.5l-5.6,4.6l2.2,2.7l6.2-5.1l2,2.5L431.6,354.9z"
   id="path249" />
	<path
   d="M438.1,342.3l2.9-2.3c1.2,1.2,2.6,1.1,4.1,0c1.6-1.3,2-2.4,1.3-3.2c-0.6-0.7-1.3-0.7-2.6-0.1l-2.2,1.1   c-2.9,1.5-5.2,1.6-7-0.6c-0.9-1.1-1.1-2.3-0.8-3.7c0.4-1.4,1.3-2.7,2.7-3.9c1.5-1.2,3-1.8,4.5-1.8c1.6,0,2.9,0.6,3.9,1.8l-2.9,2.3   c-0.8-0.9-2.1-0.9-3.5,0.2c-1.4,1.1-1.6,2.1-1.1,2.7c0.5,0.6,1.1,0.7,2.4,0l2-1c3.1-1.6,5.4-1.8,7.3,0.5c2,2.4,1.5,5.2-2.1,8.2   C443.8,345.2,440.6,345,438.1,342.3z"
   id="path251" />
	<path
   d="M456.6,334.4l-8.2-10.1l-3.6,3l-2.1-2.5l10.1-8.3l2.1,2.5l-3.6,3l8.2,10.1L456.6,334.4z"
   id="path253" />
	<path
   d="M460.3,310.4l14.5,8.9l0.1,0.2l-3.1,2.6l-2.7-1.8l-4.7,3.8l1.2,3l-3,2.4l-0.1-0.2l-5.8-16L460.3,310.4z M463.2,320.9   l3.1-2.6l-5.5-3.7l-0.1,0.1L463.2,320.9z"
   id="path255" />
	<path
   d="M478.6,316.5l-14.7-8.8l-0.1-0.2l3.2-2.6l10.5,6.9l0.1-0.1l-4.7-11.6l3.3-2.7l0.1,0.2l5.7,16.1L478.6,316.5z"
   id="path257" />
	<path
   d="M487.9,308.9l-10.3-12.6l2.8-2.3l8.3,10.1l5.7-4.7l2.1,2.5L487.9,308.9z"
   id="path259" />
	<path
   d="M497.5,299.4c-1.4-0.2-2.5-0.8-3.4-1.9l2.8-2.3c0.8,0.9,1.6,0.9,2.6,0.1c1-0.8,1-1.8,0.2-2.7l-7.1-8.7l2.9-2.3l7.1,8.7   c1,1.2,1.4,2.5,1.3,3.9c-0.1,1.4-0.9,2.6-2.3,3.8C500.3,299.1,498.9,299.6,497.5,299.4z"
   id="path261" />
	<path
   d="M508.2,292.4l-10.3-12.6l9-7.4l2.1,2.5l-6.2,5.1l1.9,2.3l5.6-4.6l2.1,2.5l-5.6,4.6l2.2,2.7l6.2-5.1l2,2.5L508.2,292.4z"
   id="path263" />
	<path
   d="M519.2,283.4l-10.3-12.6l3.3-2.7l11.4,4.4l0.1-0.1l-6.7-8.2l2.8-2.3l10.3,12.6l-3.4,2.7l-11.3-4.4l-0.1,0.1l6.7,8.2   L519.2,283.4z"
   id="path265" />
	<path
   d="M524.5,260.7c0.1-2.1,1.1-3.9,3.1-5.5c2-1.6,4-2.2,6-1.9c2.1,0.3,3.9,1.5,5.4,3.3c1.5,1.9,2.3,3.9,2.2,6   c-0.1,2.1-1.1,3.9-3,5.5c-2,1.6-4,2.2-6,1.9c-2.1-0.3-3.8-1.5-5.4-3.4C525.2,264.8,524.5,262.8,524.5,260.7z M529.6,264.3   c2.1,2.5,4.4,3,6.4,1.3s2.1-4,0.1-6.6s-4.4-3-6.4-1.3C527.6,259.5,527.6,261.8,529.6,264.3z"
   id="path267" />
</g>
</svg>