<?xml version="1.0" encoding="UTF-8" standalone="no"?>
<svg
   xmlns:dc="http://purl.org/dc/elements/1.1/"
   xmlns:cc="http://creativecommons.org/ns#"
   xmlns:rdf="http://www.w3.org/1999/02/22-rdf-syntax-ns#"
   xmlns:svg="http://www.w3.org/2000/svg"
   xmlns="http://www.w3.org/2000/svg"
   viewBox="0 0 774.27575 183.54779"
   height="183.54779"
   width="774.27576"
   id="svg2"
   version="1.1">
  <metadata
     id="metadata8">
    <rdf:RDF>
      <cc:Work
         rdf:about="">
        <dc:format>image/svg+xml</dc:format>
        <dc:type
           rdf:resource="http://purl.org/dc/dcmitype/StillImage" />
        <dc:title></dc:title>
      </cc:Work>
    </rdf:RDF>
  </metadata>
  <defs
     id="defs6" />
  <path
     id="path12"
     d="m 84.195766,183.48349 c -0.528,-0.0725 -2.328,-0.28807 -4,-0.47895 -19.41947,-2.21704 -39.2122,-11.94045 -53.4768,-26.2711 -4.45141,-4.47201 -7.91405,-8.72155 -11.51063,-14.12644 -7.44427,-11.18716 -12.29876,-23.76405 -14.42418002,-37.36986 -0.9693,-6.204941 -1.05814,-20.142321 -0.16501,-25.885811 C 2.413326,67.81344 5.041776,59.56481 10.042256,49.77956 c 9.41543,-18.42471 24.99418,-33.24959 43.96194,-41.8345902 10.8443,-4.90824 21.83961,-7.49089004 33.45901,-7.85906004 5.13892,-0.16283 5.92525,-0.12056 6.65528,0.35777 1.95434,1.28053004 2.6031,3.85719004 1.49255,5.92791004 -0.89307,1.66523 -2.30182,2.25974 -5.3547,2.25974 -6.08948,0 -15.35278,1.4348502 -21.78828,3.3749302 -21.39461,6.44974 -38.57458,20.26601 -49.57817,39.87117 -7.40043,13.1854 -11.1895,30.095179 -10.09499,45.051779 1.49,20.361141 9.46128,38.291041 23.3949,52.622461 13.24996,13.62824 30.02283,22.09834 48.96621,24.72734 5.95459,0.82639 16.31557,0.74629 22.353554,-0.1728 27.27304,-4.15148 50.16135,-20.63887 62.46328,-44.99489 5.63488,-11.15624 8.93919,-24.32879 8.94413,-35.655571 0.001,-3.12663 0.53167,-4.37831 2.31588,-5.46615 2.38038,-1.45134 5.59682,-0.13479 6.33089,2.59134 0.38278,1.42152 -0.0882,9.891901 -0.82305,14.802911 -5.51364,36.84676 -32.92129,66.8911 -69.10492,75.753 -7.04188,1.72466 -11.6822,2.26298 -20.480004,2.37587 -4.4,0.0565 -8.432,0.0433 -8.96,-0.0292 z m -0.8,-29.4151 c -31.11904,-4.2685 -54.4,-30.84734 -54.4,-62.106071 0,-18.912949 8.11767,-36.328139 22.56,-48.398969 10.8686,-9.08391 25.10154,-14.45202 38.31791,-14.45202 3.24304,0 3.7758,0.0787 4.52533,0.66825 1.79352,1.41078 2.28262,3.7158 1.21203,5.71202 -0.85468,1.59365 -2.32473,2.2585 -5.01028,2.26597 -7.01765,0.0195 -15.92177,2.25953 -22.89849,5.76056 -22.0004,11.04013 -33.88323,35.635069 -28.73909,59.48381 4.48703,20.80232 20.73061,37.00911 41.71259,41.61812 16.65964,3.65953 34.689444,-1.31294 47.607944,-13.12988 10.39892,-9.51221 16.73562,-22.97758 17.41841,-37.013771 0.21209,-4.36003 0.58989,-5.37664 2.41073,-6.48681 2.41963,-1.47528 5.68819,-0.0926 6.31121,2.66981 0.3616,1.60327 -0.18555,9.05888 -0.96561,13.157751 -1.73312,9.10676 -6.13135,18.76767 -12.09815,26.57416 -2.08624,2.72946 -7.14665,7.89418 -9.96453,10.16992 -7.20755,5.82085 -16.42454,10.36079 -25.18369,12.40452 -6.608564,1.54195 -16.225334,2.00669 -22.816314,1.10263 z m 628.480004,-9.07262 v -1.32445 h 1.3904 c 1.4103,0 2.12186,-0.47131 2.5559,-1.69301 0.125,-0.35174 -0.65942,-2.68573 -2.03136,-6.04439 -1.22921,-3.00926 -2.23494,-5.5954 -2.23494,-5.74699 0,-0.15158 0.63766,-0.27561 1.41702,-0.27561 h 1.417 l 0.69395,1.84 c 0.38166,1.012 1.05865,2.81734 1.50445,4.01187 0.44579,1.19452 0.85971,2.12266 0.91987,2.06252 0.0994,-0.0994 0.54374,-1.24334 2.4216,-6.23439 0.63155,-1.67857 0.63331,-1.68 2.04909,-1.68 0.77936,0 1.41702,0.11908 1.41702,0.26462 0,0.14554 -1.23318,3.27754 -2.74042,6.96 -3.29702,8.0553 -3.81004,8.73365 -6.81084,9.00575 l -1.96874,0.17852 z m -367.2,-3.35368 c -2.80979,-0.92899 -4.66627,-2.40954 -6.10963,-4.87246 -1.53895,-2.62602 -1.71879,-4.6173 -1.7248,-19.09831 l -0.006,-13.36 h 3.65827 3.65831 l 0.10169,13.52 c 0.0939,12.48196 0.14803,13.61322 0.70487,14.7341 0.80035,1.611 2.11164,2.25561 4.60019,2.26131 2.3088,0.005 3.4103,-0.60163 4.31616,-2.37815 0.50653,-0.99332 0.55955,-2.37796 0.56,-14.61726 v -13.52 h 3.84 3.84 l -0.003,12.88 c 0,7.46496 -0.14391,13.75448 -0.33898,14.96 -0.69993,4.32554 -2.93257,7.51947 -6.30829,9.02435 -1.91267,0.85266 -8.73072,1.14738 -10.7903,0.46642 z m 224.48298,-0.48448 c -3.42128,-1.83485 -3.43165,-8.78545 -0.016,-10.74754 2.29635,-1.31913 5.79472,-0.56817 7.06598,1.51679 0.97123,1.59287 0.83629,2.14446 -0.52458,2.14446 -0.86694,0 -1.37328,-0.23729 -2.04838,-0.96 -1.09597,-1.17322 -2.20394,-1.23557 -3.41683,-0.19229 -0.78973,0.6793 -0.89251,0.98587 -0.89251,2.66221 0,2.51373 0.68566,3.61008 2.25776,3.61008 1.35427,0 2.37158,-0.48525 2.37158,-1.13125 0,-0.34385 0.39293,-0.46875 1.47469,-0.46875 1.44838,0 1.47078,0.0157 1.25629,0.88 -0.25901,1.04358 -1.27594,2.2065 -2.47508,2.83041 -1.22208,0.63584 -3.73209,0.56425 -5.05292,-0.14412 z m 32.96339,0.0332 c -1.89818,-0.95369 -2.56637,-2.32924 -2.56637,-5.28326 0,-2.93661 0.67722,-4.54218 2.32685,-5.51665 1.31168,-0.77483 4.19782,-0.79672 5.6183,-0.0426 1.32531,0.70358 2.27821,2.68747 2.28781,4.76302 l 0.007,1.52 h -3.84 c -4.19936,0 -4.42944,0.12434 -3.17677,1.71685 0.84407,1.07306 2.63597,1.16216 3.67834,0.18291 0.52582,-0.494 1.03488,-0.63501 2.02166,-0.56 l 1.31888,0.10024 -0.56105,1.11363 c -1.20074,2.38328 -4.50775,3.31564 -7.11469,2.00588 z m 4.85552,-7.27951 c -0.2649,-1.72771 -2.73319,-2.31779 -4.07645,-0.97454 -1.45472,1.45474 -1.09901,1.81328 1.69456,1.708 2.27418,-0.0857 2.47187,-0.14657 2.38189,-0.73346 z m 10.42614,7.34119 c -1.10457,-0.59945 -1.52803,-1.39233 -1.52803,-2.86119 0,-2.16799 1.05549,-3.09916 4.00422,-3.53264 2.24839,-0.33052 3.03578,-0.68209 3.03578,-1.35544 0,-0.90368 -0.65462,-1.35192 -1.97443,-1.35192 -0.96941,0 -1.34586,0.1886 -1.91616,0.96 -0.57869,0.78272 -0.94144,0.96 -1.96429,0.96 -1.20768,0 -1.24643,-0.0329 -1.03814,-0.88 0.56803,-2.31031 2.21209,-3.38847 5.17763,-3.3954 3.81677,-0.009 4.59539,1.25595 4.59539,7.46513 v 4.17027 h -1.25334 c -0.68932,0 -1.31034,-0.17106 -1.38004,-0.38013 -0.0898,-0.2696 -0.35097,-0.22307 -0.89788,0.16 -0.96218,0.67394 -3.6528,0.69681 -4.86071,0.0413 z m 4.87802,-2.54666 c 0.31165,-0.28205 0.63593,-0.87526 0.72064,-1.31824 0.15251,-0.7978 0.13843,-0.8033 -1.48637,-0.5811 -3.02794,0.41411 -3.73997,1.03944 -2.54464,2.23479 0.63981,0.63979 2.4336,0.45802 3.31037,-0.33545 z m 15.06393,2.64678 c -1.90416,-0.70103 -2.40841,-1.76454 -2.58998,-5.46268 l -0.16,-3.25863 -1.52,-0.0975 c -1.49526,-0.0959 -1.52,-0.11518 -1.52,-1.18247 0,-1.06728 0.0246,-1.08652 1.52,-1.18246 l 1.52,-0.0975 0.096,-1.31066 c 0.076,-1.03775 0.3592,-1.56769 1.36,-2.54495 l 1.264,-1.23427 v 2.62494 2.62494 h 2.72 2.72 v 1.12 1.12 h -2.72 -2.72 v 2.72 c 0,2.29334 0.10038,2.8204 0.64,3.36 0.70515,0.70516 2.58048,0.85971 3.97917,0.32792 0.79449,-0.30207 0.82083,-0.27188 0.82083,0.94112 0,0.68925 -0.15379,1.34823 -0.34173,1.46439 -0.6752,0.4173 -3.9983,0.4618 -5.06829,0.0679 z m 63.17002,-0.0714 c -0.704,-0.26414 -1.32304,-0.48241 -1.37565,-0.48506 -0.0526,-0.003 -0.37344,-0.61682 -0.71296,-1.36482 -0.45657,-1.0058 -0.61917,-2.08922 -0.62435,-4.16 l -0.007,-2.8 h -1.6 -1.6 v -1.12 -1.12 h 1.6 1.6 v -1.21505 c 0,-0.99352 0.23066,-1.44028 1.26496,-2.45027 l 1.26496,-1.2352 0.095,2.37026 0.095,2.37026 2.64,0.0929 2.64,0.093 v 1.09411 1.09412 l -2.64,0.0929 -2.64,0.0929 v 2.66877 c 0,2.41876 0.0707,2.72601 0.75546,3.28 0.82147,0.66465 2.40579,0.79262 3.70371,0.29915 0.79449,-0.30207 0.82083,-0.27188 0.82083,0.94112 0,0.68925 -0.14771,1.34448 -0.32822,1.45605 -0.75101,0.46415 -3.71975,0.46702 -4.95178,0.005 z m -454.56,-18.40989 v -18.56 h 6.98122 c 3.83968,0 7.83568,0.15761 8.88,0.35024 2.6438,0.48766 5.02944,1.7382 6.67792,3.50055 3.0328,3.24233 3.68976,5.86123 3.68976,14.70921 0,6.88578 -0.36324,9.4255 -1.73514,12.13287 -1.57994,3.11786 -4.49795,5.30104 -8.1095,6.06733 -0.97415,0.2067 -4.821,0.3598 -9.04,0.3598 h -7.34426 z m 16.21779,10.38127 c 0.49623,-0.3623 1.23261,-1.2983 1.63645,-2.08 0.71139,-1.37699 0.73133,-1.64558 0.64,-8.62127 -0.10858,-8.29585 -0.26784,-8.87177 -2.80938,-10.16 -1.19942,-0.60796 -1.93276,-0.72 -4.71267,-0.72 h -3.29219 v 11.2268 11.2268 l 3.81779,-0.1068 c 3.24307,-0.0907 3.9536,-0.20595 4.72,-0.76553 z m 29.54221,-10.38127 v -18.56 l 7.6,0.006 c 10.51232,0.008 13.11379,0.64277 15.88237,3.87722 1.67241,1.95382 2.28141,4.01365 2.25798,7.63723 -0.0157,2.42968 -0.16352,3.36122 -0.73638,4.64 -0.80407,1.79488 -2.21415,3.39112 -3.88397,4.39668 -0.616,0.37095 -1.15818,0.69961 -1.2048,0.73036 -0.083,0.0547 6.18774,15.03232 6.51603,15.5635 0.0916,0.1482 -1.67795,0.26642 -3.93235,0.2627 l -4.09888,-0.007 -2.99952,-7.35324 -2.99949,-7.35325 h -2.36051 -2.36048 v 7.36 7.36 h -3.84 -3.84 v -18.56 z m 16.12845,-3.96619 c 1.4632,-0.61136 2.11155,-1.65345 2.11155,-3.39381 0,-3.00776 -1.48886,-3.84 -6.86973,-3.84 h -3.69027 v 3.84 3.84 h 3.69027 c 2.4321,0 4.05437,-0.15213 4.75818,-0.44619 z m 74.43155,3.96619 v -18.56 l 3.44,0.003 3.44,0.003 2.84074,5.29018 c 1.56243,2.9096 2.92329,5.20765 3.02416,5.10677 0.10089,-0.10088 1.41456,-2.44654 2.91926,-5.21258 l 2.73584,-5.02949 3.44,-0.0908 3.44,-0.0908 v 18.57083 18.57082 h -3.6759 -3.67591 l -0.0841,-11.28 -0.0841,-11.28 -2.34538,4.32 c -1.28995,2.376 -2.46179,4.44063 -2.60406,4.58806 -0.14227,0.14742 -1.31885,-1.69898 -2.61462,-4.10312 l -2.35594,-4.37118 -0.0842,11.06312 -0.0841,11.06312 h -3.83585 -3.83584 z m 200.32,17.44 c 0,-1.03111 0.0762,-1.12 0.96,-1.12 h 0.96 v -3.36 -3.36 h -0.96 c -0.90666,0 -0.96,-0.0711 -0.96,-1.28 v -1.28 h 2.08 c 1.6511,0 2.08,0.10067 2.08,0.48822 0,0.43762 0.0978,0.43762 0.9441,0 0.51926,-0.26852 1.61366,-0.48822 2.432,-0.48822 1.26547,0 1.65056,0.16267 2.5759,1.088 0.76938,0.76938 1.088,1.37851 1.088,2.08 0,0.94117 -0.0645,0.992 -1.25843,0.992 -0.98909,0 -1.30317,-0.14091 -1.46739,-0.65833 -0.42548,-1.3406 -2.97044,-1.44327 -3.47053,-0.14001 -0.112,0.29188 -0.20365,1.74291 -0.20365,3.22452 v 2.69382 h 2.4 2.4 v 1.12 1.12 h -4.8 -4.8 z m 66.24,0.0153 v -1.10474 l 2,-0.0953 2,-0.0953 0.0912,-3.28 0.0912,-3.28 h -1.7712 -1.7712 v -1.28 -1.28 h 3.04 3.04 v 4.64 4.64 h 2.08 2.08 v 1.12 1.12 h -5.44 -5.44 z m 16.96,-3.29563 c -0.968,-2.41737 -2.0096,-5.00822 -2.31466,-5.75743 l -0.55465,-1.36221 1.51465,3.2e-4 1.51466,3.2e-4 1.18272,3.11954 c 0.6505,1.71574 1.34531,3.55153 1.54403,4.07953 0.35117,0.93314 0.40394,0.84806 1.88477,-3.04 l 1.52346,-4 1.53414,-0.0992 c 1.1623,-0.0752 1.49488,0.002 1.37219,0.32 -0.0891,0.23057 -1.14224,2.83123 -2.34041,5.77923 l -2.1785,5.36 -1.46122,-0.003 -1.46118,-0.003 -1.76,-4.39522 z m 14.72,3.28036 v -1.12 h 1.92 1.92 v -3.36 -3.36 h -1.6 -1.6 v -1.28 -1.28 h 3.04 3.04 v 4.64 4.64 h 2.08 2.08 v 1.12 1.12 h -5.44 -5.44 z m -27.9504,-12.5852 c -0.7121,-0.78686 -0.66778,-1.83663 0.1104,-2.6148 0.76883,-0.76884 1.53158,-0.81231 2.4888,-0.14186 0.79296,0.55542 0.98586,2.29919 0.3272,2.95786 -0.58288,0.58289 -2.32522,0.4631 -2.9264,-0.2012 z m 31.48166,-0.0338 c -0.58611,-1.09513 -0.38892,-2.2085 0.49354,-2.78671 1.6976,-1.11231 3.6231,0.69697 2.7593,2.59278 -0.30647,0.67264 -0.59047,0.8129 -1.64599,0.8129 -0.93363,0 -1.36438,-0.16593 -1.60685,-0.61897 z M 85.601956,124.93327 c -1.33859,-0.24234 -3.65499,-0.8825 -5.14755,-1.42257 -19.16896,-6.93614 -27.89249,-29.026901 -18.60107,-47.103871 3.68538,-7.170119 10.04736,-12.954699 17.55332,-15.960229 5.27091,-2.11058 12.62098,-2.90075 14.77357,-1.58823 1.9444,1.18557 2.55777,3.6519 1.43081,5.75322 -0.75324,1.40451 -2.3663,2.25974 -4.26213,2.25974 -2.06365,0 -5.77029,0.75101 -8.35044,1.69191 -3.38168,1.23318 -5.60646,2.71749 -8.73555,5.828089 -2.33309,2.31929 -3.18631,3.44321 -4.38254,5.77289 -4.73643,9.22431 -3.67022,19.59774 2.82347,27.470351 5.28292,6.40473 13.8898,9.89531 21.81192,8.84597 5.662384,-0.75002 10.202654,-2.88047 14.224784,-6.67475 4.87644,-4.60018 7.30966,-9.814271 7.91213,-16.954671 0.25019,-2.96531 0.2926,-3.08933 1.4049,-4.10868 2.05141,-1.87997 4.38971,-1.82702 6.24621,0.14144 l 1.09221,1.15808 -0.1653,4.01468 c -0.25151,6.108621 -1.92001,11.105671 -5.50936,16.500121 -5.04112,7.57634 -13.08953,12.81684 -22.096484,14.38752 -3.38871,0.59094 -8.72497,0.58606 -12.0229,-0.011 z M 587.23577,99.867879 c -2.71754,-0.69472 -3.68,-2.27873 -3.68,-6.05648 0,-2.09286 0.12442,-2.71167 0.72637,-3.61275 0.95625,-1.43143 2.56646,-2.20621 4.5863,-2.20683 3.01261,-9.6e-4 4.92586,2.08038 4.92682,5.3595 v 1.68 h -3.84 c -4.23869,0 -4.61213,0.21696 -3.05456,1.77455 0.97005,0.97004 2.34979,1.02023 3.48563,0.12677 0.6017,-0.4733 1.20064,-0.63091 2.12806,-0.56 l 1.29069,0.0987 -0.60109,1.12 c -1.00844,1.87896 -3.62307,2.876211 -5.96873,2.27656 z m 4,-7.2215 c 0,-0.0797 -0.16269,-0.50198 -0.3615,-0.93837 -0.725,-1.59116 -3.28669,-1.83557 -4.28596,-0.40892 -0.91126,1.30099 -0.64371,1.49223 2.08746,1.49223 1.408,0 2.56,-0.0652 2.56,-0.14494 z m 12.19869,7.19607 c -1.79783,-0.44425 -2.56115,-1.01151 -3.23549,-2.40452 -0.35376,-0.73077 -0.6432,-1.4272 -0.6432,-1.54764 0,-0.12043 0.648,-0.21897 1.44,-0.21897 1.05667,0 1.44,0.12582 1.44,0.47263 0,1.35332 3.82947,1.96616 4.60022,0.73618 0.51453,-0.8211 -0.0549,-1.20619 -2.56022,-1.73135 -2.75309,-0.57709 -3.52029,-1.08361 -3.98362,-2.63012 -0.7686,-2.56537 1.22423,-4.52855 4.59447,-4.52614 1.97501,0.001 3.456,0.78253 4.39088,2.31588 0.92902,1.5237 0.82422,1.84292 -0.60493,1.84292 -0.96666,0 -1.35763,-0.17463 -1.75757,-0.78504 -0.95606,-1.45911 -4.03923,-1.35874 -4.03923,0.13149 0,0.63607 0.9537,1.04933 3.36,1.45597 1.94435,0.32857 3.00938,1.10111 3.42349,2.48329 0.45449,1.51699 -0.21725,3.16641 -1.57562,3.86886 -1.18461,0.61258 -3.50323,0.869141 -4.84918,0.53656 z m 63.26787,0.0956 c -0.46941,-0.0793 -1.22541,-0.48879 -1.68,-0.91011 -1.13021,-1.04744 -1.18925,-3.55853 -0.10656,-4.5332 1.04515,-0.9409 1.28938,-1.04385 3.34147,-1.40867 2.81386,-0.50023 2.97853,-0.58008 2.97853,-1.4442 0,-1.59274 -3.04662,-1.79047 -4.04765,-0.26271 -0.3911,0.59693 -0.78813,0.77219 -1.74915,0.77219 -1.39398,0 -1.4759,-0.21286 -0.70624,-1.83482 0.75123,-1.58314 2.7487,-2.4422 5.25667,-2.26078 3.404,0.24622 4.12637,1.57764 4.12637,7.60533 v 4.17027 h -1.28 c -0.93306,0 -1.28,-0.1321 -1.28,-0.48737 0,-0.43171 -0.0822,-0.43356 -0.72,-0.0162 -0.80717,0.52825 -2.84074,0.828481 -4.13344,0.61024 z m 3.7928,-3.04247 c 0.40736,-0.38269 0.74064,-1.00888 0.74064,-1.39156 0,-0.66648 -0.0768,-0.68373 -1.8248,-0.40962 -1.87453,0.29396 -2.6552,0.6915 -2.6552,1.35214 0,1.27213 2.53872,1.57699 3.73936,0.44904 z m 40.95946,2.8047 c -1.64951,-0.60523 -2.33642,-1.287 -2.97108,-2.94884 -0.3903,-1.02204 -0.48921,-1.97497 -0.36524,-3.51928 0.18784,-2.3401 0.73545,-3.33378 2.50691,-4.54884 0.92349,-0.63341 1.39651,-0.72919 3.08713,-0.62505 3.51552,0.21654 5.04868,2.04911 5.03543,6.01884 -0.0125,3.75785 -1.34423,5.44735 -4.63619,5.88177 -0.89344,0.117911 -1.89706,0.0202 -2.65696,-0.2586 z m 3.79574,-2.89438 c 1.06486,-1.06489 1.13398,-4.12512 0.12221,-5.41139 -0.71453,-0.90839 -2.33104,-1.14703 -3.50695,-0.51771 -0.79257,0.42418 -1.36992,2.61506 -1.10393,4.18933 0.39565,2.34186 2.91145,3.31697 4.48867,1.73977 z m -144.81456,-1.45458 v -4.47999 h -1.92 -1.92 v -1.28 -1.28 h 1.92 1.92 v -0.9759 c 0,-1.26842 0.71942,-2.63287 1.74122,-3.30237 1.00579,-0.65901 3.27094,-0.99323 4.79449,-0.7074 1.07091,0.2009 1.14429,0.29164 1.14429,1.41533 v 1.20067 l -2.03763,-0.12975 c -1.84714,-0.11762 -2.08647,-0.06 -2.56,0.61604 -0.2873,0.41018 -0.52237,1.00174 -0.52237,1.31458 0,0.49766 0.32016,0.5688 2.56,0.5688 h 2.56 v 1.28 1.28 h -2.56 -2.56 v 4.47999 4.48 h -1.28 -1.28 z m 50.30074,3.8318 c -1.47223,-0.89759 -1.98074,-2.33053 -1.98074,-5.58152 v -2.73027 h -1.6 -1.6 v -1.28 -1.28 h 1.6 1.6 v -1.21506 c 0,-0.99592 0.23085,-1.44048 1.28,-2.46494 l 1.28,-1.24989 v 2.46494 2.46495 h 2.72 2.72 v 1.28 1.28 h -2.75283 -2.75283 l 0.11283,2.7087 c 0.0855,2.05312 0.24937,2.84521 0.67699,3.27273 0.59162,0.59147 2.25837,0.729 3.83584,0.31649 0.84925,-0.22208 0.88,-0.18638 0.88,1.02174 0,1.49365 -0.26803,1.64079 -2.98618,1.63914 -1.41491,-9.6e-4 -2.27376,-0.18407 -3.03308,-0.64701 z m 12.09926,-0.6318 v -1.28 h 2.08 2.08 v -3.36 -3.35999 h -1.6 -1.6 v -1.12 -1.12 h 2.88 2.88 v 4.47999 4.48 h 2.08 2.08 v 1.28 1.28 h -5.44 -5.44 z m 16.85891,-3.92 c -1.15651,-2.85999 -2.2016,-5.46065 -2.32243,-5.77923 -0.19578,-0.51611 -0.054,-0.56842 1.30077,-0.48 l 1.52045,0.0992 1.41424,3.66642 c 0.77785,2.01654 1.47632,3.72851 1.55219,3.80438 0.0759,0.0759 0.29059,-0.27801 0.47715,-0.78642 0.18656,-0.50841 0.84979,-2.25639 1.47379,-3.88438 l 1.13463,-2.96 h 1.41513 c 0.77834,0 1.41517,0.12569 1.41517,0.27932 0,0.15363 -0.27376,0.90963 -0.60832,1.68 -0.33459,0.77037 -1.35827,3.23667 -2.27488,5.48067 l -1.66653,4.08 h -1.36432 -1.36432 z m 30.50109,3.92 v -1.28 h 1.92 1.92 v -5.59999 -5.6 h -1.6 -1.6 v -1.12 -1.12 h 3.04 3.04 v 6.72 6.71999 h 2.08 2.08 v 1.28 1.28 h -5.44 -5.44 z m 48,-3.2 v -4.47999 h -1.92 -1.92 v -1.28 -1.28 h 1.92 1.92 v -1.23685 c 0,-2.28409 2.02749,-3.88315 4.92355,-3.88315 2.10093,0 2.43639,0.21395 2.4369,1.55423 v 1.16577 l -1.78119,-0.11082 c -2.01395,-0.1253 -3.01968,0.46102 -3.01968,1.76041 0,0.7205 0.0956,0.75041 2.4,0.75041 h 2.4 v 1.28 1.28 h -2.4 -2.4 v 4.47999 4.48 h -1.28 -1.28 v -4.48 z m -638.298784,0.33812 c -1.65636,-0.75201 -2.34122,-1.99132 -2.34122,-4.23662 v -1.69029 L 108.91577,68.37537 c 11.748,-11.76293 21.74885,-21.59345 22.22411,-21.8456 1.86735,-0.9907 4.55178,-0.22965 5.69085,1.6134 0.75549,1.22241 0.83477,3.04303 0.18568,4.26405 -0.25264,0.47526 -10.00883,10.40389 -21.6804,22.063619 -23.614264,23.59028 -22.416224,22.591 -25.439024,21.2186 z m 546.961634,-9.48097 c -0.72711,-0.72711 -0.65501,-2.59319 0.11613,-3.00589 1.50313,-0.80445 3.22102,0.0809 3.22102,1.65995 0,1.46775 -2.29123,2.39185 -3.33715,1.34594 z m -381.51287,-6.53016 c -4.99174,-1.06354 -8.27852,-5.1663 -9.0904,-11.347199 -0.49932,-3.80136 -0.21984,-15.7231 0.42058,-17.93978 1.47091,-5.09142 4.74957,-7.98089 9.99984,-8.81278 8.45626,-1.33988 14.66979,3.13374 15.68483,11.29278 l 0.2289,1.84 h -3.84051 -3.84055 l -0.2055,-1.37043 c -0.29584,-1.97267 -1.26557,-3.36926 -2.83379,-4.08115 -2.82532,-1.28255 -6.16333,-0.34096 -7.41485,2.09158 -0.59735,1.16106 -0.66797,1.95679 -0.76019,8.56358 -0.0827,5.92452 -0.007,7.60905 0.4054,9.02784 0.67981,2.33843 1.99242,3.36182 4.61725,3.59983 3.66995,0.33278 6.05303,-1.74407 6.20736,-5.40969 l 0.0717,-1.70156 -3.28,-0.0912 -3.28,-0.0912 v -3.5088 -3.5088 h 7.04 7.04 v 10.4 10.399999 h -3.49334 c -2.43543,0 -3.53213,-0.11646 -3.62151,-0.38457 -0.0912,-0.27355 -0.62777,-0.16965 -1.85875,0.35991 -1.93232,0.83126 -5.91533,1.15764 -8.19642,0.67164 z m 46.93002,-0.12296 c -5.18643,-1.12667 -8.6984,-4.95508 -9.5808,-10.444019 -0.4337,-2.69795 -0.43229,-14.27646 0.003,-16.9538 1.21203,-7.4704 7.55619,-11.78835 15.56915,-10.59657 5.65197,0.84063 9.09994,3.86684 10.49111,9.20784 0.36476,1.40048 0.47756,3.779 0.47465,10.00976 -0.004,8.87899 -0.18073,10.1814 -1.77894,13.117839 -2.59808,4.77351 -8.72947,7.05964 -15.17725,5.65895 z m 5.97917,-7.264379 c 1.45209,-0.54864 2.6415,-1.91804 3.14835,-3.6248 0.57914,-1.95018 0.66208,-13.03927 0.11654,-15.583 -0.6654,-3.10274 -3.34444,-4.83337 -6.70252,-4.3298 -1.95786,0.2936 -3.27226,1.15961 -4.00714,2.64018 -0.55744,1.12302 -0.6144,1.99429 -0.6144,9.39778 0,7.60831 0.0438,8.23572 0.64733,9.28 1.20963,2.09294 4.85657,3.18509 7.41184,2.21964 z m 77.54083,-11.49964 v -18.56 l 7.12,0.006 c 7.87168,0.006 10.54621,0.36984 12.91101,1.7557 2.97869,1.74564 5.17075,5.01144 5.88237,8.76381 0.43494,2.2935 0.41817,13.82109 -0.0237,16.21617 -0.96439,5.228289 -4.5024,8.957409 -9.50551,10.018969 -0.97414,0.20669 -4.82099,0.3598 -9.04,0.3598 h -7.34425 V 60.79178 Z m 16.21779,10.38126 c 0.49623,-0.3623 1.22621,-1.29281 1.62221,-2.0678 0.6809,-1.33252 0.72,-1.78419 0.72,-8.31346 0,-6.52373 -0.0397,-6.98311 -0.72,-8.3322 -1.11018,-2.20153 -2.70576,-2.8678 -6.86781,-2.8678 h -3.29219 v 11.2268 11.2268 l 3.81779,-0.1068 c 3.24307,-0.0907 3.9536,-0.20596 4.72,-0.76554 z M 339.39577,60.63133 v -18.4 h 3.84 3.84 v 14.88 14.88 h 9.12 9.12 v 3.519999 3.52 h -12.96 -12.96 z m 93.44,0 v -18.4 h 12.64 12.64 v 3.52 3.52 h -8.8 -8.8 v 3.52 3.52 h 7.52 7.52 v 3.68 3.68 h -7.52 -7.52 v 4.16 4.16 h 8.8 8.8 v 3.519999 3.52 h -12.64 -12.64 z m 47.04,-0.0105 V 42.21035 l 3.5432,0.0905 3.5432,0.0905 4.64694,9.6 c 2.55581,5.28 4.77738,9.7368 4.9368,9.904 0.17344,0.18191 0.28986,-3.70557 0.28986,-9.68 v -9.984 h 3.68 3.68 v 18.4 18.399999 h -3.4512 -3.45117 l -4.78883,-9.915179 c -2.63382,-5.45335 -4.8968,-9.91735 -5.0288,-9.92 -0.132,-0.003 -0.24,4.4592 -0.24,9.9152 v 9.919999 h -3.68 -3.68 V 60.62089 Z m 124.31347,-2.988 c -1.71907,-0.78094 -2.14976,-1.8118 -2.32342,-5.56152 l -0.14448,-3.12 h -1.40279 c -1.38985,0 -1.40278,-0.0103 -1.40278,-1.12 0,-1.11407 0.008,-1.12 1.44,-1.12 h 1.44 v -1.21506 c 0,-0.98481 0.22995,-1.43958 1.2135,-2.4 0.66743,-0.65171 1.31543,-1.18494 1.44,-1.18494 0.12458,0 0.2265,1.08 0.2265,2.4 v 2.4 h 2.72 2.72 v 1.12 1.12 h -2.72 -2.72 v 2.8304 c 0,2.33565 0.1023,2.92298 0.58518,3.36 0.65559,0.59329 2.74877,0.70615 4.03399,0.21752 0.79632,-0.30276 0.82083,-0.27385 0.82083,0.96792 0,1.07956 -0.12854,1.32887 -0.82083,1.59208 -1.28663,0.48917 -3.69591,0.35402 -5.1057,-0.2864 z m 14.05664,0.0955 c -3.31949,-1.63784 -3.40688,-8.87047 -0.13059,-10.80583 0.59018,-0.34863 1.61616,-0.53118 2.98531,-0.53118 1.8001,0 2.22698,0.11858 3.11411,0.86506 1.30711,1.09983 1.90106,2.52602 1.90106,4.56466 v 1.61028 h -3.84 c -2.11866,0 -3.84,0.13172 -3.84,0.29383 0,0.72197 0.46621,1.36534 1.30288,1.79801 1.24896,0.64585 1.70048,0.59231 2.79875,-0.33184 1.19859,-1.00855 3.25837,-1.13697 3.25837,-0.20316 0,0.802 -1.12675,2.18748 -2.25235,2.76955 -1.18279,0.61164 -4.0304,0.59584 -5.29754,-0.0294 z m 4.98989,-7.177 c 0,-1.79296 -2.61664,-2.53245 -4.01456,-1.13455 -1.41363,1.41366 -1.08531,1.77455 1.61456,1.77455 2.18666,0 2.4,-0.0569 2.4,-0.64 z m 42.90454,6.85155 c -0.85564,-0.71999 -0.98454,-1.03618 -0.98454,-2.41528 0,-2.06359 0.92214,-2.98443 3.46867,-3.46372 2.78103,-0.52343 3.39517,-0.77411 3.52301,-1.43802 0.14957,-0.77661 -0.76275,-1.45453 -1.95747,-1.45453 -0.59939,0 -1.26032,0.33688 -1.88343,0.96 -1.132,1.13198 -3.15171,1.38848 -3.1496,0.4 0.003,-0.91572 1.18112,-2.57305 2.20877,-3.10447 1.40266,-0.72534 4.72624,-0.65399 6.0104,0.12902 1.37098,0.83593 1.69568,2.16993 1.69786,6.97545 l 0.003,3.92 h -1.28 c -0.704,0 -1.28,-0.1477 -1.28,-0.32822 0,-0.18814 -0.40295,-0.11985 -0.9441,0.16 -0.51926,0.26852 -1.73222,0.48822 -2.69545,0.48822 -1.41728,0 -1.93914,-0.15803 -2.73591,-0.82845 z m 5.21229,-2.07478 c 0.49389,-0.38848 0.84317,-0.98247 0.84317,-1.43388 0,-0.73422 -0.0719,-0.76116 -1.52,-0.56991 -2.2008,0.29066 -2.96,0.64031 -2.96,1.3632 0,1.33689 2.24822,1.73289 3.63683,0.64059 z m 14.94592,2.34273 c -1.92441,-0.98127 -2.33942,-1.88948 -2.51328,-5.49976 l -0.15504,-3.21974 h -1.39721 c -1.38349,0 -1.39722,-0.011 -1.39722,-1.12 0,-1.11408 0.008,-1.12 1.44,-1.12 h 1.44 v -1.21506 c 0,-0.98482 0.22995,-1.43959 1.2135,-2.4 0.66743,-0.65172 1.31543,-1.18494 1.44,-1.18494 0.12458,0 0.2265,1.08 0.2265,2.4 v 2.4 h 2.72 2.72 v 1.12 1.12 h -2.72 -2.72 v 2.8304 c 0,2.33565 0.1023,2.92298 0.58518,3.36 0.65559,0.59328 2.74877,0.70615 4.03399,0.21752 0.79632,-0.30276 0.82083,-0.27386 0.82083,0.96792 0,1.07955 -0.12854,1.32887 -0.82083,1.59208 -1.28499,0.48854 -3.71159,0.36593 -4.91642,-0.24842 z m 30.11866,-0.0873 c -1.43005,-0.87186 -2.28736,-2.84793 -2.28736,-5.27219 0,-2.41245 0.85664,-4.39364 2.28736,-5.29006 0.86944,-0.54476 1.4695,-0.64507 3.35833,-0.56141 1.92602,0.0853 2.43802,0.23103 3.1504,0.89666 1.4192,1.326 1.87229,2.52058 1.8826,4.96348 0.0109,2.605 -0.63648,4.03053 -2.35735,5.19024 -1.44169,0.97155 -4.49974,1.00869 -6.03398,0.0733 z m 4.00672,-1.92812 c 0.53001,-0.18476 1.12752,-0.69554 1.32777,-1.13506 0.39341,-0.86344 0.47543,-3.04077 0.15904,-4.22183 -0.26012,-0.97107 -1.82755,-1.76359 -2.98512,-1.50934 -1.54201,0.33868 -2.08982,1.25788 -2.08982,3.50657 0,2.08939 0.38038,2.90125 1.5889,3.3911 0.87324,0.35396 0.89462,0.35363 1.99923,-0.0315 z m 27.95641,1.74748 c -0.85564,-0.71999 -0.98454,-1.03618 -0.98454,-2.41528 0,-2.06359 0.92214,-2.98443 3.46867,-3.46372 2.78103,-0.52343 3.39517,-0.77411 3.52301,-1.43802 0.14957,-0.77661 -0.76275,-1.45453 -1.95747,-1.45453 -0.59939,0 -1.26032,0.33688 -1.88343,0.96 -1.132,1.13198 -3.15171,1.38848 -3.1496,0.4 0.003,-0.91572 1.18112,-2.57305 2.20877,-3.10447 1.40266,-0.72534 4.72624,-0.65399 6.0104,0.12902 1.37098,0.83593 1.69568,2.16993 1.69786,6.97545 l 0.003,3.92 h -1.28 c -0.704,0 -1.28,-0.1477 -1.28,-0.32822 0,-0.18814 -0.40295,-0.11985 -0.9441,0.16 -0.51926,0.26852 -1.73222,0.48822 -2.69545,0.48822 -1.41728,0 -1.93914,-0.15803 -2.73591,-0.82845 z m 5.21229,-2.07478 c 0.49389,-0.38848 0.84317,-0.98247 0.84317,-1.43388 0,-0.73422 -0.0719,-0.76116 -1.52,-0.56991 -2.2008,0.29066 -2.96,0.64031 -2.96,1.3632 0,1.33689 2.24822,1.73289 3.63683,0.64059 z m -186.99683,1.46322 v -1.12 h 2.08 2.08 v -3.36 -3.36 h -1.76 -1.76 v -1.12 -1.12 h 3.04 3.04 v 4.48 4.48 h 2.08 2.08 v 1.12 1.12 h -5.44 -5.44 z m 16.64,-4.49836 v -5.61835 l 1.68,0.0138 c 0.924,0.008 2.49126,-0.0685 3.48278,-0.16911 1.31719,-0.13362 2.06996,-0.0447 2.7946,0.32999 1.67075,0.86398 1.96262,1.86427 1.96262,6.72615 v 4.3359 h -1.28 -1.28 v -3.70104 c 0,-4.68786 -0.38621,-5.56408 -2.45677,-5.57406 -0.72096,-0.003 -1.20976,0.24041 -1.68,0.83825 -0.58633,0.7454 -0.66323,1.28338 -0.66323,4.64 v 3.79685 h -1.28 -1.28 v -5.61836 z m 48.64,4.49836 c 0,-1.03111 0.0762,-1.12 0.96,-1.12 h 0.96 v -3.36 -3.36 h -0.96 c -0.88381,0 -0.96,-0.0889 -0.96,-1.12 v -1.12 h 2.08 c 1.20806,0 2.08,0.13759 2.08,0.32821 0,0.18814 0.40294,0.11985 0.9441,-0.16 2.64384,-1.36717 6.0959,0.34071 6.0959,3.0159 0,0.54863 -0.2033,0.65589 -1.2432,0.65589 -0.97296,0 -1.35712,-0.1739 -1.76736,-0.8 -0.38672,-0.59017 -0.80576,-0.8 -1.59763,-0.8 -1.61389,0 -1.93763,0.63263 -1.94522,3.80122 l -0.007,2.75878 2.48,0.0935 2.48,0.0935 v 1.10654 1.10654 h -4.8 -4.8 v -1.12 z m 16.96,-4.48 v -5.6 h 1.28 c 0.704,0 1.28,0.15216 1.28,0.33814 0,0.18954 0.31258,0.11922 0.7112,-0.16 0.91168,-0.63856 3.51552,-0.64555 4.73926,-0.0127 1.6145,0.83488 1.90954,1.86991 1.90954,6.6987 v 4.33589 h -1.28 -1.28 v -4 c 0,-3.57334 -0.0683,-4.06827 -0.64,-4.64 -0.88954,-0.88955 -2.40486,-0.82423 -3.37456,0.14545 -0.74698,0.747 -0.78544,0.97419 -0.78544,4.64 v 3.85455 h -1.28 -1.28 v -5.6 z m 49.28,4.49527 v -1.10474 l 2,-0.0953 2,-0.0953 v -3.2 -3.2 l -1.68,-0.0967 -1.68,-0.0967 V 47.8146 46.71133 h 3.04 3.04 v 4.48 4.48 h 2.08 2.08 v 1.12 1.12 h -5.44 -5.44 z m 32.96,-4.49527 v -5.6 h 1.28 c 0.704,0 1.28,0.15216 1.28,0.33814 0,0.18954 0.31258,0.11922 0.7112,-0.16 0.91168,-0.63856 3.51552,-0.64555 4.73926,-0.0127 1.6145,0.83488 1.90954,1.86991 1.90954,6.6987 v 4.33589 h -1.28 -1.28 v -4 c 0,-3.57334 -0.0683,-4.06827 -0.64,-4.64 -0.88954,-0.88955 -2.40486,-0.82423 -3.37456,0.14545 -0.74698,0.747 -0.78544,0.97419 -0.78544,4.64 v 3.85455 h -1.28 -1.28 v -5.6 z m 32.32,4.48 v -1.12 h 1.92001 1.92 v -5.6 -5.6 h -1.6 -1.6 v -1.28 -1.28 h 3.04 3.04 v 6.88 6.88 h 2.08 2.08 v 1.12 1.12 h -5.44 -5.44001 z M 570.63894,44.4481 c -0.96285,-0.75736 -1.0592,-1.44594 -0.34503,-2.46557 0.98669,-1.40871 3.66186,-0.57987 3.66186,1.13454 0,0.56273 -1.45165,1.99426 -2.0223,1.99426 -0.24826,0 -0.83082,-0.29845 -1.29453,-0.66323 z m 131.31683,0.0232 c -1.32262,-1.32264 -0.50195,-3.2 1.39885,-3.2 1.30825,0 1.80115,0.49418 1.80115,1.80585 0,1.79377 -1.95056,2.64358 -3.2,1.39415 z"
     style="fill:#000000;stroke-width:0.31999999" />
</svg>
