<?xml version="1.0" encoding="UTF-8" standalone="no"?>
<!-- Created with Inkscape (http://www.inkscape.org/) -->

<svg
   xmlns:dc="http://purl.org/dc/elements/1.1/"
   xmlns:cc="http://creativecommons.org/ns#"
   xmlns:rdf="http://www.w3.org/1999/02/22-rdf-syntax-ns#"
   xmlns:svg="http://www.w3.org/2000/svg"
   xmlns="http://www.w3.org/2000/svg"
   xmlns:sodipodi="http://sodipodi.sourceforge.net/DTD/sodipodi-0.dtd"
   xmlns:inkscape="http://www.inkscape.org/namespaces/inkscape"
   width="38.443958mm"
   height="18.362083mm"
   viewBox="0 0 38.443958 18.362083"
   version="1.1"
   id="svg978"
   inkscape:version="0.92.4 (5da689c313, 2019-01-14)"
   sodipodi:docname="fotografija.svg">
  <defs
     id="defs972" />
  <sodipodi:namedview
     id="base"
     pagecolor="#ffffff"
     bordercolor="#666666"
     borderopacity="1.0"
     inkscape:pageopacity="0.0"
     inkscape:pageshadow="2"
     inkscape:zoom="0.98994949"
     inkscape:cx="102.44916"
     inkscape:cy="-100.13347"
     inkscape:document-units="mm"
     inkscape:current-layer="layer1"
     showgrid="false"
     fit-margin-top="0"
     fit-margin-left="0"
     fit-margin-right="0"
     fit-margin-bottom="0"
     inkscape:window-width="1246"
     inkscape:window-height="666"
     inkscape:window-x="1288"
     inkscape:window-y="748"
     inkscape:window-maximized="0" />
  <metadata
     id="metadata975">
    <rdf:RDF>
      <cc:Work
         rdf:about="">
        <dc:format>image/svg+xml</dc:format>
        <dc:type
           rdf:resource="http://purl.org/dc/dcmitype/StillImage" />
        <dc:title></dc:title>
      </cc:Work>
    </rdf:RDF>
  </metadata>
  <g
     inkscape:label="Layer 1"
     inkscape:groupmode="layer"
     id="layer1"
     transform="translate(-125.92087,-52.717768)">
    <g
       transform="matrix(0.26458333,0,0,0.26458333,-141.44058,38.906518)"
       id="g66">
      <path
         inkscape:connector-curvature="0"
         id="path48"
         d="m 1010.5,121.6 c 0,-23.1 0,-46.3 0,-69.4 1.2,0 2.3,0.1 3.5,0.1 46.6,0 93.3,0 139.9,0 0.6,0 1.3,0 1.9,0 0,23.2 0,46.2 0,69.3 -0.8,0 -1.5,0 -2.2,0 -46.8,0 -93.5,0 -140.3,0 -1,0 -1.9,0 -2.8,0 z m 79.1,-11.7 c 1.4,-1 2.6,-2 2.2,-3.8 -0.3,-1.5 -1.4,-2.5 -2.8,-2.9 -2.5,-0.7 -5.1,-0.3 -7.7,-0.3 0,4.1 0,7.9 0,11.8 1.2,0 2.3,0 3.6,0 0,-1.5 0,-2.8 0,-4.4 2.2,1 2.3,3.3 3.7,4.5 1.2,0 2.5,0 4,0 -0.5,-0.9 -1,-1.6 -1.4,-2.4 -0.6,-0.8 -1.1,-1.6 -1.6,-2.5 z m -10.8,-3.1 c -0.5,-3.3 -4.2,-4.5 -7.1,-3.8 -2.5,0.6 -3.8,2.1 -3.9,4.6 -0.1,1.1 0,2.3 0.1,3.5 0.1,1.3 0.8,2.3 1.9,2.9 2.3,1.4 4.7,1.4 7.1,0 2.4,-1.4 2.2,-3.7 2,-6 -1.9,0 -3.6,0 -5.5,0 0,0.9 0,1.7 0,2.4 0.7,0.1 1.3,0.1 1.9,0.2 -0.6,1.7 -1.6,2 -3.6,0.9 0,-1.7 0,-3.5 0,-5.2 1.7,-1.1 2.1,-1.1 3.9,0.5 1,0 2.1,0 3.2,0 z m -37.2,2.1 c 0.2,-2.2 -0.1,-4.2 -2.3,-5.3 -2,-1 -4.2,-1.1 -6.2,0 -3.1,1.6 -3.6,8.1 -0.8,10.2 2.1,1.5 4.4,1.6 6.7,0.6 2.4,-1.1 2.8,-3.2 2.6,-5.5 z m 24.7,-0.1 c -0.3,-3.7 -1.6,-5.5 -4.6,-6 -1,-0.1 -2.1,0 -3.1,0.2 -2.3,0.6 -3.5,2.1 -3.6,4.5 0,0.7 0,1.4 0,2.1 0,2.6 1.1,4.2 3.4,4.9 2.6,0.8 5.8,0 6.8,-1.9 0.7,-1 0.8,-2.5 1.1,-3.8 z m 73,-5.9 c -1.7,3.9 -3.4,7.8 -5.2,11.8 1.4,0 2.6,0 3.7,0 0.3,-0.6 0.6,-1.1 0.8,-1.6 1.5,0 2.9,0 4.2,0 0.3,0.6 0.5,1 0.7,1.5 1.2,0 2.4,0 3.8,0 -1.8,-4 -3.5,-7.9 -5.2,-11.7 -1,0 -1.8,0 -2.8,0 z m -41.5,0 c -1.7,3.9 -3.4,7.8 -5.2,11.8 1.4,0 2.6,0 3.7,0 0.3,-0.6 0.6,-1.1 0.9,-1.6 1.5,0 2.8,0 4.2,0 0.3,0.6 0.6,1.1 0.8,1.5 1.2,0 2.4,0 3.7,0 -1.8,-4 -3.5,-7.9 -5.2,-11.7 -1,0 -1.9,0 -2.9,0 z m 19.1,0.1 c -3.3,0 -6.5,0 -9.7,0 0,4 0,7.8 0,11.7 1.2,0 2.3,0 3.6,0 0,-1.5 0,-2.8 0,-4.4 1.8,0 3.5,0 5.2,0 0,-1 0,-1.8 0,-2.8 -1.8,0 -3.5,0 -5.2,0 0.1,-0.7 0.1,-1.3 0.1,-1.9 2.1,0 4.1,0 6.1,0 -0.1,-0.9 -0.1,-1.6 -0.1,-2.6 z m -97.6,0 c 0,4 0,7.9 0,11.8 1.2,0 2.3,0 3.5,0 0,-1.5 0,-2.9 0,-4.5 1.9,0 3.5,0 5.2,0 0,-1 0,-1.8 0,-2.7 -1.8,0 -3.5,0 -5.1,0 0,-0.7 0,-1.2 0,-1.9 2,0 4,0 6,0 0,-1 0,-1.8 0,-2.6 -3.2,-0.1 -6.3,-0.1 -9.6,-0.1 z m 51.9,-8.9 c 1,0 1.8,0 2.7,0 1,1.6 2,3.2 3,4.8 0.8,0 1.6,0 2.6,0 -1.1,-1.8 -2.1,-3.4 -3.1,-5 0.4,-0.2 0.6,-0.3 0.8,-0.5 1.2,-0.6 2,-1.6 1.9,-3 -0.1,-1.4 -1.2,-2.8 -2.7,-3 -2.4,-0.3 -4.9,-0.3 -7.4,-0.4 0,4.2 0,8 0,11.9 0.7,0 1.4,0 2.2,0 0,-1.6 0,-3.1 0,-4.8 z m -41.7,-3.4 c -0.6,-2.3 -2,-3.4 -4.5,-3.7 -2.2,-0.2 -4.6,0.8 -5.4,2.5 -0.1,0.2 -0.2,0.4 -0.2,0.6 0,2 -0.1,3.9 0,5.9 0,0.5 0.4,1 0.8,1.4 1.6,1.8 4.9,2.2 7.2,1 2.1,-1.1 2.8,-3 2.1,-5.8 -1.7,0 -3.3,0 -5.2,0 0.1,0.6 0.1,1 0.2,1.5 1,0 1.9,0.1 2.8,0.1 0,2 -0.8,2.9 -2.6,3 -1.8,0.1 -2.9,-0.7 -3.1,-2.4 -0.1,-1.2 -0.1,-2.4 0,-3.6 0.2,-1.7 1.5,-2.9 3.2,-2.5 1.1,0.3 2,1.1 3,1.6 -0.1,0.1 -0.1,0.2 -0.2,0.3 0.6,0.1 1.2,0.1 1.9,0.1 z m 13.5,14.9 c 1.2,0 2.2,0 3.5,0 0,3.1 0,6.1 0,9 1.3,0 2.4,0 3.7,0 0,-3.1 0,-6 0,-9.1 1.2,0 2.3,0 3.4,0 0,-1 0,-1.8 0,-2.6 -3.6,0 -7,0 -10.5,0 -0.1,1 -0.1,1.8 -0.1,2.7 z m 13.9,-6.7 c 3.1,0 6.1,0 9.1,0 0,-0.6 0,-1 0,-1.7 -2.3,0 -4.5,0 -6.8,0 0,-1.2 0,-2.2 0,-3.3 1.9,0 3.8,0 5.7,0 0,-0.7 0,-1.2 0,-1.8 -2,0 -3.8,0 -5.7,0 0,-1.1 0,-2.1 0,-3.3 2.3,0 4.5,0 6.9,0 0,-0.7 -0.1,-1.2 -0.1,-1.7 -3.1,0 -6,0 -9.1,0 0,4 0,7.8 0,11.8 z m -13.5,0 c -1.9,-4.1 -3.6,-8 -5.3,-11.8 -0.7,0 -1.2,0 -1.8,0 -1.7,3.9 -3.5,7.8 -5.3,11.8 0.9,0 1.6,0 2.4,0 0.4,-0.8 0.8,-1.5 1.1,-2.2 1.9,0 3.6,0 5.4,0 0.4,0.7 0.7,1.5 1.1,2.2 0.7,0 1.4,0 2.4,0 z m 65.5,0 c -1.8,-4.1 -3.6,-7.9 -5.3,-11.8 -0.7,0 -1.2,0 -1.9,0 -1.7,3.9 -3.5,7.8 -5.2,11.7 1,0 1.7,0 2.4,0 0.4,-0.8 0.7,-1.5 1,-2.2 1.9,0 3.7,0 5.5,0 0.4,0.8 0.7,1.5 1,2.2 0.9,0.1 1.6,0.1 2.5,0.1 z m 14.8,14.5 c 1.7,1.5 4.1,1.9 6.4,1 2.1,-0.8 2.9,-2 3,-4.3 0,-1.4 0,-2.8 0,-4.1 0,-1 0,-2 0,-3.1 -1.4,0 -2.5,0 -3.7,0 0,2.5 0,4.9 0,7.2 0,1.5 -0.7,2.1 -2.2,1.8 -0.4,-0.1 -0.8,-0.3 -1.3,-0.4 -0.8,0.8 -1.5,1.4 -2.2,1.9 z M 1119,103 c 0,4 0,7.8 0,11.7 1.2,0 2.3,0 3.4,0 0,-4 0,-7.8 0,-11.7 -1.1,0 -2.2,0 -3.4,0 z m -64.6,-5.9 c -2.3,0 -4.5,0 -6.9,0 0,-3.5 0,-6.7 0,-9.9 -0.8,0 -1.5,0 -2.1,0 0,4 0,7.8 0,11.7 3.1,0 6,0 9,0 0,-0.6 0,-1.1 0,-1.8 z m 32.2,0.7 c 2,1.6 5.1,1.7 6.9,0.2 0.6,-0.5 1.2,-1.3 1.2,-2 0.1,-2.9 0.1,-5.8 0.1,-8.7 -0.8,0 -1.5,0 -2.3,0 0,0.7 0,1.3 0,1.9 0,1.9 0,3.9 0,5.8 0,1.7 -0.8,2.4 -2.5,2.3 -0.7,0 -1.5,-0.3 -2.3,-0.5 -0.3,0.3 -0.7,0.7 -1.1,1 z m -2.2,1.1 c 0,-4 0,-7.8 0,-11.7 -0.8,0 -1.4,0 -2.2,0 0,3.9 0,7.8 0,11.7 0.7,0 1.4,0 2.2,0 z" />
      <path
         inkscape:connector-curvature="0"
         id="path50"
         d="m 1088.2,106.7 c -0.8,1.6 -2.1,1 -3.3,1.1 0,-0.7 0,-1.3 0,-2 1.2,-0.1 2.4,-0.6 3.3,0.9 z" />
      <path
         inkscape:connector-curvature="0"
         id="path52"
         d="m 1034.8,111.8 c -0.8,-1.7 -0.7,-3.5 -0.3,-5.3 0.2,-0.9 1.1,-1.2 1.8,-1 0.6,0.2 1.4,0.8 1.4,1.3 0.2,1.3 0.2,2.6 0,3.9 0,1.4 -0.9,1.6 -2.9,1.1 z" />
      <path
         inkscape:connector-curvature="0"
         id="path54"
         d="m 1061.7,111.8 c -2.1,0.7 -2.9,0.2 -3,-1.9 0,-0.9 0,-1.9 0,-2.8 0.1,-1.1 0.7,-1.6 1.7,-1.6 1,0 1.6,0.5 1.8,1.5 0.4,1.8 0.1,3.8 -0.5,4.8 z" />
      <path
         inkscape:connector-curvature="0"
         id="path56"
         d="m 1140.7,107.6 c 0.4,1 0.7,1.8 1,2.7 -0.8,0 -1.3,0 -2.1,0 0.4,-0.8 0.7,-1.6 1.1,-2.7 z" />
      <path
         inkscape:connector-curvature="0"
         id="path58"
         d="m 1100.4,110.4 c -0.5,0 -0.8,0.1 -1.1,0.1 -0.3,0 -0.5,-0.1 -1,-0.1 0.3,-0.9 0.6,-1.6 1.1,-2.7 0.4,1 0.6,1.8 1,2.7 z" />
      <path
         inkscape:connector-curvature="0"
         id="path60"
         d="m 1071.4,88.9 c 1.3,0 2.4,0 3.6,0 1,0.1 1.7,0.6 1.8,1.6 0.1,0.9 -0.6,1.7 -1.8,1.7 -1.1,0.1 -2.3,0 -3.6,0 0,-1.1 0,-2.2 0,-3.3 z" />
      <path
         inkscape:connector-curvature="0"
         id="path62"
         d="m 1039.2,94.8 c -1.5,0 -2.7,0 -4.1,0 0.7,-1.6 1.3,-3 2,-4.9 0.9,1.8 1.5,3.3 2.1,4.9 z" />
      <path
         inkscape:connector-curvature="0"
         id="path64"
         d="m 1100.7,94.8 c 0.7,-1.6 1.3,-3 2.1,-4.8 0.7,1.8 1.3,3.2 2,4.8 -1.4,0 -2.7,0 -4.1,0 z" />
    </g>
  </g>
</svg>
