<?xml version="1.0" encoding="UTF-8" standalone="no"?>
<!-- Created with Inkscape (http://www.inkscape.org/) -->

<svg
   xmlns:dc="http://purl.org/dc/elements/1.1/"
   xmlns:cc="http://creativecommons.org/ns#"
   xmlns:rdf="http://www.w3.org/1999/02/22-rdf-syntax-ns#"
   xmlns:svg="http://www.w3.org/2000/svg"
   xmlns="http://www.w3.org/2000/svg"
   xmlns:sodipodi="http://sodipodi.sourceforge.net/DTD/sodipodi-0.dtd"
   xmlns:inkscape="http://www.inkscape.org/namespaces/inkscape"
   width="25.717499mm"
   height="21.801859mm"
   viewBox="0 0 25.717499 21.801859"
   version="1.1"
   id="svg823"
   inkscape:version="0.92.4 (5da689c313, 2019-01-14)"
   sodipodi:docname="liffe.svg">
  <defs
     id="defs817" />
  <sodipodi:namedview
     id="base"
     pagecolor="#ffffff"
     bordercolor="#666666"
     borderopacity="1.0"
     inkscape:pageopacity="0.0"
     inkscape:pageshadow="2"
     inkscape:zoom="0.35"
     inkscape:cx="48.599999"
     inkscape:cy="41.200369"
     inkscape:document-units="mm"
     inkscape:current-layer="layer1"
     showgrid="false"
     fit-margin-top="0"
     fit-margin-left="0"
     fit-margin-right="0"
     fit-margin-bottom="0"
     inkscape:window-width="1246"
     inkscape:window-height="441"
     inkscape:window-x="1288"
     inkscape:window-y="514"
     inkscape:window-maximized="0" />
  <metadata
     id="metadata820">
    <rdf:RDF>
      <cc:Work
         rdf:about="">
        <dc:format>image/svg+xml</dc:format>
        <dc:type
           rdf:resource="http://purl.org/dc/dcmitype/StillImage" />
        <dc:title></dc:title>
      </cc:Work>
    </rdf:RDF>
  </metadata>
  <g
     inkscape:label="Layer 1"
     inkscape:groupmode="layer"
     id="layer1"
     transform="translate(-92.974584,-137.93241)">
    <g
       transform="matrix(0.26458333,0,0,0.26458333,-50.799998,125.16395)"
       id="crf3jl.tif">
      <g
         id="g80">
        <path
           inkscape:connector-curvature="0"
           id="path70"
           d="m 596.4,48.5 c 1.4,0.2 2.8,0.2 4.1,0.6 1.6,0.4 2.7,1.5 2.9,3.2 0.2,1.8 -0.2,3.4 -2,4.3 -0.1,0 -0.1,0.1 -0.2,0.1 -4.5,2.8 -4.5,3.3 0,6.2 2.4,1.6 2.5,3.8 0,5.4 -0.5,0.3 -1,0.6 -1.5,0.8 -2.5,0.9 -3.4,2.8 -3.4,5.3 0,2.9 0,5.9 0,8.8 -0.1,7.2 -0.1,14.4 -0.2,21.5 -0.1,3.1 0.9,5.3 4,6.6 1.1,0.4 2.2,1.8 2.5,2.9 0.4,1.7 -1.2,2.4 -2.4,3.2 -0.9,0.6 -2.2,1.6 -2.2,2.4 0.1,1 1.3,1.9 2.1,2.7 0.9,0.9 2.3,1.6 2.8,2.6 1.1,2.4 -0.2,5.1 -2.8,5.4 -3,0.3 -6.2,0.2 -9.1,-0.5 -3.1,-0.7 -4.7,-3.4 -5.3,-6.5 -0.6,-2.8 -1.7,-5.1 -4.3,-6.7 -2.4,-1.5 -2.3,-3.7 0.1,-5.2 2.8,-1.7 3.9,-4.1 3.8,-7.4 -0.2,-9.7 -0.2,-19.3 -0.3,-29 0,-2.9 -1,-5 -3.5,-6.6 -3,-1.9 -3.1,-4 -0.2,-5.9 2.1,-1.4 3.2,-3.1 3.8,-5.6 1.8,-6.6 4.4,-8.5 11.3,-8.6 z" />
        <path
           inkscape:connector-curvature="0"
           id="path72"
           d="m 628.1,82.3 c -3.1,0 -6.2,-0.1 -9.2,0 -1.7,0 -3.2,0.5 -4,2.3 -0.8,1.8 0,3.3 1,4.7 2.7,3.6 7.7,4.4 11.6,2 1.2,-0.7 2.2,-1.7 3.3,-2.5 2.1,-1.5 4.5,-1.4 6.5,0.1 1.8,1.3 2.2,2.9 0.6,4.4 -2.1,2 -4.4,3.9 -7,5 -4.9,2.2 -10.1,2.2 -15.3,0.7 -7.4,-2.1 -11.6,-7.3 -12.5,-15.4 -1.1,-9.9 3.3,-18.1 11.4,-21.1 4.9,-1.8 9.9,-1.8 14.9,-0.2 6.3,2.1 11.2,8.9 11.2,15.6 0,2.7 -1.1,3.9 -3.8,4.1 -2.9,0.1 -5.9,0 -8.8,0 0.1,0.2 0.1,0.2 0.1,0.3 z m -6.8,-5.6 c 1.7,-0.2 2.9,-0.3 4.1,-0.4 0.4,-0.1 0.9,-0.2 1.3,-0.3 2.5,-0.9 3,-2.7 1.3,-4.7 -2.7,-3.3 -8.9,-3.4 -11.8,-0.1 -1.6,1.9 -1.2,4.1 1.2,4.9 1.4,0.3 2.9,0.4 3.9,0.6 z" />
        <path
           inkscape:connector-curvature="0"
           id="path74"
           d="m 555.1,74.5 c 0,6.6 0,13.2 0,19.8 0,3.6 -1.4,5 -5,5.2 -4.2,0.2 -6.2,-1.2 -6.6,-4.7 -0.1,-0.6 -0.1,-1.2 -0.1,-1.8 0,-12.8 0,-25.5 0,-38.3 0,-5.3 4.7,-8 9.5,-5.5 1.9,1 2.2,2.8 2.2,4.7 0,6.9 0,13.8 0,20.6 z" />
        <path
           inkscape:connector-curvature="0"
           id="path76"
           d="m 563,80.4 c 0,-4.5 0,-8.9 0,-13.4 0,-3.8 1.6,-5.5 4.9,-5.6 5.1,-0.1 6.9,1.2 7,5.4 0.1,9.3 0.1,18.6 0,27.9 0,2.7 -1.3,4.2 -4,4.7 -0.9,0.2 -1.9,0.2 -2.8,0.2 -3.5,-0.2 -5,-1.7 -5.1,-5.3 0,-4.7 0.1,-9.3 0,-13.9 0.1,0 0,0 0,0 z" />
        <path
           inkscape:connector-curvature="0"
           id="path78"
           d="m 568.5,57.8 c -1.6,-0.9 -3.7,-1.5 -4.8,-2.8 -1.7,-2.1 -0.3,-5.5 2.4,-6.1 1.8,-0.4 3.8,-0.3 5.6,-0.1 2,0.3 3.1,1.8 3.2,3.9 0.1,2.1 -1.1,3.6 -3.2,4.1 -0.9,0.2 -1.9,0.3 -2.8,0.5 -0.2,0.1 -0.3,0.3 -0.4,0.5 z" />
      </g>
    </g>
  </g>
</svg>
