<?xml version="1.0" encoding="UTF-8" standalone="no"?>
<!-- Created with Inkscape (http://www.inkscape.org/) -->

<svg
   xmlns:dc="http://purl.org/dc/elements/1.1/"
   xmlns:cc="http://creativecommons.org/ns#"
   xmlns:rdf="http://www.w3.org/1999/02/22-rdf-syntax-ns#"
   xmlns:svg="http://www.w3.org/2000/svg"
   xmlns="http://www.w3.org/2000/svg"
   xmlns:sodipodi="http://sodipodi.sourceforge.net/DTD/sodipodi-0.dtd"
   xmlns:inkscape="http://www.inkscape.org/namespaces/inkscape"
   width="28.8925mm"
   height="17.832916mm"
   viewBox="0 0 28.8925 17.832916"
   version="1.1"
   id="svg923"
   inkscape:version="0.92.4 (5da689c313, 2019-01-14)"
   sodipodi:docname="kinoteka.svg">
  <defs
     id="defs917" />
  <sodipodi:namedview
     id="base"
     pagecolor="#ffffff"
     bordercolor="#666666"
     borderopacity="1.0"
     inkscape:pageopacity="0.0"
     inkscape:pageshadow="2"
     inkscape:zoom="0.35"
     inkscape:cx="43.171438"
     inkscape:cy="-134.87143"
     inkscape:document-units="mm"
     inkscape:current-layer="layer1"
     showgrid="false"
     fit-margin-top="0"
     fit-margin-left="0"
     fit-margin-right="0"
     fit-margin-bottom="0"
     inkscape:window-width="1246"
     inkscape:window-height="666"
     inkscape:window-x="1288"
     inkscape:window-y="748"
     inkscape:window-maximized="0" />
  <metadata
     id="metadata920">
    <rdf:RDF>
      <cc:Work
         rdf:about="">
        <dc:format>image/svg+xml</dc:format>
        <dc:type
           rdf:resource="http://purl.org/dc/dcmitype/StillImage" />
        <dc:title></dc:title>
      </cc:Work>
    </rdf:RDF>
  </metadata>
  <g
     inkscape:label="Layer 1"
     inkscape:groupmode="layer"
     id="layer1"
     transform="translate(-94.41089,-95.315684)">
    <g
       id="g46"
       transform="matrix(0.26458333,0,0,0.26458333,-133.65994,81.477976)">
      <path
         style="clip-rule:evenodd;fill-rule:evenodd"
         inkscape:connector-curvature="0"
         id="path42"
         d="m 863.6,54.3 h 8.8 v 17.8 h -3.9 v 8.3 h 3.9 v 8.2 h -8.8 z m 36.2,25.6 c 0.7,-0.6 1.6,-1 3,-1.1 2.8,-0.1 4.4,2.1 4.4,4.3 v 0 1.8 h -7.4 v 3.7 h 8.8 V 75.3 c -2.9,-1.2 -5.9,-1.3 -8.8,-0.9 z m 0,3.5 c 0,-1.1 0.6,-3.1 3,-3.1 2.4,0 2.9,1.8 3,3.1 v 0 z M 862.1,52.8 v 37.3 h 10.3 v 3.3 0 c 0,4.9 4.4,8.6 8.7,8.6 v 0 h 1.1 l 7.2,-0.9 v -5.9 c 3.2,5 8,6.8 13.7,6.7 5.2,0 8.5,-1.6 10.8,-3.8 v 3.3 h 11.8 v -7.9 l 1.7,-2.2 4.7,10 h 12.5 l -1.1,-2.1 v 0 c 2.1,1.9 4.7,2.6 7.5,2.6 3.5,0 6.1,-1.1 8.1,-3 0.1,0.9 0.2,1.7 0.4,2.5 v 0 l 11.7,0.1 v 0 C 970.3,99.2 970,97.6 970,95.8 V 85.6 c 0,-4.1 0,-6.7 -1.5,-8.6 -2.2,-2.8 -5.8,-4.3 -11.9,-4.3 v 0 h -1.9 v 0 c -1.3,-5.6 -5.9,-11.3 -15.1,-11.3 -6,0 -10.9,2.4 -13.9,8.2 -0.4,-4.2 -2.2,-8.1 -9.3,-8.2 -3.6,0 -5.6,1.2 -6.9,2.6 v -2.1 h -11.2 v 11.3 c -3.8,0.9 -6.9,3 -8.9,6.5 v -7.6 h -5.3 v -0.9 l 8.2,-9.3 h -11 l -2.3,2.6 -5.2,0.2 V 52.8 Z m 25.7,27.6 h 1.2 v 0 c -0.2,0.4 -0.4,0.8 -0.6,1.3 v 0 z m 1.1,5.4 1.4,2.8 h -1.5 v 0 c 0,-1 0,-1.9 0.1,-2.8 z m -4.7,-5.4 h 1.9 l 1.7,3.3 v 0 c -0.5,2 -0.6,3.6 -0.5,4.9 h -3.1 z m -2.2,-17 h 7 l -4.9,5.6 v -4.6 l -3,0.1 z m 2.4,10.2 h 3.6 v 5.3 h -0.9 z m -10.5,0 H 870 v 5.3 h 3.9 v 0.9 l 2,-2.6 5.3,11.4 h 1.5 v -9.7 h 2.7 l -3.7,-7.2 0.9,-1 v -4.8 l -2.9,0.1 -3.8,4.4 -2.1,2.8 v 0.4 z m 0,8.7 1.7,-2.2 4.7,10 h 2.4 V 91 c 0,1.6 0.4,3 2.6,3.1 0.9,0 1.7,-0.1 2.6,-0.3 v 5.8 l -5.7,0.7 v 0 c -0.3,0 -0.7,0 -0.9,0 -1.3,-0.1 -3,-0.3 -4.8,-1.8 -1.9,-1.5 -2.6,-3.4 -2.6,-6.4 z m 10.3,7.8 h 3.3 v 0 c 0.1,0.6 0.4,1.8 0.5,2.2 -0.6,0.2 -1.2,0.3 -2.3,0.3 -1.1,0 -1.5,-0.2 -1.5,-1.6 z m -9.2,-23.9 2.7,-0.1 -2.8,3.2 -0.5,0.7 z m 80.1,8 1.6,-0.1 v 0 c 4.1,0 7,0.7 9.1,2 2.9,1.8 3.2,5.1 2.9,8.7 v 10.7 c 0,1.6 0.2,3.1 0.5,4.3 h -8.3 v 0 c -0.1,-0.9 -0.3,-1.8 -0.2,-2.9 v 0 l -1.4,-0.4 v 0 c -1.8,2.6 -4.4,3.9 -8.1,3.9 -4.3,-0.1 -8.4,-2 -8.6,-7.3 0,-0.9 0.2,-1.9 0.6,-2.8 4,-0.8 6.9,-2.7 9.1,-5.5 3.2,-0.6 5.5,-0.8 7.7,-0.8 v 0 -1.3 0 c 0,-1.6 -0.5,-2.6 -1.4,-3.2 -0.9,-0.5 -1.8,-0.5 -2.5,-0.5 -0.5,0 -0.9,0 -1.3,0.1 0.4,-1.6 0.4,-3.2 0.3,-4.9 z m -11.5,6.9 c 0.7,-2.3 3.3,-6 10,-6.7 0.3,1.5 0,4.3 -0.3,5.3 -1.1,0.7 -1.5,1.6 -1.7,2.2 v 0 z m -6.2,-0.1 5.2,-5.9 v 0 c 0,3.8 -0.2,5.3 -0.8,6.6 -0.5,1 -1.3,1.2 -2.1,1.2 -0.5,0 -1.3,-0.1 -1.6,-0.5 -0.4,-0.5 -0.6,-0.9 -0.7,-1.4 z m -0.5,-6.3 h 4.1 l -3.9,4.5 v 0 c -0.2,-1.3 -0.3,-2.7 -0.2,-4.5 z m 2.8,-5.3 c 1.6,0 2.5,1.2 2.8,3.8 v 0 H 937 v 0 c 0.2,-2.5 1.2,-3.8 2.7,-3.8 z m -13.9,6.9 c 0.1,-5.2 1.9,-8.6 4.9,-10.6 2.9,-2 5.6,-2.7 9,-2.8 2.2,0 6,0.4 9.2,3 2.1,1.6 3.7,4 4.4,7 -5.1,0.7 -7.4,2.4 -9.3,4.4 v 0 l 0.1,-1.8 v 0 c -0.1,-1.8 0,-7.5 -4.3,-7.5 -2.9,0 -4,2.4 -4.3,5.3 v 0 h -2.2 l -6.5,7.5 -0.1,0.2 v 0 c -0.6,-1.4 -0.9,-3.2 -0.9,-4.7 z m 10,4.3 -2.1,2.4 3,5.8 v 0 c -3.9,-0.8 -7.2,-2.7 -9.3,-6.4 v 0 l 0.6,-0.8 6,-6.9 h 1.5 v 0 c -0.2,2.6 0,4.4 0.3,5.9 z m -20.3,11.8 h 0.4 l -0.4,1.1 z m 0,-2.3 h 10.3 v -5.7 l 0.5,-0.7 v 0 c 2.4,3.8 6.1,6.1 11.1,6.8 v 0 l 4.8,9.4 h -9.1 l -5.3,-11.4 -3.5,4.4 v 7 h -8.8 v -3.6 c 1,-1.2 1.8,-2.9 2.3,-5.4 v 0 l -2.3,-0.1 z m 0,-6.9 c 0.4,1.5 0.7,3.2 0.7,5.4 h -0.7 z m -1.5,5.4 h -3.9 V 76.1 c 1.7,1 2.9,2.3 3.9,3.8 z m -14.2,1.5 H 914 v 0.7 l -7.5,-0.5 v 0 c -0.1,1.1 -0.4,1.9 -0.9,2.5 -0.7,0.7 -1.7,0.9 -2.6,0.8 -1.6,0 -3.2,-0.6 -3.2,-3.5 z m 3.3,10.3 c -3.5,0 -7.3,-0.8 -9.8,-3 -2.2,-1.9 -3.7,-3.9 -4.3,-7.3 h 3.7 l -3.3,-6.6 v 0 c 1.3,-4.5 4.3,-7.5 8.9,-8.8 V 90 c 0,1.2 0.1,1.9 0.9,3.2 0.8,1.3 2.4,1.8 3.8,1.8 1.4,0 2.5,-0.2 3.4,-1 0.6,-0.5 1.1,-1.2 1.3,-2.2 v 0 l 6.3,0.4 v 3.6 c -2.7,3.4 -6.9,4.6 -10.9,4.6 z m 10.9,-28 v 4.9 c -1.2,-1.2 -2.4,-2.3 -3.9,-3 0,-2.2 0,-4.3 2.3,-4.3 1.1,0.1 1.6,0.7 1.6,2.4 z m -14.2,-9 h 8.2 v 3.8 h 1.4 v 0 c 1.1,-3.3 4.5,-4.3 7.1,-4.3 3.3,0 6.2,1.1 7.3,4.4 0.4,1.4 0.5,2.6 0.6,4.8 v 0 16.5 h -6.7 v 0 c 0.1,-3.2 -0.5,-6.3 -2.1,-9.2 V 73 c 0.1,-3.1 -1.1,-4.4 -3,-4.4 -3.4,0 -3.9,3 -3.9,5.1 -3.1,-1.1 -6,-1.2 -8.8,-0.8 v -9.5 z m 36.5,18.9 c 0.5,0.8 0.8,2 3.5,2 1.5,0 2.6,-0.6 3.2,-1.7 v 0 l 8.5,0.8 -0.1,0.1 v 0 c -4.6,0.9 -7.6,2.7 -9.2,5.5 -1.3,0.2 -2.5,0.3 -3.8,0.1 v 0 l -3,-5.8 z m 8.1,6.2 c 1.5,-1.5 3.3,-2.5 5.3,-3 -1,1 -3.6,2.6 -5.3,3 z m -5.2,2.1 c 0.7,0 1.4,0 2.3,-0.1 -0.5,1.5 -0.5,2.8 -0.3,4 v 0 z m 20.9,-3.2 v 3.1 0 c -0.2,3 -1.4,5.1 -4.4,5.1 -2.1,0.1 -3.6,-0.9 -3.7,-3 -0.2,-2.5 1.6,-4.7 8.1,-5.2 z m -1.5,1.6 c 0,0.6 0,1.1 -0.1,1.7 -0.1,2.1 -0.9,3.4 -3.1,3.4 -1.3,0 -2.1,-0.4 -2.1,-1.8 0.1,-1.7 2.1,-2.9 5.3,-3.3 z m -4.1,-8.3 c 0.4,-0.1 0.9,-0.2 1.6,-0.3 0.6,0 1.5,0.1 1.8,0.3 0.5,0.4 0.6,0.8 0.7,1.8 -1.7,0.1 -3.4,0.3 -5.1,0.6 0.4,-0.8 0.7,-1.6 1,-2.4 z M 889.4,53.8 h 8.9 v 5.6 h -8.9 z m -1.5,-1.5 h 11.9 v 8.6 h -11.9 z"
         class="st3" />
      <path
         inkscape:connector-curvature="0"
         id="path44"
         d="m 862,118 c 0.1,0.5 0.3,0.7 0.6,1 0.5,0.4 1.1,0.6 1.9,0.6 1.4,0 2.3,-0.7 2.3,-1.7 0,-0.9 -0.6,-1.5 -1.7,-1.7 L 864,116 c -0.6,-0.1 -0.9,-0.4 -0.9,-0.8 0,-0.5 0.5,-0.8 1.2,-0.8 0.7,0 1.2,0.3 1.4,0.9 l 0.8,-0.2 c -0.3,-0.9 -1,-1.4 -2.2,-1.4 -1.3,0 -2.1,0.7 -2.1,1.6 0,0.8 0.6,1.4 1.5,1.5 l 1.2,0.2 c 0.6,0.1 1,0.4 1,0.9 0,0.5 -0.5,0.9 -1.3,0.9 -0.5,0 -1.1,-0.2 -1.4,-0.4 -0.2,-0.1 -0.3,-0.3 -0.4,-0.6 z m 8.1,1.4 v -7.6 h -0.9 v 7.6 z m 5,-5.7 c -1.5,0 -2.5,1.2 -2.5,2.9 0,1.8 1,3 2.4,3 1.5,0 2.6,-1.2 2.6,-2.9 0,-1.8 -1,-3 -2.5,-3 z m -0.1,0.7 c 0.5,0 0.9,0.2 1.2,0.6 0.3,0.4 0.4,0.9 0.4,1.6 0,1.4 -0.6,2.2 -1.6,2.2 -1,0 -1.6,-0.8 -1.6,-2.3 0,-0.7 0.1,-1.2 0.4,-1.6 0.3,-0.2 0.8,-0.5 1.2,-0.5 z m 8.9,-0.5 h -0.8 l -1.5,4.5 -1.6,-4.5 h -1 l 2,5.6 h 0.9 z m 5.7,3.9 c -0.3,0.8 -0.8,1.1 -1.5,1.1 -0.6,0 -1.2,-0.3 -1.4,-0.9 -0.2,-0.4 -0.2,-0.6 -0.2,-1.3 h 4.1 c 0,-0.7 -0.1,-1.2 -0.3,-1.7 -0.4,-0.9 -1.2,-1.3 -2.1,-1.3 -1.5,0 -2.6,1.2 -2.6,3 0,1.7 1,2.9 2.6,2.9 1.1,0 2,-0.6 2.4,-1.6 z m -3.1,-1.7 c 0.1,-0.5 0.1,-0.8 0.4,-1.1 0.3,-0.4 0.7,-0.6 1.2,-0.6 0.9,0 1.5,0.6 1.5,1.7 z m 10.9,3.3 v -3.2 c 0,-0.8 -0.1,-1.2 -0.2,-1.5 -0.3,-0.6 -0.9,-1 -1.6,-1 -0.8,0 -1.2,0.3 -1.8,1.2 v -1 H 893 v 5.6 h 0.9 v -3.1 c 0,-1.1 0.7,-1.9 1.6,-1.9 0.7,0 1.2,0.5 1.2,1.4 v 3.6 h 0.7 z m 2.2,-1.4 c 0.1,0.5 0.3,0.7 0.6,1 0.5,0.4 1.1,0.6 1.9,0.6 1.4,0 2.3,-0.7 2.3,-1.7 0,-0.9 -0.6,-1.5 -1.7,-1.7 l -1.1,-0.2 c -0.6,-0.1 -0.9,-0.4 -0.9,-0.8 0,-0.5 0.5,-0.8 1.2,-0.8 0.7,0 1.2,0.3 1.4,0.9 l 0.8,-0.2 c -0.3,-0.9 -1,-1.4 -2.2,-1.4 -1.3,0 -2.1,0.7 -2.1,1.6 0,0.8 0.6,1.4 1.5,1.5 l 1.2,0.2 c 0.6,0.1 1,0.4 1,0.9 0,0.5 -0.5,0.9 -1.3,0.9 -0.5,0 -1.1,-0.2 -1.4,-0.4 -0.2,-0.1 -0.3,-0.3 -0.4,-0.6 z m 11.8,1.4 -2,-3.6 1.7,-2 h -0.9 l -2.6,2.9 v -4.8 h -0.9 v 7.6 h 0.9 v -1.7 l 1.2,-1.4 1.6,3.1 h 1 z m 6.5,0 c -0.1,-0.3 -0.1,-0.7 -0.1,-1.1 V 116 c 0,-0.8 -0.1,-1.3 -0.4,-1.6 -0.3,-0.4 -0.9,-0.7 -1.7,-0.7 -0.9,0 -1.6,0.2 -2.1,0.7 -0.2,0.2 -0.3,0.5 -0.4,0.9 l 0.8,0.1 c 0.1,-0.7 0.7,-1 1.5,-1 0.7,0 1.2,0.2 1.3,0.6 0.1,0.2 0.1,0.4 0.1,1 -0.4,0 -0.5,0 -0.7,0 -1,0 -1.7,0.1 -2.2,0.4 -0.6,0.3 -1,0.9 -1,1.6 0,1 0.8,1.7 1.9,1.7 1,0 1.5,-0.3 2,-1.2 0,0.6 0,0.7 0.1,1 h 0.9 z m -1,-2.8 c 0,0.1 0,0.3 0,0.4 0,1.1 -0.8,1.9 -1.8,1.9 -0.7,0 -1.2,-0.4 -1.2,-1 0,-0.8 0.8,-1.3 2.2,-1.3 0.2,0 0.5,0 0.8,0 z m 11.2,2.8 -2,-3.6 1.7,-2 H 927 l -2.6,2.9 v -4.8 h -0.9 v 7.6 h 0.9 v -1.7 l 1.2,-1.4 1.6,3.1 h 0.9 z m 3.1,-5.5 h -0.9 v 5.6 h 0.9 z m 0,-2 h -0.9 v 1 h 0.9 z m 7.3,7.5 v -3.2 c 0,-0.8 -0.1,-1.2 -0.2,-1.5 -0.3,-0.6 -0.9,-1 -1.6,-1 -0.8,0 -1.2,0.3 -1.8,1.2 v -1 h -0.8 v 5.6 h 0.9 v -3.1 c 0,-1.1 0.7,-1.9 1.6,-1.9 0.7,0 1.2,0.5 1.2,1.4 v 3.6 h 0.7 z m 5,-5.7 c -1.5,0 -2.5,1.2 -2.5,2.9 0,1.8 1,3 2.4,3 1.5,0 2.6,-1.2 2.6,-2.9 0,-1.8 -1,-3 -2.5,-3 z m -0.1,0.7 c 0.5,0 0.9,0.2 1.2,0.6 0.3,0.4 0.4,0.9 0.4,1.6 0,1.4 -0.6,2.2 -1.6,2.2 -1,0 -1.6,-0.8 -1.6,-2.3 0,-0.7 0.1,-1.2 0.4,-1.6 0.4,-0.2 0.8,-0.5 1.2,-0.5 z m 7.5,4.4 c -0.3,0.1 -0.5,0.1 -0.7,0.1 -0.6,0 -0.9,-0.3 -0.9,-0.9 v -3.5 h 1.3 v -0.7 h -1.3 v -1.5 l -0.8,0.1 v 1.4 h -1 v 0.7 h 1 v 3.4 c 0,1.1 0.5,1.7 1.6,1.7 0.3,0 0.4,0 0.8,-0.1 z m 5.6,-1 c -0.3,0.8 -0.8,1.1 -1.5,1.1 -0.6,0 -1.2,-0.3 -1.4,-0.9 -0.2,-0.4 -0.2,-0.6 -0.2,-1.3 h 4.1 c 0,-0.7 -0.1,-1.2 -0.3,-1.7 -0.4,-0.9 -1.2,-1.3 -2.1,-1.3 -1.5,0 -2.6,1.2 -2.6,3 0,1.7 1,2.9 2.6,2.9 1.1,0 2,-0.6 2.4,-1.6 z m -3.1,-1.7 c 0.1,-0.5 0.1,-0.8 0.4,-1.1 0.3,-0.4 0.7,-0.6 1.2,-0.6 0.9,0 1.5,0.6 1.5,1.7 z m 11.1,3.3 -2,-3.6 1.7,-2 h -0.9 l -2.6,2.9 v -4.8 h -0.9 v 7.6 h 0.9 v -1.7 l 1.2,-1.4 1.6,3.1 h 1 z m 6.5,0 c -0.1,-0.3 -0.1,-0.7 -0.1,-1.1 V 116 c 0,-0.8 -0.1,-1.3 -0.4,-1.6 -0.3,-0.4 -0.9,-0.7 -1.7,-0.7 -0.9,0 -1.6,0.2 -2.1,0.7 -0.2,0.2 -0.3,0.5 -0.4,0.9 l 0.8,0.1 c 0.1,-0.7 0.7,-1 1.5,-1 0.7,0 1.2,0.2 1.3,0.6 0.1,0.2 0.1,0.4 0.1,1 -0.4,0 -0.5,0 -0.7,0 -1,0 -1.7,0.1 -2.2,0.4 -0.6,0.3 -1,0.9 -1,1.6 0,1 0.8,1.7 1.9,1.7 1,0 1.5,-0.3 2,-1.2 0,0.6 0,0.7 0.1,1 h 0.9 z m -1,-2.8 c 0,0.1 0,0.3 0,0.4 0,1.1 -0.8,1.9 -1.8,1.9 -0.7,0 -1.2,-0.4 -1.2,-1 0,-0.8 0.8,-1.3 2.2,-1.3 0.2,0 0.5,0 0.8,0 z" />
    </g>
  </g>
</svg>
