<?xml version="1.0" encoding="UTF-8" standalone="no"?>
<svg
   xmlns:dc="http://purl.org/dc/elements/1.1/"
   xmlns:cc="http://creativecommons.org/ns#"
   xmlns:rdf="http://www.w3.org/1999/02/22-rdf-syntax-ns#"
   xmlns:svg="http://www.w3.org/2000/svg"
   xmlns="http://www.w3.org/2000/svg"
   viewBox="0 0 434.49927 87.978844"
   height="87.978844"
   width="434.49927"
   id="svg2"
   version="1.1">
  <metadata
     id="metadata8">
    <rdf:RDF>
      <cc:Work
         rdf:about="">
        <dc:format>image/svg+xml</dc:format>
        <dc:type
           rdf:resource="http://purl.org/dc/dcmitype/StillImage" />
        <dc:title></dc:title>
      </cc:Work>
    </rdf:RDF>
  </metadata>
  <defs
     id="defs6" />
  <path
     id="path12"
     d="M 24.999252,87.06568 C 15.028811,84.64106 6.057495,77.60672 2.149166,69.14912 0.42854798,65.4257 5.9998388e-4,62.60828 9.8387609e-7,54.99995 -6.5901612e-4,46.62659 0.33013998,44.82614 2.789337,39.81835 9.160519,26.84436 24.96388,19.65879 41.863158,22.05203 c 12.344947,1.74826 21.439046,7.7388 26.390936,17.38446 3.73623,7.27772 4.31068,19.74614 1.28009,27.78444 -2.35399,6.24371 -8.622936,13.47985 -14.15976,16.34439 -7.653216,3.95947 -21.788748,5.58842 -30.375172,3.50036 z m 18.61695,-19.79389 c 1.609043,-0.95048 3.869175,-3.67745 5.022515,-6.05994 3.786755,-7.82239 0.626767,-16.48779 -7.146806,-19.59816 -5.193133,-2.07788 -7.5254,-2.00881 -12.785808,0.37865 -8.165117,3.70577 -10.436081,15.01644 -4.444652,22.13685 1.416073,1.6829 3.511381,3.43876 4.656239,3.90191 3.656452,1.47919 11.604072,1.06863 14.698512,-0.75931 z M 93.171584,86.6299 c -10.59968,-2.9865 -16.73441,-10.25891 -18.68073,-22.14504 -0.53901,-3.2917 -0.98262,-13.97241 -0.98581,-23.73491 l -0.006,-17.75 h 10.94281 10.94281 l 0.30719,20.58851 0.30719,20.58852 2.80576,2.41148 c 3.120166,2.68171 9.970776,3.28722 12.780896,1.12969 3.49263,-2.68156 3.91334,-5.38563 3.91334,-25.15246 V 22.99995 h 11 11 v 18.83322 c 0,21.60566 -1.07631,28.56812 -5.41495,35.02824 -4.83092,7.19312 -11.94958,10.34978 -24.32179,10.78515 -6.21743,0.21878 -11.516576,-0.15045 -14.590926,-1.01666 z m 87.087766,-0.1256 c -5.96614,-1.51068 -12.72043,-4.5778 -16.39427,-7.44461 l -2.13418,-1.66536 5.46206,-6.64241 5.46206,-6.64241 6.11583,3.10784 c 7.35458,3.73732 19.36191,5.13405 21.54304,2.50594 1.94398,-2.34234 -0.65127,-4.20696 -7.98186,-5.73476 -19.59962,-4.08484 -26.83278,-9.71167 -26.83278,-20.87382 0,-8.62947 3.47911,-14.19347 11.5,-18.39145 4.90104,-2.56512 19.50802,-3.52253 27.60896,-1.80963 5.85949,1.23896 15.89104,5.86027 15.89104,7.32064 0,0.49901 -2.08298,3.82632 -4.62884,7.39403 -3.45504,4.8418 -5.03995,6.31293 -6.25,5.80131 -11.61856,-4.91239 -19.73983,-6.22548 -22.31912,-3.60868 -2.14005,2.17118 1.93372,4.56674 11.12458,6.54176 19.10381,4.1052 25.29155,10.1373 23.81717,23.21804 -0.74137,6.57739 -4.60975,11.71729 -11.27172,14.97669 -4.72745,2.31292 -7.18017,2.80622 -15.30099,3.07737 -6.19125,0.20672 -11.7364,-0.20005 -15.41098,-1.13049 z m 44.2399,-31.50435 v -32 h 10.5 10.5 v 32 32 h -10.5 -10.5 z m 25,-0.0779 V 22.84413 l 18.75,0.38366 c 20.91309,0.42792 25.28078,1.37983 33.41451,7.28249 3.19846,2.32113 5.50205,5.14623 7.47882,9.17199 2.50155,5.09448 2.85604,6.93651 2.85162,14.81769 -0.006,10.47293 -1.97194,15.91032 -7.89423,21.83263 -7.9717,7.97169 -17.89687,10.62416 -39.85072,10.65002 l -14.75,0.0174 V 54.92209 Z m 34.45434,11.66144 c 4.62947,-1.93432 6.93028,-5.77997 6.93028,-11.58353 0,-8.16218 -4.60353,-12.52798 -14.43838,-13.69277 l -4.94624,-0.5858 v 13.63929 13.63929 h 4.53212 c 2.49266,0 6.05766,-0.63741 7.92222,-1.41647 z m 30.54566,-11.58352 v -32 h 27 27 v 8.5 8.5 h -16.5 -16.5 v 3.5 3.5 h 16.5 16.5 v 7.5 7.5 h -16.5 -16.5 v 3.5 3.5 h 16.5 16.5 v 9 9 h -27 -27 z m 58,-0.0845 V 22.83094 l 21.75,0.38997 c 17.21357,0.30864 22.48,0.72446 25.25,1.99369 9.0219,4.13388 13,10.186 13,19.77768 0,7.8666 -1.67608,11.67239 -7.33385,16.65256 l -4.60762,4.05578 6.97074,10.06237 c 3.8339,5.5343 6.97073,10.32666 6.97073,10.64969 0,0.32303 -5.36603,0.58732 -11.9245,0.58732 h -11.92451 l -5.70545,-9 c -5.01921,-7.91748 -6.05067,-9 -8.5755,-9 h -2.87004 v 9 9 h -10.5 -10.5 z m 37.17126,-3.57046 c 2.27701,-2.06067 2.35945,-6.1011 0.17375,-8.51627 C 408.52709,41.37328 406.69,41 400.84426,41 h -7.34501 v 6 6 h 7.17126 c 5.26961,0 7.6562,-0.43887 9,-1.65499 z M 141.26802,41.25 140.99925,18.5 l -12.75,-0.27988 -12.75,-0.27988 V 8.97012 0 h 37 37 v 9 9 h -13 -13 V 41 64 H 152.51802 141.5368 Z"
     style="fill:#000000" />
</svg>
