<svg xmlns="http://www.w3.org/2000/svg" width="152.539" height="89.841" viewBox="0 0 40.359 23.77"><g fill="#231f20"><path d="M39.123 13.937h1.236v-.247h-.982v-2.305h-.254zm-1.177-1.086h-.872l.437-.923zm-.465-1.466l-1.205 2.552h.284l.397-.84h1.1l.4.84h.276l-1.19-2.552zm-2.02 2.552h.056l1.11-2.552h-.278l-.859 1.971-.845-1.97h-.278zm-1.771 0h.255v-2.552h-.255zm-1.345-2.302v2.302h.26v-2.302h.569v-.25h-1.398v.25zm-2.081 2.242a.751.751 0 00.421.124.709.709 0 00.513-.205.65.65 0 00.21-.482.701.701 0 00-.123-.383c-.082-.127-.233-.272-.454-.436a5.022 5.022 0 01-.33-.254.595.595 0 01-.126-.17.391.391 0 01-.035-.162c0-.091.033-.168.098-.23a.35.35 0 01.252-.094c.08 0 .154.02.221.06.068.041.15.125.246.252l.208-.158a1.157 1.157 0 00-.332-.328.67.67 0 00-.652-.01.569.569 0 00-.225.215.592.592 0 00-.08.304c0 .14.045.27.135.39.053.072.185.188.398.349.211.16.357.296.437.409a.433.433 0 01.086.251.416.416 0 01-.23.374.507.507 0 01-.241.06c-.2 0-.377-.14-.53-.422l-.216.13c.106.195.222.333.349.416zm-2.197.06h1.451v-.25h-1.197v-1.002h1.197v-.25h-1.197v-.8h1.208v-.25h-1.462zm-1.82 0h.255v-1.252h1.023v-.25h-1.023v-.8h1.023v-.25h-1.278v2.552M37.953 5.565h-.873l.437-.924zM37.487 4.1L36.28 6.65h.285l.398-.839h1.098l.402.84h.275L37.549 4.1zm-3.342 2.55V4.72l1.684 1.932h.057V4.1h-.252v1.955L33.937 4.1h-.056v2.55zm-2.627 0V4.72l1.684 1.932h.057V4.1h-.252v1.955L31.31 4.1h-.055v2.55zm-2.168 0H30.8v-.249h-1.196V5.399H30.8v-.25h-1.196v-.8h1.207V4.1H29.35zm-.842 0h.255V4.1h-.255zm-1.557 0h.056l1.11-2.55h-.278l-.86 1.97-.845-1.97h-.277l1.094 2.55M14.91 6.452c0 1.027.974 1.456 1.768 1.833l1.872.975c.74.468 1.118 1.066 1.118 1.95 0 1.626-1.482 2.848-3.068 2.848-1.366 0-2.432-.845-2.887-2.106l.546-.247c.416 1.04 1.183 1.768 2.366 1.768 1.288 0 2.419-1.014 2.419-2.314 0-1.106-1.131-1.573-1.976-1.99l-1.769-.936c-.65-.403-1.014-.975-1.014-1.755 0-1.456 1.04-2.483 2.51-2.483.988 0 1.924.533 2.392 1.378l-.442.364c-.442-.702-1.066-1.157-1.99-1.157-1.053 0-1.846.845-1.846 1.872zm-2.393 7.476h-1.222V4.125h1.222zm11.253-2.043C23.77 5.321 18.45 0 11.885 0a11.852 11.852 0 00-9.043 4.185l2.342 5.895 2.38-5.955h2.769l-4.187 9.803H4.17L1.165 6.78A11.816 11.816 0 000 11.885C0 18.45 5.321 23.77 11.885 23.77S23.77 18.45 23.77 11.885M37.42 10.239a.75.75 0 00.421.124.708.708 0 00.513-.205.65.65 0 00.21-.482.698.698 0 00-.123-.383c-.082-.127-.233-.272-.454-.436a5.06 5.06 0 01-.33-.254.598.598 0 01-.126-.17.396.396 0 01-.035-.162c0-.091.033-.168.098-.23a.35.35 0 01.253-.094c.08 0 .153.02.22.06.068.041.15.125.246.252l.208-.158a1.167 1.167 0 00-.332-.328.673.673 0 00-.652-.01.563.563 0 00-.224.215.592.592 0 00-.08.304c0 .14.045.27.135.39.052.072.184.188.397.349.212.16.357.296.437.409a.434.434 0 01.087.252.414.414 0 01-.231.373.504.504 0 01-.241.06c-.2 0-.377-.14-.529-.421l-.217.13c.106.194.223.332.349.415zm-1.282-2.242V10.3h.26V7.997h.57v-.25H35.57v.25zm-1.753 0c.175 0 .3.015.376.045a.411.411 0 01.252.383.433.433 0 01-.069.24.392.392 0 01-.191.155 1.093 1.093 0 01-.378.048l-.44-.004v-.867zm-.704 2.302h.254V9.114h.145l.917 1.185h.316l-.918-1.185c.214-.001.382-.028.503-.082a.607.607 0 00.28-.239.679.679 0 00.098-.367.634.634 0 00-.512-.644c-.1-.023-.292-.034-.575-.034h-.508zm-1.33-2.22a1.06 1.06 0 01.54.942c0 .204-.047.39-.141.556a1.031 1.031 0 01-.394.394 1.091 1.091 0 01-.55.144 1.04 1.04 0 01-.76-.313 1.042 1.042 0 01-.316-.769c0-.204.048-.39.143-.557.095-.166.227-.299.396-.397.169-.098.348-.148.537-.148.192 0 .374.05.545.148zm-1.221-.218a1.357 1.357 0 00-.663 1.173c0 .368.13.682.39.94.26.26.58.389.958.389.374 0 .69-.13.95-.39s.39-.577.39-.95c0-.377-.13-.695-.39-.953a1.324 1.324 0 00-.97-.387c-.239 0-.46.06-.665.178zM28.15 10.3h.255V9.067h1.299V10.3h.255V7.748h-.255v1.07h-1.299v-1.07h-.255zm-1.68-.06a.752.752 0 00.42.124.707.707 0 00.513-.205.65.65 0 00.211-.482.701.701 0 00-.123-.383c-.082-.127-.234-.272-.454-.436a5.176 5.176 0 01-.33-.254.594.594 0 01-.127-.17.394.394 0 01-.034-.162c0-.091.032-.168.098-.23a.35.35 0 01.252-.094c.08 0 .153.02.221.06.068.041.15.125.246.252l.208-.158a1.16 1.16 0 00-.332-.328.672.672 0 00-.653-.01.57.57 0 00-.304.519c0 .14.045.27.136.39.051.072.184.188.397.349.211.16.357.296.437.409a.432.432 0 01.087.252.421.421 0 01-.231.373.507.507 0 01-.242.06c-.2 0-.376-.14-.528-.421l-.217.13c.106.194.223.332.348.415"/></g></svg>